<svg xmlns="http://www.w3.org/2000/svg" viewBox="0 0 118 22.28"><defs><style>.cls-1{fill:#fff;fill-rule:evenodd;}</style></defs><title>abrakadabra</title><g id="Layer_2" data-name="Layer 2"><g id="Layer_1-2" data-name="Layer 1"><path class="cls-1" d="M51.78,12.45l2.29-1.93a2.92,2.92,0,0,0,1.14-2.34,2.36,2.36,0,0,0-.59-1.59,2.42,2.42,0,0,0-1.94-.81,3.3,3.3,0,0,0-2.13.79L48.1,8.73c0-.1,0-6,0-6.07A2.81,2.81,0,0,0,47.21.87,2.93,2.93,0,0,0,45.09,0a3,3,0,0,0-2.15.86A2.82,2.82,0,0,0,42.06,3V19.1a2.9,2.9,0,0,0,.88,2.13,3.05,3.05,0,0,0,4.29,0,2.9,2.9,0,0,0,.88-2.13v-1.7l2,3.41a2.78,2.78,0,0,0,1.07,1.06,2.89,2.89,0,0,0,1.46.4,2.71,2.71,0,0,0,1.34-.34,2.62,2.62,0,0,0,1.45-2.43A2.74,2.74,0,0,0,55,18.16Z"/><path class="cls-1" d="M8.6,12.74,3.51,7.8a2.08,2.08,0,0,0-1.07-.55,2,2,0,0,0-1.17.13L1,7.48a2.08,2.08,0,0,0-.79.75,1.84,1.84,0,0,0-.25,1l.14,7a3,3,0,0,0,.05.39A1.74,1.74,0,0,0,.31,17a2,2,0,0,0,.77.87,2,2,0,0,0,1.14.31A2,2,0,0,0,3,18.08a2,2,0,0,0,.85-.68,2,2,0,0,0,.39-1l1.73-.73a2.11,2.11,0,0,0,1,.43A2,2,0,0,0,8,16a1.88,1.88,0,0,0,.64-.43,1.81,1.81,0,0,0,.56-1,1.91,1.91,0,0,0-.14-1.14A1.87,1.87,0,0,0,8.6,12.74Zm-5.13.51,0-1.24.89.87Z"/><path class="cls-1" d="M118,18.67l-1-6.94a2,2,0,0,0-1.53-1.66l-.25,0a2.14,2.14,0,0,0-1.09.14,1.91,1.91,0,0,0-.84.68L109,16.54a3.16,3.16,0,0,0-.2.35,1.81,1.81,0,0,0-.13.35,1.9,1.9,0,0,0,.07,1.15,1.88,1.88,0,0,0,.72.92,2,2,0,0,0,.68.32,2,2,0,0,0,1.1,0,2.07,2.07,0,0,0,.93-.57l1.83.44a2,2,0,0,0,.54.94,2,2,0,0,0,1.71.54,1.9,1.9,0,0,0,1.07-.48,1.94,1.94,0,0,0,.59-1A1.84,1.84,0,0,0,118,18.67Zm-4.41-2.61.74-1,.17,1.22Z"/><path class="cls-1" d="M65.45,12.83l-5.1-4.94a2.08,2.08,0,0,0-1.07-.55,2,2,0,0,0-1.17.13l-.23.11a2.08,2.08,0,0,0-.79.75,1.84,1.84,0,0,0-.25,1l.14,7a3,3,0,0,0,.05.39,1.73,1.73,0,0,0,.11.35,2,2,0,0,0,1.91,1.19,2,2,0,0,0,2-1.83l1.73-.73a2.1,2.1,0,0,0,1,.43,2,2,0,0,0,1.06-.14,1.88,1.88,0,0,0,.65-.43,1.8,1.8,0,0,0,.56-1,1.91,1.91,0,0,0-.14-1.14A1.88,1.88,0,0,0,65.45,12.83Zm-5.13.51,0-1.24.89.87Z"/><path class="cls-1" d="M39.58,11.82a2,2,0,0,0-1.43-1.74L37.91,10a2.14,2.14,0,0,0-1.1.08,1.92,1.92,0,0,0-.88.63l-4.54,5.45a3,3,0,0,0-.22.33,1.75,1.75,0,0,0-.15.34A2,2,0,0,0,31.69,19a2,2,0,0,0,.66.36,2,2,0,0,0,1.1,0,2.08,2.08,0,0,0,1-.52l1.8.54a2,2,0,0,0,.48,1,2,2,0,0,0,1.68.64,1.9,1.9,0,0,0,1.1-.42,2,2,0,0,0,.65-1,1.83,1.83,0,0,0,.08-.77ZM35.95,16l.8-1,.1,1.23Z"/><path class="cls-1" d="M107.85,14.3l-1.44-1.24a4.07,4.07,0,0,0,.38-1.38,3.63,3.63,0,0,0-.16-1.44A3.68,3.68,0,0,0,104.72,8a3.92,3.92,0,0,0-3-.26l-2.25.67a1.88,1.88,0,0,0-1.27,2.38l2,6.31a1.94,1.94,0,0,0,2.42,1.27,1.68,1.68,0,0,0,1.09-.91,1.91,1.91,0,0,0,.09-1.44l-.26-.82.35-.1h0l1.83,1.59a1.7,1.7,0,0,0,1.59.35,1.6,1.6,0,0,0,.75-.47,1.58,1.58,0,0,0,.39-.73,1.56,1.56,0,0,0,0-.81A1.62,1.62,0,0,0,107.85,14.3Zm-4.2-2.52a.89.89,0,0,1-.53.42l-.49.16-.54-1.71.49-.15a.89.89,0,0,1,.69.07.87.87,0,0,1,.45.53A.8.8,0,0,1,103.65,11.79Z"/><path class="cls-1" d="M17.54,10.71,14.22,9.55a1.54,1.54,0,0,0-1.31.13A2,2,0,0,0,12,10.8L9.68,17.07a2,2,0,0,0,0,1.43,1.49,1.49,0,0,0,.92.92h0l3.51,1.23a3,3,0,0,0,2.36-.11,3,3,0,0,0,1.59-1.72,2.88,2.88,0,0,0,.11-1.7,3,3,0,0,0-.83-1.46,2.75,2.75,0,0,0,1.09-.6,2.52,2.52,0,0,0,.69-1,2.44,2.44,0,0,0-.09-2A2.59,2.59,0,0,0,17.54,10.71ZM14.76,17.3a.81.81,0,0,1-.44.48.83.83,0,0,1-.64,0l-.61-.21L13.65,16l.61.21a.8.8,0,0,1,.48.42A.77.77,0,0,1,14.76,17.3Zm1.13-3.44a.72.72,0,0,1-.39.42.73.73,0,0,1-.57,0l-.58-.2.51-1.37.58.2a.71.71,0,0,1,.43.37A.69.69,0,0,1,15.89,13.86Z"/><path class="cls-1" d="M95.74,10.69l-3.38-1a1.54,1.54,0,0,0-1.3.22,2,2,0,0,0-.85,1.17l-1.89,6.41A2,2,0,0,0,88.4,19a1.5,1.5,0,0,0,1,.86h0l3.59,1a3,3,0,0,0,2.35-.25,2.93,2.93,0,0,0,1.47-1.82,2.87,2.87,0,0,0,0-1.71,3,3,0,0,0-.92-1.41A2.73,2.73,0,0,0,97,15a2.5,2.5,0,0,0,.63-1.06,2.45,2.45,0,0,0-.23-2A2.6,2.6,0,0,0,95.74,10.69ZM93.4,17.45a.81.81,0,0,1-.4.5.83.83,0,0,1-.64.07l-.62-.17.47-1.59.62.17a.8.8,0,0,1,.5.39A.77.77,0,0,1,93.4,17.45Zm.9-3.51a.72.72,0,0,1-.36.45.73.73,0,0,1-.56.06l-.59-.17.41-1.4.59.17a.71.71,0,0,1,.45.34A.69.69,0,0,1,94.3,13.94Z"/><path class="cls-1" d="M73.38,10.85,70.93,10a1.47,1.47,0,0,0-1.27.15,2,2,0,0,0-.91,1.1l-2.32,6.3a2,2,0,0,0,0,1.42,1.43,1.43,0,0,0,.89.9l.13,0,2.35.82a5.22,5.22,0,0,0,4.09-.21,5.14,5.14,0,0,0,2.75-3,4.94,4.94,0,0,0-.2-4A5.14,5.14,0,0,0,73.38,10.85Zm-.13,5.52a1.69,1.69,0,0,1-.91,1,1.73,1.73,0,0,1-1.34.07l-.93-.33,1.19-3.25.93.33a1.68,1.68,0,0,1,1,.88A1.62,1.62,0,0,1,73.26,16.37Z"/><path class="cls-1" d="M29.69,14.71l-1.38-1.3A4.07,4.07,0,0,0,28.75,12a3.63,3.63,0,0,0-.09-1.44,3.67,3.67,0,0,0-1.81-2.34,3.92,3.92,0,0,0-3-.4l-2.27.57a1.88,1.88,0,0,0-1.38,2.32l1.68,6.39a1.94,1.94,0,0,0,2.35,1.38,1.69,1.69,0,0,0,1.13-.86,1.9,1.9,0,0,0,.16-1.43l-.22-.83.35-.09h0L27.37,17a1.63,1.63,0,0,0,.74.41,1.66,1.66,0,0,0,.83,0,1.64,1.64,0,0,0,1.19-1.14,1.56,1.56,0,0,0,0-.82A1.62,1.62,0,0,0,29.69,14.71ZM25.61,12a.9.9,0,0,1-.55.4l-.5.14-.45-1.73.5-.13a.89.89,0,0,1,.68.1.87.87,0,0,1,.43.55A.8.8,0,0,1,25.61,12Z"/><path class="cls-1" d="M87.39,15.1,84.25,8.79a2,2,0,0,0-.83-.87,2,2,0,0,0-1.15-.26L82,7.7a2.13,2.13,0,0,0-1,.46,1.87,1.87,0,0,0-.59.9L78.2,15.72a3,3,0,0,0-.08.39,1.72,1.72,0,0,0,0,.37,2,2,0,0,0,1.4,1.74,2,2,0,0,0,.75.1A2.11,2.11,0,0,0,82,17.13L83.87,17a2,2,0,0,0,.8.73,2,2,0,0,0,1,.21,1.93,1.93,0,0,0,.76-.2,1.86,1.86,0,0,0,.87-.78,1.93,1.93,0,0,0,.26-1.12A1.85,1.85,0,0,0,87.39,15.1Zm-5-1.18.39-1.17.54,1.11Z"/></g></g></svg>