<svg xmlns="http://www.w3.org/2000/svg" viewBox="0 0 33 33.01"><defs><style>.cls-1{fill:#fff;}</style></defs><title>dc</title><g id="Layer_2" data-name="Layer 2"><g id="Layer_1-2" data-name="Layer 1"><path class="cls-1" d="M33,15.73v1.55s0,.06,0,.09a15,15,0,0,1-.15,1.57,16.49,16.49,0,0,1-15.2,14,2.22,2.22,0,0,0-.34,0H15.66A15,15,0,0,1,14,32.82a16.5,16.5,0,0,1-14-17A16.47,16.47,0,0,1,5.2,4.48,16.61,16.61,0,0,1,7.43,2.72a16.5,16.5,0,0,1,16-1.2,16.54,16.54,0,0,1,9.07,10.9A16,16,0,0,1,33,15.16ZM16.24,17q0,3.21,0,6.42a.26.26,0,0,1-.12.24L13,25.85a.42.42,0,0,1-.27.09H4.6s-.07,0-.09,0,0,.05,0,.07a15.3,15.3,0,0,0,7.3,5,15,15,0,0,0,4.06.71,15.51,15.51,0,0,0,2.65-.13A15.09,15.09,0,0,0,23.1,30.3a15.26,15.26,0,0,0,5.34-4.24s.08-.07.06-.11-.08,0-.12,0H21a.36.36,0,0,1-.23-.07L17.64,23.6a.25.25,0,0,1-.12-.23c0-1,0-2,0-2.95q0-4.94,0-9.88a.24.24,0,0,1,.11-.22L20.74,8a.32.32,0,0,1,.2-.07h3.55a.3.3,0,0,1,.19.06l1.41,1c.11.08.11.08.17,0,.14-.32.29-.64.43-1a.16.16,0,0,1,.17-.11H29s.08,0,.1,0,0-.07,0-.1A15.35,15.35,0,0,0,26.4,4.86,15.2,15.2,0,0,0,15.89,1.24a15.57,15.57,0,0,0-1.76.17A15.21,15.21,0,0,0,6.43,5,15.39,15.39,0,0,0,3.95,7.8s-.07.07-.05.1.08,0,.12,0h8.78A.36.36,0,0,1,13,8l3.11,2.31a.26.26,0,0,1,.12.24Q16.24,13.75,16.24,17ZM21,12.07l.06.05c.31.23.62.46.94.68a.34.34,0,0,1,.16.32q0,3.65,0,7.3a1.43,1.43,0,0,0,1.44,1.45h1.72c.12,0,.13,0,.13-.12q0-1,0-2a.9.9,0,0,0,0-.09c0-.08,0-.11.11-.1h4.1c.05,0,.08,0,.08.07s0,.07,0,.1q0,2.17,0,4.35a.23.23,0,0,0,0,.12,15.22,15.22,0,0,0,2-8.8,15,15,0,0,0-1.58-5.71.08.08,0,0,0,0,.06l-.09.56-.66,4.22c0,.13,0,.13-.15.13H25.57c-.13,0-.13,0-.13-.13q0-1.15,0-2.31c0-.13,0-.13-.13-.13H21.08A.12.12,0,0,0,21,12.07Zm-13.86,0s0,0,0,0c.32.23.63.47,1,.69a.34.34,0,0,1,.17.32q0,4.3,0,8.6c0,.14,0,.14.14.14h1.65a1.51,1.51,0,0,0,1.54-1.56q0-3.35,0-6.7a1.68,1.68,0,0,0,0-.3,1.51,1.51,0,0,0-1.51-1.27H7.21A.15.15,0,0,0,7.13,12.06ZM3.67,24.8a.24.24,0,0,0,0-.12q0-1.4,0-2.8,0-4.64,0-9.28a.23.23,0,0,0-.11-.22l-1.36-.94c-.1-.07-.1-.07-.14,0a15.32,15.32,0,0,0-.79,6.26,15.41,15.41,0,0,0,.28,2,15.23,15.23,0,0,0,1.78,4.57Z"/></g></g></svg>