<svg xmlns="http://www.w3.org/2000/svg" viewBox="0 0 47 16.84"><defs><style>.cls-1{fill:#fff;}</style></defs><title>marvel</title><g id="Layer_2" data-name="Layer 2"><g id="Layer_1-2" data-name="Layer 1"><path class="cls-1" d="M40.84,3.07V0H32.26L30.84,10.25,29.45,0h-3.1l.35,2.74A4.89,4.89,0,0,0,22.28,0h-3.1V14.94L16.91,0H12.86L10.52,15.47V0H6.64L5.25,8.69,3.88,0H0V16.82H3.06V8.72l1.39,8.11H6.07L7.44,8.72v8.11h5.89l.36-2.59h2.37l.36,2.59h5.8V11.36l.71-.1,1.47,5.57h3L25.47,10.3A4.86,4.86,0,0,0,27.26,6h0l1.82,10.82h3.56L35.07,1.58V16.82h5.77v-3H38.1V9.94h2.74V6.87H38.1V3.07h2.74Zm-26.79,8.5.84-7.19.87,7.19Zm8.89-3.32a1.67,1.67,0,0,1-.72.17V3h0c.24,0,2,.07,2,2.68a2.68,2.68,0,0,1-1.32,2.57ZM47,13.8v3H41.37V0h3V13.8Z"/></g></g></svg>