<svg xmlns="http://www.w3.org/2000/svg" viewBox="0 0 49 20.26"><defs><style>.cls-1{fill:#fff;}</style></defs><title>disney</title><g id="Layer_2" data-name="Layer 2"><g id="Layer_1-2" data-name="Layer 1"><path class="cls-1" d="M24.65,2.21a1.49,1.49,0,0,1,.9.36,1.24,1.24,0,0,1,.27,1.3,5.31,5.31,0,0,1-3.16,2.46,3.57,3.57,0,0,1-2-.07c-.27.16-.5.69-.83.47-.48-.37-.06-1-.34-1.38-.06-.09-.2-.09-.27-.23a2.15,2.15,0,0,1,.61-2.26c.87-1,3.38-2.06,4.77-.65Zm-2.91.65a2.4,2.4,0,0,0-1.34.65c-.3.35-.49.69-.31,1,.63-.47.94-1.12,1.64-1.52C21.74,3,21.85,2.92,21.74,2.86ZM24.69,3c-1.25-.11-2.19.83-3.07,1.74-.05.14-.38.31-.13.47a4.1,4.1,0,0,0,3.2-1A.8.8,0,0,0,25,3.35.64.64,0,0,0,24.69,3ZM35.49,8.43c.58,1.41,1.07,3.63,0,5-.29.33-.8.63-1.12.38-1.19-1-1.7-2.33-2.44-3.56-.11-.05-.11.09-.16.14-.27,1.25.23,2.87-.61,3.85a.65.65,0,0,1-.74-.43c-.42-1.28,0-2.62.13-3.9A4.34,4.34,0,0,1,31.46,8c.9.36,1.34,1.37,1.86,2.12a18.51,18.51,0,0,0,1.12,1.7c.38-.16.19-.66.18-1a23.56,23.56,0,0,0-.78-3.38c0-.29-.18-.78.13-1A3.61,3.61,0,0,1,35.49,8.43ZM30,8a.75.75,0,0,1-.4.65c-1.74.27-3.67.11-5.3.65-.05.2.18.23.31.29,1.39.22,2.86.27,4.21.61.72.18,1,1,1,1.74a1.85,1.85,0,0,1-.72,1.61,4.9,4.9,0,0,1-4.74,0,1.83,1.83,0,0,1-1-1.34,1.08,1.08,0,0,1,.52-1,4.77,4.77,0,0,1,4,.43c.07.36-.32.34-.51.47-1.25.72-2.19-.81-3.34-.25-.16.11-.28.41-.09.51,1.43.63,3,.18,4.43-.22.16-.05.36-.22.38-.38-.05-.58-.7-.7-1.12-.87a27.16,27.16,0,0,0-3.9-.43,1,1,0,0,1-.65-.43,1.47,1.47,0,0,1,.18-1.39c1.68-1.48,4.23-1.36,6.36-1,.14.05.31.11.36.27Zm-7.9.69a44.12,44.12,0,0,1,.22,5.17c0,.23-.31.29-.49.38a.91.91,0,0,1-.78-.16,5,5,0,0,1-.31-2.39,16.06,16.06,0,0,1,.4-3.87c.07-.17.27-.33.43-.22a1.12,1.12,0,0,1,.52,1.08Zm20.08-.25c.09.15.18.37,0,.47a10.42,10.42,0,0,1-2.86.31,1,1,0,0,0-.36.9c.09.05.17.14.27.13.58,0,1.45-.27,1.83.27.09.16,0,.76-.27.78a15.49,15.49,0,0,0-2.21.09c-.43.29-.4.85-.56,1.3.31.2.63,0,1-.05a5.8,5.8,0,0,1,2.08-.16c.13.23.31.49.18.78-1.14.9-2.61,1.83-4.18,1.17a1.67,1.67,0,0,1-.65-1.92c.13-.54.69-1.07.34-1.64a.43.43,0,0,1,.31-.52c.6,0,.47-.74.78-1.08-.34-.38-1.21-.36-1.12-1.12a4.4,4.4,0,0,1,1.39-.22,11,11,0,0,1,3.34-.22C41.75,7.73,42,8.16,42.22,8.43ZM16.41,4.31C18.08,5.67,20.24,8,20,10.67c-.33,2.12-2.57,3.71-4.46,4.21a12.63,12.63,0,0,1-6,.05c-.13.34-.25.76-.65.9A.85.85,0,0,1,8,15.71c-.56-.52-.11-1.54-.92-1.86A8.36,8.36,0,0,1,3,10.24a1,1,0,0,1,.22-.9A9.9,9.9,0,0,1,7.6,7.63c.09,0,.05-.09.13-.13A12.86,12.86,0,0,1,8.2,4.34a.28.28,0,0,1,.4-.09c1,.76.52,2.19,1,3.22,1.9.09,3.8.18,5.3,1.25a1.65,1.65,0,0,1,.47,1.66,1.38,1.38,0,0,1-1.17.81c-.33,0-.94,0-.9-.22s1.11-.66.78-1-2.83-.78-4.3-1c-.18,0-.35,0-.35.22a21.79,21.79,0,0,0,.09,4.21.32.32,0,0,0,.22.22A9.78,9.78,0,0,0,17,12.37a3.1,3.1,0,0,0,1.08-3c-.81-3.27-4.23-5.24-7-6.51a19.77,19.77,0,0,0-9-1.64c-.52,0-1.33.22-1.34.4s.92.12.81.47S.51,2.22.23,2.14,0,1.65,0,1.4C.75.15,2.72,0,3.61,0a20.06,20.06,0,0,1,12.8,4.3ZM7.55,9.15a11.23,11.23,0,0,0-3.72.58c-.23.09-.52.34-.34.65A6,6,0,0,0,5.25,11.9a6.81,6.81,0,0,0,2.22.94A21,21,0,0,0,7.64,9.3c-.07,0,0-.11-.09-.14ZM44.91,7.51c-.05,1.57-1.52,2.55-1.52,4.12.05.05.09.13.16.09,1.18-1.28,2.33-3.11,4-3.65a1.23,1.23,0,0,1,1,.65,4,4,0,0,1-.38,4,4.8,4.8,0,0,1-4,2,23.18,23.18,0,0,0-1.46,5.46c-.14.38-.49,0-.7,0-1.46-1.16-.26-4.22-.16-4.61s.49-1.31.78-2.08A4.21,4.21,0,0,1,43,9.51a7.68,7.68,0,0,1,1.74-2.1.24.24,0,0,1,.22.09Zm2.91,2c-.22,0-.31.25-.49.31a10.08,10.08,0,0,0-2.08,3,3.08,3.08,0,0,0,1.52-.49,2.64,2.64,0,0,0,1.3-2.39c0-.16-.18-.29-.25-.43Z"/></g></g></svg>