<?xml version="1.0" standalone="no"?>
<!DOCTYPE svg PUBLIC "-//W3C//DTD SVG 1.1//EN" "http://www.w3.org/Graphics/SVG/1.1/DTD/svg11.dtd" >
<svg xmlns="http://www.w3.org/2000/svg">
<metadata>Generated by IcoMoon</metadata>
<defs>
<font id="icomoon" horiz-adv-x="1024">
<font-face units-per-em="1024" ascent="960" descent="-64" />
<missing-glyph horiz-adv-x="1024" />
<glyph unicode="&#x20;" horiz-adv-x="512" d="" />
<glyph unicode="&#xe906;" glyph-name="cog" d="M512 603.826c-86.060 0-155.826-69.766-155.826-155.826s69.766-155.826 155.826-155.826c86.060 0 155.826 69.766 155.826 155.826v0c0 86.060-69.766 155.826-155.826 155.826v0zM512 336.696c-61.472 0-111.304 49.833-111.304 111.304s49.833 111.304 111.304 111.304c61.472 0 111.304-49.833 111.304-111.304v0c0-61.472-49.833-111.304-111.304-111.304v0zM912.696 559.304h-7.569c-19.212 0.265-35.84 11.072-44.388 26.887l-0.134 0.271c0.219 1.138 0.345 2.446 0.345 3.784s-0.126 2.647-0.366 3.915l0.021-0.13c-2.623 6.039-4.15 13.073-4.15 20.464 0 15.322 6.559 29.112 17.022 38.715l0.038 0.035c20.069 20.13 32.477 47.906 32.477 78.581s-12.409 58.451-32.48 78.584l0.003-0.003c-20.265 19.721-47.83 32.030-78.267 32.5l-0.091 0.001c-0.377 0.005-0.821 0.007-1.267 0.007-32.021 0-60.934-13.309-81.509-34.697l-0.035-0.037c-9.226-9.040-21.873-14.62-35.823-14.62-7.5 0-14.623 1.613-21.042 4.51l0.323-0.13c-19.262 8.077-32.546 26.779-32.546 48.584 0 0.764 0.016 1.523 0.049 2.279l-0.004-0.108c0 61.472-49.833 111.304-111.304 111.304s-111.304-49.833-111.304-111.304v0-7.569c-0.265-19.212-11.072-35.84-26.887-44.388l-0.271-0.134h-7.569c-6.066-2.595-13.125-4.104-20.536-4.104-15.206 0-28.929 6.353-38.658 16.549l-0.020 0.021c-19.61 19.021-46.391 30.747-75.91 30.747-0.861 0-1.719-0.010-2.575-0.030l0.127 0.002c-30.385-0.017-57.908-12.255-77.922-32.065l0.009 0.009c-20.124-20.273-32.561-48.2-32.561-79.032 0-31.493 12.976-59.956 33.873-80.333l0.023-0.023c9.008-9.35 14.557-22.087 14.557-36.12 0-7.892-1.755-15.374-4.896-22.078l0.134 0.319c-7.721-19.713-26.575-33.418-48.629-33.418-0.591 0-1.18 0.010-1.766 0.029l0.085-0.002c-61.472 0-111.304-49.833-111.304-111.304s49.833-111.304 111.304-111.304v0h7.569c20.893-0.156 38.794-12.802 46.62-30.834l0.128-0.331c2.623-6.039 4.15-13.073 4.15-20.464 0-15.322-6.559-29.112-17.022-38.715l-0.038-0.035c-20.069-20.13-32.477-47.906-32.477-78.581s12.409-58.451 32.48-78.584l-0.003 0.003c19.929-20.075 47.539-32.501 78.051-32.501 0.108 0 0.216 0 0.324 0h-0.017c0.105 0 0.228-0.001 0.352-0.001 31.362 0 59.742 12.766 80.226 33.386l0.006 0.006c9.643 8.654 22.458 13.945 36.509 13.945 30.138 0 54.59-24.346 54.761-54.444v-0.016c0-61.472 49.833-111.304 111.304-111.304s111.304 49.833 111.304 111.304v0 7.569c1.058 20.007 13.451 36.879 30.833 44.394l0.332 0.128c6.093 2.648 13.19 4.189 20.647 4.189 15.187 0 28.882-6.39 38.543-16.629l0.024-0.026c19.902-20.338 47.63-32.947 78.304-32.947 0.176 0 0.351 0 0.527 0.001h-0.027c30.385 0.017 57.908 12.255 77.922 32.065l-0.009-0.009c21.066 20.421 34.14 48.98 34.14 80.593 0 31.83-13.255 60.564-34.546 80.984l-0.039 0.037c-9.040 9.226-14.62 21.873-14.62 35.823 0 7.5 1.613 14.623 4.51 21.042l-0.13-0.323c8.077 19.262 26.779 32.546 48.584 32.546 0.764 0 1.523-0.016 2.279-0.049l-0.108 0.004c61.472 0 111.304 49.833 111.304 111.304s-49.833 111.304-111.304 111.304v0zM908.689 381.217c-0.419 0.007-0.914 0.010-1.409 0.010-39.111 0-72.718-23.566-87.396-57.274l-0.238-0.615c-4.9-11.212-7.752-24.277-7.752-38.008 0-27.581 11.505-52.475 29.977-70.145l0.036-0.034c11.962-12.131 19.349-28.799 19.349-47.193s-7.387-35.062-19.356-47.201l0.008 0.008c-12.124-12.011-28.776-19.469-47.17-19.589h-0.023c-19.95 0.258-37.822 8.942-50.258 22.649l-0.051 0.058c-17.322 16.947-41.054 27.403-67.228 27.403-53.041 0-96.053-42.941-96.167-95.956v-7.58c0-36.883-29.9-66.783-66.783-66.783s-66.783 29.9-66.783 66.783v0 4.452c0 0.085 0 0.185 0 0.285 0 40.377-25.234 74.86-60.792 88.539l-0.649 0.219c-11.112 5.063-24.1 8.014-37.778 8.014-0.023 0-0.046 0-0.069 0h0.004c-27.599-0.456-52.426-11.955-70.326-30.256l-0.018-0.019c-12.124-12.011-28.776-19.469-47.17-19.589h-0.023c-0.092 0-0.202-0.001-0.311-0.001-18.34 0-34.93 7.493-46.876 19.584l-0.006 0.007c-11.518 12.173-18.6 28.648-18.6 46.777 0 19.886 8.521 37.781 22.111 50.235l0.051 0.046c16.947 17.322 27.403 41.054 27.403 67.228 0 53.041-42.941 96.053-95.956 96.167h-7.134c-36.883 0-66.783 29.9-66.783 66.783s29.9 66.783 66.783 66.783v0h4.452c0.085 0 0.185 0 0.285 0 40.377 0 74.86 25.234 88.539 60.792l0.219 0.649c5.008 11.264 7.924 24.405 7.924 38.227 0 27.545-11.581 52.385-30.139 69.918l-0.046 0.043c-11.962 12.131-19.349 28.799-19.349 47.193s7.387 35.062 19.356 47.201l-0.008-0.008c11.869 11.127 27.813 18.033 45.368 18.253h0.044c19.786-0.389 37.476-9.047 49.813-22.648l0.052-0.058c17.18-16.886 40.758-27.311 66.771-27.311 12.334 0 24.121 2.344 34.94 6.61l-0.646-0.225c1.204-0.199 2.592-0.313 4.007-0.313s2.803 0.114 4.155 0.333l-0.148-0.020c34.347 15.18 57.882 48.951 57.882 88.218 0 0.29-0.001 0.581-0.004 0.87v-0.045 8.014c0 0 0 0.001 0 0.001 0 36.883 29.9 66.783 66.783 66.783 0.157 0 0.313-0.001 0.469-0.002h-0.024c37.021-0.462 66.855-30.581 66.855-67.668 0-1.098-0.026-2.19-0.078-3.275l0.006 0.153c0.339-52.854 43.264-95.569 96.165-95.569 27.515 0 52.33 11.555 69.859 30.077l0.042 0.045c12.124 12.011 28.776 19.469 47.17 19.589h0.023c0.092 0 0.202 0.001 0.311 0.001 18.34 0 34.93-7.493 46.876-19.584l0.006-0.007c11.518-12.173 18.6-28.648 18.6-46.777 0-19.886-8.521-37.781-22.111-50.235l-0.051-0.046c-16.845-17.238-27.238-40.844-27.238-66.878 0-12.291 2.317-24.041 6.537-34.838l-0.224 0.651c-0.199-1.204-0.313-2.592-0.313-4.007s0.114-2.803 0.333-4.155l-0.020 0.148c14.916-34.322 48.523-57.889 87.634-57.889 0.496 0 0.99 0.004 1.484 0.011l-0.075-0.001h7.569c0.398 0.009 0.867 0.013 1.337 0.013 36.883 0 66.783-29.9 66.783-66.783 0-0.161-0.001-0.322-0.002-0.483v0.025c-0.462-37.021-30.581-66.855-67.668-66.855-1.098 0-2.19 0.026-3.275 0.078l0.153-0.006z" />
<glyph unicode="&#xf002;" glyph-name="search" d="M1015.916-18.189l-215.579 215.579c72.302 80.939 116.491 188.33 116.491 306.043 0 254.195-206.066 460.261-460.261 460.261s-460.261-206.066-460.261-460.261c0-254.195 206.066-460.261 460.261-460.261 117.713 0 225.105 44.19 306.492 116.885l-0.448-0.394 215.579-215.579c4.731-5.032 11.431-8.166 18.863-8.166s14.132 3.134 18.851 8.153l0.013 0.013c5.032 4.731 8.166 11.431 8.166 18.863s-3.134 14.132-8.153 18.851l-0.013 0.013zM746.442 217.331s0 0 0 0 0 0 0 0c-73.39-74.661-175.459-120.928-288.335-120.928-223.239 0-404.211 180.971-404.211 404.211s180.971 404.211 404.211 404.211c222.789 0 403.48-180.241 404.208-402.859v-0.070c-0.036-112.126-45.782-213.561-119.614-286.688l-0.032-0.032z" />
<glyph unicode="&#xf004;" glyph-name="heart" horiz-adv-x="1166" d="M1072.458 866.28v0c-57.767 57.837-137.585 93.64-225.765 93.72h-0.016c-0.376 0.002-0.822 0.003-1.267 0.003-87.811 0-167.25-35.842-224.486-93.695l-37.303-37.303-37.808 37.275c-57.264 57.882-136.704 93.725-224.516 93.725-0.632 0-1.263-0.002-1.894-0.006h0.097c-0.233 0.001-0.509 0.001-0.785 0.001-176.455 0-319.501-143.045-319.501-319.501 0-88.423 35.92-168.457 93.965-226.306l0.009-0.008 470.731-470.731c5.048-4.592 11.776-7.416 19.162-7.455h0.008c0.048 0 0.104 0 0.16 0 7.18 0 13.697 2.842 18.486 7.463l470.723 470.723c57.902 57.832 93.72 137.764 93.72 226.062 0 0.088 0 0.176 0 0.265v-0.013c0.002 0.376 0.003 0.822 0.003 1.267 0 87.811-35.842 167.25-93.695 224.486l-0.028 0.028zM1034.65 451.994l-448.899-450.496-454.756 450.496c-48.324 48.205-78.222 114.864-78.222 188.506 0 147.046 119.204 266.251 266.251 266.251 0.167 0 0.335 0 0.502 0h-0.026c0.22 0.001 0.481 0.001 0.741 0.001 73.251 0 139.509-29.94 187.205-78.251l0.027-0.028 56.445-56.445c4.883-4.738 11.552-7.659 18.904-7.659s14.021 2.921 18.911 7.666l53.243 53.243c48.499 50.261 116.451 81.473 191.694 81.473 0.002 0 0.005 0 0.007 0v0c0.22 0.001 0.481 0.001 0.741 0.001 73.251 0 139.509-29.94 187.205-78.251l0.027-0.028c48.165-48.179 77.955-114.73 77.955-188.239s-29.79-140.060-77.955-188.24l0.001 0.001z" />
<glyph unicode="&#xf007;" glyph-name="user" horiz-adv-x="916" d="M673.684 313.263h-431.158c-133.82-0.306-242.22-108.706-242.526-242.497v-107.818c0-14.883 12.065-26.947 26.947-26.947v0c14.883 0 26.947 12.065 26.947 26.947v0 107.789c0 104.178 84.453 188.632 188.632 188.632v0h431.158c104.178 0 188.632-84.453 188.632-188.632v0-107.789c0-14.883 12.065-26.947 26.947-26.947s26.947 12.065 26.947 26.947v0 107.789c-0.306 133.82-108.706 242.22-242.497 242.526h-0.029zM458.105 474.947c133.944 0 242.526 108.583 242.526 242.526s-108.583 242.526-242.526 242.526c-133.944 0-242.526-108.583-242.526-242.526v0c0.306-133.82 108.706-242.22 242.497-242.526h0.029zM458.105 906.105c104.178 0 188.632-84.453 188.632-188.632s-84.453-188.632-188.632-188.632c-104.178 0-188.632 84.453-188.632 188.632v0c0 104.178 84.453 188.632 188.632 188.632v0z" />
<glyph unicode="&#xf00c;" glyph-name="check" horiz-adv-x="1451" d="M1437.867 947.2c-7.491 7.967-18.099 12.93-29.867 12.93s-22.376-4.962-29.847-12.908l-0.020-0.021-908.8-907.947-396.8 395.947c-7.491 7.967-18.099 12.93-29.867 12.93s-22.376-4.962-29.847-12.908l-0.020-0.021c-7.967-7.491-12.93-18.099-12.93-29.867s4.962-22.376 12.908-29.847l0.021-0.020 426.667-426.667c7.491-7.967 18.099-12.93 29.867-12.93s22.376 4.962 29.847 12.908l0.020 0.021 938.667 938.667c7.967 7.491 12.93 18.099 12.93 29.867s-4.962 22.376-12.908 29.847l-0.021 0.020z" />
<glyph unicode="&#xf015;" glyph-name="home" horiz-adv-x="926" d="M917.211 613.303l-438.857 341.333c-4.049 3.442-9.338 5.536-15.116 5.536s-11.067-2.094-15.15-5.564l0.033 0.028-438.857-341.333c-5.66-4.412-9.265-11.231-9.265-18.892 0-0.044 0-0.088 0-0.132v0.007-536.381c0-67.326 54.579-121.905 121.905-121.905v0h682.667c67.326 0 121.905 54.579 121.905 121.905v0 536.381c0 0.037 0 0.081 0 0.125 0 7.661-3.605 14.48-9.212 18.852l-0.053 0.040zM585.143-15.238h-243.81v438.857h243.81zM877.714 57.905c0-40.396-32.747-73.143-73.143-73.143v0h-170.667v463.238c0 13.465-10.916 24.381-24.381 24.381v0h-292.571c-13.465 0-24.381-10.916-24.381-24.381v0-463.238h-170.667c-40.396 0-73.143 32.747-73.143 73.143v0 524.678l414.476 322.316 414.476-322.316z" />
<glyph unicode="&#xf02b;" glyph-name="tag" d="M986.939 516.284l-436.101 436.101c-4.369 4.692-10.582 7.617-17.478 7.617-0.102 0-0.204-0.001-0.306-0.002h-507.669c-14.019 0-25.384-11.365-25.384-25.384v0-507.685c-0.001-0.086-0.002-0.189-0.002-0.291 0-6.896 2.925-13.109 7.603-17.465l0.014-0.013 436.101-436.101c22.803-22.894 54.353-37.061 89.213-37.061 0.049 0 0.098 0 0.147 0h-0.007c0.082 0 0.18 0 0.277 0 34.91 0 66.46 14.382 89.050 37.543l0.025 0.026 364.010 364.010c23.007 22.898 37.245 54.59 37.245 89.607 0 34.764-14.033 66.251-36.744 89.105l0.006-0.006zM951.401 373.117l-364.010-364.010c-13.825-13.696-32.813-22.201-53.788-22.338h-0.026c-21.001 0.137-39.99 8.642-53.82 22.344l0.006-0.006-428.994 428.486v471.639h471.639l428.994-428.486c13.406-13.937 21.662-32.912 21.662-53.815s-8.257-39.877-21.686-53.84l0.024 0.025zM296.996 698.542c-1.875 3.323-4.659 5.943-8.014 7.568l-0.109 0.048c-2.835 1.219-6.136 1.928-9.601 1.928-6.981 0-13.291-2.876-17.809-7.507l-0.005-0.005c-6.193-4.68-10.154-12.031-10.154-20.307 0-14.019 11.365-25.384 25.384-25.384 8.276 0 15.627 3.961 20.261 10.090l0.046 0.064c4.3 3.975 7.128 9.486 7.61 15.656l0.005 0.082c0.343 1.449 0.539 3.113 0.539 4.823s-0.197 3.374-0.568 4.97l0.029-0.147c-1.672 3.464-4.292 6.248-7.524 8.076l-0.091 0.047z" />
<glyph unicode="&#xf02e;" glyph-name="bookmark" horiz-adv-x="808" d="M673.684 960h-538.947c-74.413 0-134.737-60.324-134.737-134.737v0-862.316c-0.002-0.134-0.004-0.291-0.004-0.449 0-10.17 5.869-18.97 14.404-23.197l0.151-0.068c3.976-2.525 8.819-4.024 14.013-4.024s10.037 1.499 14.121 4.088l-0.108-0.064 361.634 258.695 361.634-258.695c4.379-3.013 9.79-4.823 15.622-4.85h0.007c0.045 0 0.099 0 0.152 0 4.502 0 8.724 1.2 12.363 3.298l-0.12-0.064c8.728 4.28 14.631 13.101 14.631 23.301 0 0.714-0.029 1.422-0.086 2.122l0.006-0.092v862.316c0 74.413-60.324 134.737-134.737 134.737v0zM754.526 15.225l-334.686 239.293c-4.365 3.052-9.784 4.876-15.629 4.876s-11.264-1.825-15.719-4.935l0.089 0.059-334.686-239.293v810.038c0 44.648 36.194 80.842 80.842 80.842v0h538.947c44.648 0 80.842-36.194 80.842-80.842v0z" />
<glyph unicode="&#xf044;" glyph-name="edit" horiz-adv-x="1025" d="M897.82 421.308c-13.401 0-24.265-10.864-24.265-24.265v0-339.716c0-40.204-32.592-72.796-72.796-72.796v0h-679.431c-40.204 0-72.796 32.592-72.796 72.796v0 679.431c0 40.204 32.592 72.796 72.796 72.796v0h339.716c13.401 0 24.265 10.864 24.265 24.265v0c0 13.401-10.864 24.265-24.265 24.265v0h-339.716c-67.007 0-121.327-54.32-121.327-121.327v0-679.431c0.275-66.896 54.431-121.053 121.301-121.327h679.457c66.896 0.275 121.053 54.431 121.327 121.301v339.742c0 13.401-10.864 24.265-24.265 24.265v0zM987.602 924.087c-23.299 22.259-54.941 35.959-89.782 35.959s-66.483-13.7-89.832-36.006l0.050 0.047-461.043-461.043c-3.083-3.177-5.427-7.090-6.743-11.448l-0.052-0.199-48.531-194.123c-0.414-1.66-0.651-3.566-0.651-5.527 0-6.802 2.856-12.938 7.435-17.272l0.011-0.010c4.356-4.373 10.335-7.127 16.957-7.279l0.029-0.001h5.824l194.123 48.531c4.404 1.080 8.189 3.29 11.159 6.306l461.046 461.046c23.491 23.012 38.053 55.060 38.053 90.51s-14.563 67.498-38.032 90.489l-0.022 0.021zM953.63 778.495l-456.675-456.19-145.592-37.369 36.883 148.504 456.19 456.19c14.502 13.793 34.166 22.278 55.81 22.278s41.308-8.485 55.845-22.31l-0.034 0.032c13.503-14.093 21.816-33.253 21.816-54.354 0-22.308-9.291-42.446-24.215-56.755l-0.028-0.026z" />
<glyph unicode="&#xf057;" glyph-name="times-circle" d="M512 960c-282.77 0-512-229.23-512-512s229.23-512 512-512c282.77 0 512 229.23 512 512v0c-0.278 282.658-229.342 511.722-511.973 512h-0.027zM512-15.238c-255.839 0-463.238 207.399-463.238 463.238s207.399 463.238 463.238 463.238c255.839 0 463.238-207.399 463.238-463.238v0c-0.277-255.728-207.51-462.961-463.212-463.238h-0.026zM675.352 611.352c-4.28 4.553-10.342 7.388-17.067 7.388s-12.786-2.836-17.055-7.376l-0.011-0.012-129.219-128.731-129.219 128.731c-4.368 4.368-10.402 7.069-17.067 7.069-13.33 0-24.136-10.806-24.136-24.136 0-6.665 2.702-12.699 7.069-17.067v0l128.731-129.219-128.731-129.219c-4.553-4.28-7.388-10.342-7.388-17.067s2.836-12.786 7.376-17.055l0.012-0.011c4.28-4.553 10.342-7.388 17.067-7.388s12.786 2.836 17.055 7.376l0.011 0.012 129.219 128.731 129.219-128.731c4.28-4.553 10.342-7.388 17.067-7.388s12.786 2.836 17.055 7.376l0.011 0.012c4.553 4.28 7.388 10.342 7.388 17.067s-2.836 12.786-7.376 17.055l-0.012 0.011-128.731 129.219 128.731 129.219c4.553 4.28 7.388 10.342 7.388 17.067s-2.836 12.786-7.376 17.055l-0.012 0.011z" />
<glyph unicode="&#xf063;" glyph-name="angle-down" d="M1012.057 711.812c-6.912 7.354-16.702 11.933-27.562 11.933s-20.65-4.58-27.544-11.912l-0.018-0.019-444.938-444.151-444.938 444.151c-6.912 7.354-16.702 11.933-27.562 11.933s-20.65-4.58-27.544-11.912l-0.018-0.019c-7.354-6.912-11.933-16.702-11.933-27.562s4.58-20.65 11.912-27.544l0.019-0.018 472.506-472.506c6.912-7.354 16.702-11.933 27.562-11.933s20.65 4.58 27.544 11.912l0.018 0.019 472.506 472.506c7.354 6.912 11.933 16.702 11.933 27.562s-4.58 20.65-11.912 27.544l-0.019 0.018z" />
<glyph unicode="&#xf067;" glyph-name="plus" d="M989.867 482.133h-443.733v443.733c0 18.851-15.282 34.133-34.133 34.133s-34.133-15.282-34.133-34.133v0-443.733h-443.733c-18.851 0-34.133-15.282-34.133-34.133s15.282-34.133 34.133-34.133v0h443.733v-443.733c0-18.851 15.282-34.133 34.133-34.133s34.133 15.282 34.133 34.133v0 443.733h443.733c18.851 0 34.133 15.282 34.133 34.133s-15.282 34.133-34.133 34.133v0z" />
<glyph unicode="&#xf068;" glyph-name="minus" d="M989.867 482.133h-955.734c-18.853 0-34.133-15.282-34.133-34.133v0c0-18.853 15.282-34.133 34.133-34.133v0h955.734c18.853 0 34.133 15.282 34.133 34.133v0c0 18.853-15.282 34.133-34.133 34.133v0z" />
<glyph unicode="&#xf06b;" glyph-name="gift" d="M999.619 716.19h-159.939c23.398 25.67 37.803 59.892 38.034 97.477v0.047c0 80.791-65.494 146.286-146.286 146.286v0c-123.368 0-188.709-108.251-219.429-186.27-30.72 78.019-96.061 186.27-219.429 186.27-80.791 0-146.286-65.494-146.286-146.286v0c0.231-37.631 14.636-71.854 38.139-97.64l-0.104 0.116h-159.939c-13.465 0-24.381-10.916-24.381-24.381v0-243.81c0-13.465 10.916-24.381 24.381-24.381v0h73.143v-463.238c0-13.465 10.916-24.381 24.381-24.381v0h780.19c13.465 0 24.381 10.916 24.381 24.381v0 463.238h73.143c13.465 0 24.381 10.916 24.381 24.381v0 243.81c0 13.465-10.916 24.381-24.381 24.381v0zM731.429 911.238c53.861 0 97.524-43.663 97.524-97.524s-43.663-97.524-97.524-97.524v0h-187.733c18.53 60.952 72.168 195.048 187.733 195.048zM195.048 813.714c0 53.861 43.663 97.524 97.524 97.524v0c115.566 0 169.204-134.095 187.733-195.048h-187.733c-53.861 0-97.524 43.663-97.524 97.524v0zM48.762 667.429h438.857v-195.048h-438.857zM146.286 423.619h341.333v-438.857h-341.333zM877.714-15.238h-341.333v438.857h341.333zM975.238 472.381h-438.857v195.048h438.857z" />
<glyph unicode="&#xf06e;" glyph-name="eye" horiz-adv-x="1385" d="M1385.412 461.252c-13.252 20.48-257.205 498.748-692.706 498.748s-679.454-478.268-689.694-498.748c-1.981-3.859-3.142-8.42-3.142-13.252s1.161-9.393 3.22-13.419l-0.077 0.167c10.24-20.48 254.193-498.748 689.694-498.748s679.454 478.268 692.706 498.748c1.981 3.859 3.142 8.42 3.142 13.252s-1.161 9.393-3.22 13.419l0.077-0.167zM692.706-3.765c-361.412 0-586.089 375.266-628.254 451.765 42.165 76.499 268.649 451.765 628.254 451.765s586.089-375.266 628.254-451.765c-42.165-76.499-268.649-451.765-628.254-451.765zM692.706 658.824c-116.435 0-210.824-94.389-210.824-210.824s94.389-210.824 210.824-210.824c116.435 0 210.824 94.389 210.824 210.824v0c0 116.435-94.389 210.824-210.824 210.824v0zM692.706 297.412c-83.168 0-150.588 67.421-150.588 150.588s67.421 150.588 150.588 150.588c83.168 0 150.588-67.421 150.588-150.588v0c0-83.168-67.421-150.588-150.588-150.588v0z" />
<glyph unicode="&#xf07a;" glyph-name="shopping-cart" horiz-adv-x="1071" d="M395.636 75.636c-38.56 0-69.818-31.259-69.818-69.818s31.259-69.818 69.818-69.818c38.56 0 69.818 31.259 69.818 69.818v0c0 38.56-31.259 69.818-69.818 69.818v0zM395.636-17.455c-12.853 0-23.273 10.42-23.273 23.273s10.42 23.273 23.273 23.273c12.853 0 23.273-10.42 23.273-23.273v0c0-12.853-10.42-23.273-23.273-23.273v0zM907.636 75.636c-38.56 0-69.818-31.259-69.818-69.818s31.259-69.818 69.818-69.818c38.56 0 69.818 31.259 69.818 69.818v0c0 38.56-31.259 69.818-69.818 69.818v0zM907.636-17.455c-12.853 0-23.273 10.42-23.273 23.273s10.42 23.273 23.273 23.273c12.853 0 23.273-10.42 23.273-23.273v0c0-12.853-10.42-23.273-23.273-23.273v0zM1064.96 718.895c-4.215 5.131-10.559 8.378-17.663 8.378-0.009 0-0.017 0-0.026 0h-772.188l-42.356 214.109c-2.239 10.701-11.596 18.623-22.803 18.623-0.165 0-0.33-0.002-0.494-0.005h-186.157c-12.853 0-23.273-10.42-23.273-23.273v0c0-12.853 10.42-23.273 23.273-23.273v0h167.098l42.356-212.713s0 0 0-2.793l78.662-389.585c11.009-53.443 57.659-93.060 113.568-93.091h454.287c0.25-0.002 0.545-0.003 0.84-0.003 56.39 0 103.559 39.479 115.375 92.306l0.148 0.788 74.938 391.447c0.221 1.179 0.347 2.536 0.347 3.922 0 5.859-2.256 11.192-5.946 15.177l0.013-0.015zM949.993 318.138c-6.538-32.326-34.717-56.321-68.501-56.321-0.136 0-0.271 0-0.407 0.001h-454.263c-0.736-0.028-1.599-0.044-2.467-0.044-33.527 0-61.421 24.114-67.287 55.944l-0.064 0.421-72.611 362.589h734.953z" />
<glyph unicode="&#xf099;" glyph-name="twitter" horiz-adv-x="1242" d="M1242.194 925.975c0.43 1.842 0.677 3.957 0.677 6.129 0 9.497-4.714 17.893-11.93 22.976l-0.089 0.059c-4.318 2.945-9.65 4.702-15.392 4.702s-11.075-1.757-15.488-4.764l0.095 0.061c-41.937-29.866-90.195-54.924-141.812-72.784l-4.010-1.207c-48.783 48.37-115.956 78.259-190.11 78.259-148.932 0-269.704-120.564-270.041-269.416v-27.036c-180.048 3.323-338.445 93.119-435.798 229.49l-1.13 1.666c-4.794 7.279-12.93 12.017-22.173 12.017-0.941 0-1.87-0.049-2.785-0.145l0.114 0.010c-10.746-0.456-19.888-6.884-24.231-16.032l-0.073-0.17c0-5.401-207.392-482.295 238.717-716.152-85.582-49.152-188.161-78.141-297.511-78.141-7.434 0-14.836 0.134-22.205 0.4l1.067-0.031c-0.32 0.014-0.696 0.021-1.074 0.021-12.227 0-22.557-8.127-25.881-19.273l-0.049-0.191c-0.675-2.224-1.063-4.78-1.063-7.426 0-10.063 5.616-18.814 13.885-23.289l0.14-0.069c116.523-66.998 256.014-106.938 404.747-108.015l0.316-0.002c0.157 0 0.343 0 0.529 0 135.705 0 262.789 36.91 371.761 101.239l-3.412-1.863c219.814 128 346.194 366.177 346.194 652.962 0.381 5.251 0.599 11.377 0.599 17.553s-0.217 12.302-0.645 18.37l0.046-0.817c51.269 54.552 88.981 122.431 107.391 197.875l0.626 3.036zM1080.169 689.958c0-266.262-116.658-486.076-319.73-607.595-99.896-57.942-219.801-92.136-347.693-92.136-100.185 0-195.468 20.983-281.696 58.795l4.511-1.764c107.584 14.147 204.091 52.516 286.83 109.451l-2.206-1.435c7.233 5.149 11.894 13.504 11.894 22.948 0 0.287-0.004 0.573-0.013 0.858l0.001-0.042c-1.016 9.968-7.321 18.253-16.029 22.076l-0.173 0.068c-376.439 164.726-311.089 501.198-272.743 622.177 111.129-132.566 276.799-216.26 462.016-216.26 5.802 0 11.584 0.082 17.346 0.245l-0.848-0.019c14.75 0.585 26.486 12.684 26.486 27.524 0 0.387-0.008 0.772-0.024 1.155l0.002-0.055v54.008c-0.001 0.229-0.001 0.5-0.001 0.771 0 119.312 96.722 216.034 216.034 216.034 64.416 0 122.248-28.193 161.828-72.914l0.198-0.228c5.234-5.563 12.644-9.027 20.864-9.027 2.566 0 5.054 0.338 7.421 0.971l-0.2-0.046c43.032 13.244 80.057 29.011 115.036 48.062l-3.238-1.614c-20.428-45.339-47.692-84.014-80.949-116.596l-0.064-0.062c-4.944-4.978-8-11.836-8-19.409 0-1.73 0.16-3.423 0.465-5.065l-0.026 0.17c1.814-10.029 2.851-21.572 2.851-33.358 0-2.704-0.055-5.395-0.163-8.072l0.012 0.384z" />
<glyph unicode="&#xf09d;" glyph-name="credit-card" horiz-adv-x="1385" d="M1234.824 960h-1084.235c-83.168 0-150.588-67.421-150.588-150.588v0-722.824c0-83.168 67.421-150.588 150.588-150.588v0h1084.235c83.168 0 150.588 67.421 150.588 150.588v0 722.824c0 83.168-67.421 150.588-150.588 150.588v0zM150.588 899.765h1084.235c49.901 0 90.353-40.452 90.353-90.353v0-210.824h-1264.941v210.824c0 49.901 40.452 90.353 90.353 90.353v0zM1234.824-3.765h-1084.235c-49.901 0-90.353 40.452-90.353 90.353v0 451.765h1264.941v-451.765c0-49.901-40.452-90.353-90.353-90.353v0z" />
<glyph unicode="&#xf0b0;" glyph-name="filter" horiz-adv-x="1186" d="M1183.14 939.856c-5.238 11.792-16.751 19.914-30.187 20.144h-1119.379c-0.697 0.051-1.511 0.079-2.331 0.079-13.834 0-25.752-8.203-31.155-20.010l-0.088-0.214c-1.264-3.356-1.995-7.234-1.995-11.284 0-9.615 4.124-18.266 10.7-24.282l0.025-0.023 439.145-493.534v-335.738c0-0.020 0-0.044 0-0.067 0-13.164 7.576-24.559 18.607-30.061l0.195-0.088 224.273-106.093c4.118-2.042 8.956-3.272 14.072-3.357h0.029c6.733 0.133 12.977 2.116 18.277 5.458l-0.147-0.087c9.332 6.055 15.424 16.415 15.444 28.199v441.834l439.145 493.534c5.183 5.79 8.352 13.478 8.352 21.905 0 4.962-1.098 9.667-3.065 13.885l0.085-0.202zM680.205 445.65c-5.416-5.559-8.756-13.162-8.756-21.546 0-0.452 0.010-0.901 0.029-1.348l-0.002 0.064v-402.885l-156.454 77.22v325.666c-0.177 8.546-3.458 16.293-8.757 22.19l0.028-0.032-398.185 447.874h969.61z" />
<glyph unicode="&#xf0c5;" glyph-name="copy" d="M902.095 618.667h-438.857c-67.326 0-121.905-54.579-121.905-121.905v0-438.857c0-67.326 54.579-121.905 121.905-121.905v0h438.857c67.326 0 121.905 54.579 121.905 121.905v0 438.857c0 67.326-54.579 121.905-121.905 121.905v0zM975.238 57.905c0-40.396-32.747-73.143-73.143-73.143v0h-438.857c-40.396 0-73.143 32.747-73.143 73.143v0 438.857c0 40.396 32.747 73.143 73.143 73.143v0h438.857c40.396 0 73.143-32.747 73.143-73.143v0zM170.667 326.095h-48.762c-40.396 0-73.143 32.747-73.143 73.143v0 438.857c0 40.396 32.747 73.143 73.143 73.143v0h438.857c40.396 0 73.143-32.747 73.143-73.143v0-48.762c0-13.465 10.916-24.381 24.381-24.381s24.381 10.916 24.381 24.381v0 48.762c0 67.326-54.579 121.905-121.905 121.905v0h-438.857c-67.326 0-121.905-54.579-121.905-121.905v0-438.857c0-67.326 54.579-121.905 121.905-121.905v0h48.762c13.465 0 24.381 10.916 24.381 24.381s-10.916 24.381-24.381 24.381v0z" />
<glyph unicode="&#xf0c8;" glyph-name="square" d="M882.512 960h-739.595c-78.931 0-142.917-63.986-142.917-142.917v0-739.595c0-78.931 63.986-142.917 142.917-142.917v0h739.595c78.931 0 142.917 63.986 142.917 142.917v0 739.595c0 78.931-63.986 142.917-142.917 142.917v0zM953.971 77.488c0-39.465-31.993-71.458-71.458-71.458v0h-739.595c-39.465 0-71.458 31.993-71.458 71.458v0 739.595c0 39.465 31.993 71.458 71.458 71.458v0h739.595c39.465 0 71.458-31.993 71.458-71.458v0z" />
<glyph unicode="&#xf0c9;" glyph-name="bars" horiz-adv-x="1497" d="M1457.231 487.385h-1417.846c-21.752 0-39.385-17.633-39.385-39.385s17.633-39.385 39.385-39.385v0h1417.846c21.752 0 39.385 17.633 39.385 39.385s-17.633 39.385-39.385 39.385v0zM39.385 881.231h1417.846c21.752 0 39.385 17.633 39.385 39.385v0c0 21.752-17.633 39.385-39.385 39.385v0h-1417.846c-21.752 0-39.385-17.633-39.385-39.385v0c0-21.752 17.633-39.385 39.385-39.385v0zM1457.231 14.769h-1417.846c-21.752 0-39.385-17.633-39.385-39.385s17.633-39.385 39.385-39.385v0h1417.846c21.752 0 39.385 17.633 39.385 39.385s-17.633 39.385-39.385 39.385v0z" />
<glyph unicode="&#xf0d1;" glyph-name="truck" horiz-adv-x="1233" d="M1220.441 529.502l-156.317 157.153c-7.647 7.159-17.924 11.591-29.235 11.703h-167.206v219.847c0 23.083-18.713 41.796-41.796 41.796v0h-784.091c-23.083 0-41.796-18.713-41.796-41.796v0-679.602c0-23.083 18.713-41.796 41.796-41.796v0h87.771c-15.409-25.307-24.682-55.834-25.077-88.498l-0.001-0.11c6.475-90.251 81.282-161.016 172.617-161.016s166.142 70.765 172.585 160.458l0.032 0.557c-0.162 32.891-9.798 63.499-26.314 89.276l0.401-0.668h385.358c-15.74-25.026-25.078-55.458-25.078-88.071 0-0.189 0-0.377 0.001-0.566v0.029c0-95.103 77.096-172.199 172.199-172.199s172.199 77.096 172.199 172.199v0c-0.395 32.774-9.668 63.301-25.519 89.39l0.441-0.782h87.771c23.083 0 41.796 18.713 41.796 41.796v0 261.642c0.002 0.142 0.003 0.311 0.003 0.479 0 11.354-4.817 21.584-12.518 28.756l-0.024 0.022zM83.592 876.408h700.5v-596.010h-700.5zM366.132 108.199c0.002-0.248 0.004-0.542 0.004-0.836 0-49.398-40.045-89.443-89.443-89.443s-89.443 40.045-89.443 89.443c0 49.397 40.043 89.441 89.439 89.443v0c0.001 0 0.003 0 0.004 0 49.104 0 88.966-39.57 89.439-88.563v-0.045zM1044.898 108.199c0-48.936-39.671-88.607-88.607-88.607s-88.607 39.671-88.607 88.607v0c0 48.936 39.671 88.607 88.607 88.607s88.607-39.671 88.607-88.607v0zM1149.388 280.398h-281.704v334.367h149.629l132.075-132.075z" />
<glyph unicode="&#xf0e0;" glyph-name="envelope" horiz-adv-x="1265" d="M1114.353 960h-963.765c-83.168 0-150.588-67.421-150.588-150.588v0-722.824c0-83.168 67.421-150.588 150.588-150.588v0h963.765c83.168 0 150.588 67.421 150.588 150.588v0 722.824c0 83.168-67.421 150.588-150.588 150.588v0zM150.588 899.765h963.765c0.194 0.001 0.423 0.002 0.653 0.002 44.915 0 82.226-32.556 89.623-75.357l0.077-0.541-572.235-399.36-572.235 399.36c7.474 43.343 44.785 75.899 89.7 75.899 0.229 0 0.459-0.001 0.688-0.003h-0.035zM1114.353-3.765h-963.765c-49.901 0-90.353 40.452-90.353 90.353v0 662.588l554.767-388.518c4.879-3.411 10.935-5.45 17.468-5.45s12.589 2.039 17.568 5.516l-0.1-0.066 554.767 390.927v-662.588c0.020-0.718 0.032-1.562 0.032-2.409 0-49.901-40.452-90.353-90.353-90.353-0.011 0-0.023 0-0.034 0h0.002z" />
<glyph unicode="&#xf0e1;" glyph-name="linkedin-in" horiz-adv-x="1075" d="M742.4 652.8c-183.683-0.291-332.509-149.117-332.8-332.772v-358.428c0-14.138 11.462-25.6 25.6-25.6v0h204.8c14.138 0 25.6 11.462 25.6 25.6v0 358.4c0 42.415 34.385 76.8 76.8 76.8s76.8-34.385 76.8-76.8v0-358.4c0-14.138 11.462-25.6 25.6-25.6v0h204.8c14.138 0 25.6 11.462 25.6 25.6v0 358.4c-0.291 183.683-149.117 332.509-332.772 332.8h-0.028zM1024-12.8h-153.6v332.8c0 70.692-57.308 128-128 128s-128-57.308-128-128v0-332.8h-153.6v332.8c0 155.523 126.077 281.6 281.6 281.6s281.6-126.077 281.6-281.6v0zM230.4 601.6h-204.8c-14.138 0-25.6-11.462-25.6-25.6v0-614.4c0-14.138 11.462-25.6 25.6-25.6v0h204.8c14.138 0 25.6 11.462 25.6 25.6v0 614.4c0 14.138-11.462 25.6-25.6 25.6v0zM204.8-12.8h-153.6v563.2h153.6zM128 960c-70.692 0-128-57.308-128-128s57.308-128 128-128c70.692 0 128 57.308 128 128v0c0 70.692-57.308 128-128 128v0zM128 755.2c-42.415 0-76.8 34.385-76.8 76.8s34.385 76.8 76.8 76.8c42.415 0 76.8-34.385 76.8-76.8v0c0-42.415-34.385-76.8-76.8-76.8v0z" />
<glyph unicode="&#xf100;" glyph-name="angle-double-left" horiz-adv-x="1210" d="M544.582 946.036c-8.172 8.692-19.745 14.105-32.582 14.105s-24.41-5.413-32.56-14.082l-0.022-0.023-465.455-465.455c-8.692-8.172-14.105-19.745-14.105-32.582s5.413-24.41 14.082-32.56l0.023-0.022 465.455-465.455c8.172-8.692 19.745-14.105 32.582-14.105s24.41 5.413 32.56 14.082l0.022 0.023c8.692 8.172 14.105 19.745 14.105 32.582s-5.413 24.41-14.082 32.56l-0.023 0.022-431.942 432.873 431.942 432.873c8.692 8.172 14.105 19.745 14.105 32.582s-5.413 24.41-14.082 32.56l-0.023 0.022zM764.276 448l431.942 432.873c8.692 8.172 14.105 19.745 14.105 32.582s-5.413 24.41-14.082 32.56l-0.023 0.022c-8.172 8.692-19.745 14.105-32.582 14.105s-24.41-5.413-32.56-14.082l-0.022-0.023-465.455-465.455c-8.692-8.172-14.105-19.745-14.105-32.582s5.413-24.41 14.082-32.56l0.023-0.022 465.455-465.455c8.172-8.692 19.745-14.105 32.582-14.105s24.41 5.413 32.56 14.082l0.022 0.023c8.692 8.172 14.105 19.745 14.105 32.582s-5.413 24.41-14.082 32.56l-0.023 0.022z" />
<glyph unicode="&#xf101;" glyph-name="angle-double-right" horiz-adv-x="1210" d="M1196.218 480.582l-465.455 465.455c-8.172 8.692-19.745 14.105-32.582 14.105s-24.41-5.413-32.56-14.082l-0.022-0.023c-8.692-8.172-14.105-19.745-14.105-32.582s5.413-24.41 14.082-32.56l0.023-0.022 431.942-432.873-431.942-432.873c-8.692-8.172-14.105-19.745-14.105-32.582s5.413-24.41 14.082-32.56l0.023-0.022c8.172-8.692 19.745-14.105 32.582-14.105s24.41 5.413 32.56 14.082l0.022 0.023 465.455 465.455c8.692 8.172 14.105 19.745 14.105 32.582s-5.413 24.41-14.082 32.56l-0.023 0.022zM79.127 946.036c-8.172 8.692-19.745 14.105-32.582 14.105s-24.41-5.413-32.56-14.082l-0.022-0.023c-8.692-8.172-14.105-19.745-14.105-32.582s5.413-24.41 14.082-32.56l0.023-0.022 431.942-432.873-431.942-432.873c-8.692-8.172-14.105-19.745-14.105-32.582s5.413-24.41 14.082-32.56l0.023-0.022c8.012-8.603 19.404-13.967 32.048-13.967 0.188 0 0.375 0.001 0.562 0.004h-0.028c0.159-0.002 0.346-0.003 0.533-0.003 12.645 0 24.036 5.364 32.024 13.941l0.024 0.026 465.455 465.455c8.692 8.172 14.105 19.745 14.105 32.582s-5.413 24.41-14.082 32.56l-0.023 0.022z" />
<glyph unicode="&#xf102;" glyph-name="angle-double-up" horiz-adv-x="866" d="M66.954 499.2l366.277 365.489 366.277-365.489c6.915-7.354 16.707-11.935 27.569-11.935s20.655 4.581 27.551 11.915l0.018 0.020c7.354 6.915 11.935 16.707 11.935 27.569s-4.581 20.655-11.915 27.551l-0.020 0.018-393.846 393.846c-6.915 7.354-16.707 11.935-27.569 11.935s-20.655-4.581-27.551-11.915l-0.018-0.020-393.846-393.846c-7.354-6.915-11.935-16.707-11.935-27.569s4.581-20.655 11.915-27.551l0.020-0.018c6.915-7.354 16.707-11.935 27.569-11.935s20.655 4.581 27.551 11.915l0.018 0.020zM460.8 396.8c-6.915 7.354-16.707 11.935-27.569 11.935s-20.655-4.581-27.551-11.915l-0.018-0.020-393.846-393.846c-7.354-6.915-11.935-16.707-11.935-27.569s4.581-20.655 11.915-27.551l0.020-0.018c6.915-7.354 16.707-11.935 27.569-11.935s20.655 4.581 27.551 11.915l0.018 0.020 366.277 365.489 366.277-365.489c6.915-7.354 16.707-11.935 27.569-11.935s20.655 4.581 27.551 11.915l0.018 0.020c7.354 6.915 11.935 16.707 11.935 27.569s-4.581 20.655-11.915 27.551l-0.020 0.018z" />
<glyph unicode="&#xf103;" glyph-name="angle-double-down" horiz-adv-x="866" d="M799.508 396.8l-366.277-365.489-366.277 365.489c-6.915 7.354-16.707 11.935-27.569 11.935s-20.655-4.581-27.551-11.915l-0.018-0.020c-7.354-6.915-11.935-16.707-11.935-27.569s4.581-20.655 11.915-27.551l0.020-0.018 393.846-393.846c6.915-7.354 16.707-11.935 27.569-11.935s20.655 4.581 27.551 11.915l0.018 0.020 393.846 393.846c7.056 7.056 11.42 16.803 11.42 27.569 0 21.533-17.456 38.989-38.989 38.989-10.766 0-20.514-4.364-27.569-11.42v0zM405.662 499.2c6.915-7.354 16.707-11.935 27.569-11.935s20.655 4.581 27.551 11.915l0.018 0.020 393.846 393.846c7.354 6.915 11.935 16.707 11.935 27.569s-4.581 20.655-11.915 27.551l-0.020 0.018c-6.915 7.354-16.707 11.935-27.569 11.935s-20.655-4.581-27.551-11.915l-0.018-0.020-366.277-365.489-366.277 365.489c-6.915 7.354-16.707 11.935-27.569 11.935s-20.655-4.581-27.551-11.915l-0.018-0.020c-7.354-6.915-11.935-16.707-11.935-27.569s4.581-20.655 11.915-27.551l0.020-0.018z" />
<glyph unicode="&#xf104;" glyph-name="angle-left" horiz-adv-x="551" d="M95.311 448l444.258 445.046c7.354 6.915 11.935 16.707 11.935 27.569s-4.581 20.655-11.915 27.551l-0.020 0.018c-6.915 7.354-16.707 11.935-27.569 11.935s-20.655-4.581-27.551-11.915l-0.018-0.020-472.615-472.615c-7.354-6.915-11.935-16.707-11.935-27.569s4.581-20.655 11.915-27.551l0.020-0.018 472.615-472.615c6.915-7.354 16.707-11.935 27.569-11.935s20.655 4.581 27.551 11.915l0.018 0.020c7.354 6.915 11.935 16.707 11.935 27.569s-4.581 20.655-11.915 27.551l-0.020 0.018z" />
<glyph unicode="&#xf105;" glyph-name="angle-right" horiz-adv-x="551" d="M539.569 475.569l-472.615 472.615c-6.915 7.354-16.707 11.935-27.569 11.935s-20.655-4.581-27.551-11.915l-0.018-0.020c-7.354-6.915-11.935-16.707-11.935-27.569s4.581-20.655 11.915-27.551l0.020-0.018 444.258-445.046-444.258-445.046c-7.354-6.915-11.935-16.707-11.935-27.569s4.581-20.655 11.915-27.551l0.020-0.018c6.779-7.279 16.419-11.818 27.118-11.818 0.159 0 0.317 0.001 0.475 0.003h-0.024c0.134-0.002 0.293-0.003 0.451-0.003 10.699 0 20.339 4.539 27.097 11.796l0.021 0.022 472.615 472.615c7.354 6.915 11.935 16.707 11.935 27.569s-4.581 20.655-11.915 27.551l-0.020 0.018z" />
<glyph unicode="&#xf106;" glyph-name="angle-up" d="M1012.065 239.311l-472.504 472.504c-6.913 7.353-16.703 11.932-27.563 11.932s-20.65-4.58-27.544-11.913l-0.018-0.020-472.504-472.504c-7.353-6.913-11.932-16.703-11.932-27.563s4.58-20.65 11.913-27.544l0.020-0.018c6.913-7.353 16.703-11.932 27.563-11.932s20.65 4.58 27.544 11.913l0.018 0.020 444.942 444.153 444.942-444.153c6.913-7.353 16.703-11.932 27.563-11.932s20.65 4.58 27.544 11.913l0.018 0.020c7.353 6.913 11.932 16.703 11.932 27.563s-4.58 20.65-11.913 27.544l-0.020 0.018z" />
<glyph unicode="&#xf124;" glyph-name="location-arrow" d="M1024.488 942.437c-0.799 4.267-2.889 7.95-5.844 10.723l-0.010 0.010c-3.099 3.248-7.071 5.638-11.539 6.793l-0.169 0.037h-2.927c-1.54 0.346-3.308 0.544-5.122 0.544s-3.583-0.198-5.284-0.574l0.162 0.030-977.166-341.496c-9.669-3.336-16.506-12.324-16.587-22.919v-0.010c-0.184-1.113-0.288-2.395-0.288-3.703 0-9.965 6.098-18.506 14.765-22.095l0.159-0.058 430.285-191.238 189.286-427.846c3.716-8.673 12.179-14.639 22.036-14.639 0.142 0 0.285 0.001 0.427 0.004h-0.021c10.1 0.424 18.578 6.929 21.899 15.93l0.055 0.169 341.496 975.703s0 0 0 0c0.346 1.54 0.544 3.308 0.544 5.122s-0.198 3.583-0.574 5.284l0.030-0.162c1.691 1.25 3.14 2.699 4.351 4.335l0.039 0.055zM90.74 591.672l816.663 285.881-449.311-449.311zM655.672 26.253l-162.942 367.84 448.823 448.823z" />
<glyph unicode="&#xf133;" glyph-name="calendar" horiz-adv-x="926" d="M804.571 862.476h-121.905v73.143c0 13.465-10.916 24.381-24.381 24.381s-24.381-10.916-24.381-24.381v0-73.143h-341.333v73.143c0 13.465-10.916 24.381-24.381 24.381s-24.381-10.916-24.381-24.381v0-73.143h-121.905c-67.326 0-121.905-54.579-121.905-121.905v0-682.667c0-67.326 54.579-121.905 121.905-121.905v0h682.667c67.326 0 121.905 54.579 121.905 121.905v0 682.667c0 67.326-54.579 121.905-121.905 121.905v0zM121.905 813.714h121.905v-73.143c0-13.465 10.916-24.381 24.381-24.381s24.381 10.916 24.381 24.381v0 73.143h341.333v-73.143c0-13.465 10.916-24.381 24.381-24.381s24.381 10.916 24.381 24.381v0 73.143h121.905c40.396 0 73.143-32.747 73.143-73.143v0-170.667h-828.952v170.667c0 40.396 32.747 73.143 73.143 73.143v0zM804.571-15.238h-682.667c-40.396 0-73.143 32.747-73.143 73.143v0 463.238h828.952v-463.238c0-40.396-32.747-73.143-73.143-73.143v0z" />
<glyph unicode="&#xf14a;" glyph-name="check-square" horiz-adv-x="1077" d="M1066.072 896.141c-6.808 6.863-16.243 11.111-26.671 11.111s-19.862-4.249-26.668-11.109l-500.357-500.357-132.226 131.475c-6.77 6.64-16.054 10.738-26.295 10.738s-19.525-4.098-26.301-10.744l0.006 0.006c-6.863-6.808-11.111-16.243-11.111-26.671s4.249-19.862 11.109-26.668l157.772-157.772c6.706-6.954 16.105-11.273 26.512-11.273 0.188 0 0.375 0.001 0.562 0.004h-0.028c0.128-0.002 0.279-0.003 0.43-0.003 10.205 0 19.398 4.329 25.845 11.251l0.020 0.021 525.899 525.899c7.366 6.997 11.948 16.863 11.948 27.8 0 10.188-3.977 19.448-10.462 26.311l0.017-0.018zM986.436 485.189c-20.746 0-37.564-16.818-37.564-37.564v0-368.88c0-37.343-30.273-67.616-67.616-67.616v0h-738.512c-37.343 0-67.616 30.273-67.616 67.616v0 738.512c0.419 37.173 30.442 67.196 67.576 67.615h580.031c20.746 0 37.564 16.818 37.564 37.564v0c0 20.746-16.818 37.564-37.564 37.564v0h-579.991c-78.835 0-142.744-63.909-142.744-142.744v0-738.512c0-78.835 63.909-142.744 142.744-142.744v0h738.512c78.835 0 142.744 63.909 142.744 142.744v0 368.88c0 20.746-16.818 37.564-37.564 37.564v0z" />
<glyph unicode="&#xf14d;" glyph-name="share-square" d="M350.316-10.105h-215.579c-44.648 0-80.842 36.194-80.842 80.842v0 754.526c0 44.648 36.194 80.842 80.842 80.842v0h215.579c14.883 0 26.947 12.065 26.947 26.947v0c0 14.883-12.065 26.947-26.947 26.947v0h-215.579c-74.413 0-134.737-60.324-134.737-134.737v0-754.526c0-74.413 60.324-134.737 134.737-134.737v0h215.579c14.883 0 26.947 12.065 26.947 26.947s-12.065 26.947-26.947 26.947v0zM1024 437.76c1.278 3.027 2.021 6.547 2.021 10.24s-0.743 7.213-2.088 10.418l0.066-0.178c-1.206 3.464-3.251 6.378-5.898 8.599l-0.030 0.025-269.474 269.474c-4.828 4.828-11.497 7.813-18.863 7.813-14.733 0-26.677-11.943-26.677-26.677 0-7.367 2.986-14.036 7.813-18.863v0l220.968-223.663h-581.524c-14.883 0-26.947-12.065-26.947-26.947s12.065-26.947 26.947-26.947v0h581.524l-223.124-223.663c-5.032-4.731-8.166-11.431-8.166-18.863s3.134-14.132 8.153-18.851l0.013-0.013c4.731-5.032 11.431-8.166 18.863-8.166s14.132 3.134 18.851 8.153l269.487 269.487c3.528 1.991 6.309 4.945 8.034 8.508l0.050 0.116z" />
<glyph unicode="&#xf15c;" glyph-name="file-alt" horiz-adv-x="829" d="M828.952 652.312c-1.091 3.134-2.942 5.771-5.337 7.78l-0.027 0.022-292.571 292.571c-2.267 3.479-5.648 6.068-9.628 7.282l-0.124 0.033c-1.391 0.346-2.989 0.544-4.632 0.544s-3.241-0.198-4.769-0.572l0.137 0.028h-390.095c-67.326 0-121.905-54.579-121.905-121.905v0-780.19c0-67.326 54.579-121.905 121.905-121.905v0h585.143c67.326 0 121.905 54.579 121.905 121.905v0 585.143c0.346 1.391 0.544 2.989 0.544 4.632s-0.198 3.241-0.572 4.769l0.028-0.137zM536.381 876.617l209.189-209.189h-209.189zM707.048-15.238h-585.143c-40.396 0-73.143 32.747-73.143 73.143v0 780.19c0 40.396 32.747 73.143 73.143 73.143v0h365.714v-268.19c0-13.465 10.916-24.381 24.381-24.381v0h268.19v-560.762c0-40.396-32.747-73.143-73.143-73.143v0zM609.524 423.619h-390.095c-13.465 0-24.381-10.916-24.381-24.381s10.916-24.381 24.381-24.381v0h390.095c13.465 0 24.381 10.916 24.381 24.381s-10.916 24.381-24.381 24.381v0zM609.524 228.571h-390.095c-13.465 0-24.381-10.916-24.381-24.381s10.916-24.381 24.381-24.381v0h390.095c13.465 0 24.381 10.916 24.381 24.381s-10.916 24.381-24.381 24.381v0zM219.429 569.905h97.524c13.465 0 24.381 10.916 24.381 24.381s-10.916 24.381-24.381 24.381v0h-97.524c-13.465 0-24.381-10.916-24.381-24.381s10.916-24.381 24.381-24.381v0z" />
<glyph unicode="&#xf167;" glyph-name="youtube" horiz-adv-x="1431" d="M1401.623 783.942v0c-18.278 72.145-72.618 128.341-142.243 148.936l-1.465 0.372c-109.492 26.751-525.064 26.751-542.484 26.751s-435.48 0-543.728-29.861c-70.636-20.886-124.568-76.881-142.165-147.271l-0.299-1.414c-18.613-97.973-29.261-210.67-29.261-325.854 0-3.109 0.008-6.216 0.023-9.321l-0.002 0.478c-0.010-2.284-0.016-4.984-0.016-7.686 0-117.573 10.872-232.607 31.665-344.152l-1.788 11.541c19.982-68.985 73.359-122.156 141.016-141.488l1.448-0.354c109.492-29.239 525.687-29.861 543.106-29.861s435.48 0 543.728 29.861c70.636 20.886 124.568 76.881 142.165 147.271l0.299 1.414c18.617 97.309 29.266 209.231 29.266 323.64 0 3.451-0.010 6.899-0.029 10.346l0.002-0.533c0.014 2.639 0.021 5.761 0.021 8.884 0 116.040-10.647 229.592-31.017 339.735l1.756-11.433zM1339.412 127.611c-12.494-48.048-48.225-85.63-94.175-100.5l-1.008-0.282c-102.027-26.751-522.576-27.373-526.931-27.373s-426.77-0.622-530.663 27.373c-47.026 13.234-83.591 48.772-98.017 94.175l-0.277 1.009c-16.691 91.766-26.235 197.379-26.235 305.221 0 6.864 0.039 13.719 0.116 20.565l-0.009-1.042c-0.025 3.466-0.039 7.564-0.039 11.666 0 109.576 10.201 216.769 29.706 320.682l-1.672-10.715c11.992 49.008 48.477 87.349 95.432 101.764l0.996 0.263c103.893 27.373 524.442 27.373 528.797 27.373s425.526 0 526.309-24.885c48.284-13.73 85.484-51.135 98.679-98.541l0.237-0.997c17.838-94.368 28.041-202.923 28.041-313.862 0-4.483-0.017-8.962-0.050-13.437l0.004 0.688c0.005-1.594 0.008-3.48 0.008-5.366 0-110.883-9.962-219.439-29.040-324.822l1.659 11.044zM948.724 473.507l-357.716 203.431c-4.461 2.62-9.826 4.167-15.553 4.167s-11.091-1.547-15.7-4.247l0.147 0.079c-9.373-5.476-15.57-15.489-15.57-26.948 0-0.368 0.006-0.735 0.019-1.1l-0.001 0.053v-406.863c-0.028-0.494-0.044-1.072-0.044-1.654 0-11.471 6.209-21.491 15.449-26.884l0.148-0.080c4.429-2.744 9.801-4.37 15.553-4.37s11.124 1.626 15.681 4.444l-0.128-0.074 357.716 203.431c9.526 5.28 15.867 15.275 15.867 26.751s-6.341 21.471-15.711 26.672l-0.156 0.079zM606.561 296.826v299.859l264.399-149.93z" />
<glyph unicode="&#xf16d;" glyph-name="instagram" d="M755.81 960h-487.619c-148.006-0.277-267.913-120.184-268.19-268.164v-487.646c0.277-148.006 120.184-267.913 268.164-268.19h487.646c148.006 0.277 267.913 120.184 268.19 268.164v487.646c-0.277 148.006-120.184 267.913-268.164 268.19h-0.027zM975.238 204.19c-0.277-121.076-98.353-219.152-219.402-219.429h-487.646c-121.076 0.277-219.152 98.353-219.429 219.402v487.646c0.277 121.076 98.353 219.152 219.402 219.429h487.646c121.076-0.277 219.152-98.353 219.429-219.402v-0.027zM546.133 667.429c-9.674 1.631-20.82 2.563-32.183 2.563s-22.509-0.932-33.364-2.724l1.181 0.161c-60.315-8.035-111.934-39.934-145.873-85.725l-0.413-0.583c-28.091-36.496-45.021-82.85-45.021-133.158 0-121.187 98.242-219.429 219.429-219.429 1.428 0 2.853 0.014 4.274 0.041l-0.213-0.003c11.436 0.093 22.582 0.976 33.487 2.597l-1.305-0.159c106.885 15.934 187.94 107.080 187.94 217.157 0 11.991-0.962 23.757-2.812 35.225l0.168-1.259c-13.666 96.336-88.959 171.63-184.14 185.161l-1.155 0.135zM539.307 281.722c-7.873-1.287-16.947-2.022-26.192-2.022-85.507 0-156.327 62.883-168.738 144.926l-0.117 0.943c-1.249 7.714-1.963 16.606-1.963 25.664 0 38.123 12.644 73.292 33.967 101.544l-0.309-0.427c26.573 35.089 65.773 59.41 110.722 66.199l0.943 0.117c3.717 0.232 8.060 0.364 12.434 0.364s8.718-0.132 13.027-0.393l-0.593 0.029c3.789 0.232 8.218 0.364 12.678 0.364s8.889-0.132 13.284-0.393l-0.606 0.029c83.331-12.208 146.591-83.197 146.591-168.96s-63.26-156.752-145.665-168.848l-0.926-0.112zM770.926 738.621c-3.084-1.213-5.695-3.040-7.787-5.347l-0.015-0.017c-4.394-4.376-7.161-10.384-7.314-17.038l-0.001-0.029c-0.243-1.393-0.382-2.996-0.382-4.632s0.139-3.24 0.406-4.8l-0.024 0.167c1.276-3.059 3.093-5.658 5.353-7.792l0.011-0.010c2.107-2.324 4.718-4.151 7.663-5.315l0.139-0.048c1.392-0.329 2.99-0.518 4.632-0.518s3.24 0.189 4.774 0.546l-0.142-0.028c6.86 0.017 13.065 2.81 17.554 7.314l0.001 0.001c2.109 2.239 3.901 4.81 5.282 7.619l0.082 0.183c0.243 1.393 0.382 2.996 0.382 4.632s-0.139 3.24-0.406 4.8l0.024-0.167c0 0.044 0 0.095 0 0.146 0 6.575-2.603 12.542-6.834 16.927l0.007-0.007c-4.093 3.077-9.26 4.928-14.86 4.928-3.067 0-6.005-0.555-8.718-1.571l0.172 0.056z" />
<glyph unicode="&#xf1f8;" glyph-name="trash" horiz-adv-x="929" d="M893.231 769.206h-202.227v60.025c0.002 0.274 0.003 0.599 0.003 0.924 0 35.784-14.777 68.116-38.561 91.228l-0.030 0.029c-23.583 23.831-56.296 38.588-92.456 38.588-0.155 0-0.309 0-0.464-0.001h-190.056c-0.131 0-0.285 0.001-0.44 0.001-36.16 0-68.872-14.757-92.445-38.577l-0.011-0.011c-23.814-23.142-38.591-55.474-38.591-91.258 0-0.325 0.001-0.649 0.004-0.973v0.050-60.025h-202.227c-19.733 0-35.729-15.997-35.729-35.729v0c0-19.733 15.997-35.729 35.729-35.729v0h59.311v-630.978c0-0.131-0.001-0.285-0.001-0.44 0-36.16 14.757-68.872 38.577-92.445l0.011-0.011c23.937-23.417 56.728-37.868 92.895-37.873h475.915c36.168 0.005 68.959 14.456 92.92 37.897l-0.024-0.024c23.831 23.583 38.588 56.296 38.588 92.456 0 0.155 0 0.309-0.001 0.464v-0.024 630.978h59.311c19.733 0 35.729 15.997 35.729 35.729v0c0 19.733-15.997 35.729-35.729 35.729v0zM309.415 829.231c0.403 32.842 27.121 59.311 60.021 59.311 0.002 0 0.003 0 0.005 0h190.079c16.402-0.039 31.27-6.572 42.175-17.164l-0.015 0.014c10.965-10.719 17.788-25.635 17.865-42.146v-60.039h-310.13zM762.462 66.769c-0.077-16.525-6.899-31.442-17.853-42.15l-0.011-0.011c-10.275-10.596-24.642-17.173-40.546-17.173-0.568 0-1.133 0.008-1.697 0.025l0.083-0.002h-475.913c-0.481-0.015-1.047-0.023-1.614-0.023-15.904 0-30.272 6.577-40.532 17.159l-0.014 0.014c-10.965 10.719-17.788 25.635-17.865 42.146v630.992h595.964zM369.44 173.957c19.733 0 35.729 15.997 35.729 35.729v0 285.834c0 19.733-15.997 35.729-35.729 35.729v0c-19.733 0-35.729-15.997-35.729-35.729v0-285.834c0-19.733 15.997-35.729 35.729-35.729v0zM559.52 173.957c19.733 0 35.729 15.997 35.729 35.729v0 285.834c0 19.733-15.997 35.729-35.729 35.729v0c-19.733 0-35.729-15.997-35.729-35.729v0-285.834c0-19.733 15.997-35.729 35.729-35.729v0z" />
<glyph unicode="&#xf39e;" glyph-name="facebook-f" horiz-adv-x="585" d="M414.476 716.19h146.286c13.465 0 24.381 10.916 24.381 24.381v0 195.048c0 13.465-10.916 24.381-24.381 24.381v0h-146.286c-148.006-0.277-267.913-120.184-268.19-268.164v-121.932h-121.905c-13.465 0-24.381-10.916-24.381-24.381v0-195.048c0-13.465 10.916-24.381 24.381-24.381v0h121.905v-365.714c0-13.465 10.916-24.381 24.381-24.381v0h195.048c13.465 0 24.381 10.916 24.381 24.381v0 365.714h121.905c0.036 0 0.079 0 0.122 0 11.294 0 20.758 7.836 23.251 18.368l0.032 0.162 48.762 195.048c0.534 1.865 0.842 4.007 0.842 6.22 0 5.609-1.973 10.758-5.264 14.789l0.033-0.042c-4.412 5.66-11.231 9.265-18.892 9.265-0.044 0-0.088 0-0.132 0h-170.66v121.905c0 13.465 10.916 24.381 24.381 24.381v0zM365.714 521.143h163.84l-36.571-146.286h-127.269c-13.465 0-24.381-10.916-24.381-24.381v0-365.714h-146.286v365.714c0 13.465-10.916 24.381-24.381 24.381v0h-121.905v146.286h121.905c13.465 0 24.381 10.916 24.381 24.381v0 146.286c0.277 121.076 98.353 219.152 219.402 219.429h121.932v-146.286h-121.905c-40.396 0-73.143-32.747-73.143-73.143v0-146.286c0-13.465 10.916-24.381 24.381-24.381v0z" />
<glyph unicode="&#xf3c5;" glyph-name="map-marker-alt" horiz-adv-x="846" d="M422.957 960c-233.49-0.253-422.703-189.466-422.957-422.932v-0.024c0-320.111 394.017-586.351 410.49-597.482 3.54-2.235 7.848-3.562 12.466-3.562s8.926 1.326 12.564 3.619l-0.098-0.057c16.473 11.13 410.49 277.37 410.49 597.482-0.253 233.49-189.466 422.703-422.932 422.957h-0.024zM422.957-14.581c-66.783 47.638-378.435 285.83-378.435 551.624 0 209.004 169.431 378.435 378.435 378.435s378.435-169.431 378.435-378.435v0c0-265.795-311.652-503.986-378.435-551.624zM422.957 692.87c-86.060 0-155.826-69.766-155.826-155.826s69.766-155.826 155.826-155.826c86.060 0 155.826 69.766 155.826 155.826v0c0 86.060-69.766 155.826-155.826 155.826v0zM422.957 425.739c-61.472 0-111.304 49.833-111.304 111.304s49.833 111.304 111.304 111.304c61.472 0 111.304-49.833 111.304-111.304v0c0-61.472-49.833-111.304-111.304-111.304v0z" />
<glyph unicode="&#xf466;" glyph-name="box" horiz-adv-x="923" d="M909.844 697.685c-0.433 3.48-1.642 6.61-3.449 9.307l0.049-0.077c-1.808 3.175-4.263 5.785-7.202 7.72l-0.084 0.052c-9.795 14.172-22.111 25.868-36.396 34.676l-0.522 0.299-340.038 194.307c-17.452 10.093-38.391 16.048-60.721 16.048s-43.269-5.955-61.315-16.364l0.594 0.316-340.038-194.307c-14.908-8.969-27.252-20.693-36.659-34.57l-0.259-0.406c-3.023-1.987-5.478-4.598-7.229-7.663l-0.058-0.11c-1.758-2.619-2.967-5.75-3.39-9.125l-0.011-0.105c-7.909-15.571-12.708-33.896-13.114-53.301l-0.002-0.133v-388.615c0.093-44.619 24.235-83.578 60.148-104.616l0.573-0.31 340.038-194.307c13.042-7.376 28.366-12.394 44.685-14.047l0.492-0.040c4.017-3.893 9.5-6.293 15.545-6.293s11.528 2.4 15.55 6.299l-0.006-0.006c16.81 1.693 32.135 6.711 45.76 14.39l-0.584-0.302 340.038 194.307c36.486 21.348 60.628 60.307 60.721 104.913v388.628c-0.408 19.538-5.207 37.863-13.446 54.154l0.33-0.719zM437.192-6.679c-4.632 1.413-8.656 3.229-12.389 5.48l0.244-0.137-340.038 194.307c-21.879 12.689-36.372 35.977-36.433 62.656v388.624c-0.24 2.258-0.377 4.878-0.377 7.529s0.137 5.271 0.405 7.852l-0.027-0.323 388.615-223.939zM461.48 479.089l-385.214 221.51c2.603 2.445 5.461 4.685 8.508 6.658l0.236 0.143 340.038 194.307c10.462 6.092 23.028 9.688 36.433 9.688s25.97-3.596 36.784-9.876l-0.351 0.188 340.038-194.307c3.283-2.115 6.141-4.356 8.776-6.83l-0.032 0.030zM874.383 255.636c-0.060-26.687-14.554-49.975-36.086-62.478l-0.346-0.186-340.038-194.307c-3.459-2.002-7.475-3.811-11.678-5.209l-0.466-0.134v442.049l388.615 223.939c0.24-2.258 0.377-4.878 0.377-7.529s-0.137-5.271-0.405-7.852l0.027 0.323z" />
<glyph unicode="&#xf879;" glyph-name="phone-alt" horiz-adv-x="1022" d="M916.854 329.357v0c-49.273 6.415-93.871 17.905-136.116 34.137l4.019-1.357c-12.699 4.861-27.388 7.676-42.735 7.676-33.709 0-64.246-13.582-86.436-35.572l-48.916-48.916c-106.963 65.048-194.254 152.34-257.408 255.957l-1.895 3.346 48.925 48.925c21.981 22.182 35.563 52.718 35.563 86.427 0 15.347-2.815 30.036-7.957 43.579l0.281-0.844c-14.742 38.172-26.223 82.758-32.44 129.011l-0.339 3.086c-8.691 59.783-59.597 105.189-121.108 105.189-0.079 0-0.159 0-0.238 0h-158.994c-62.793-5.673-111.623-58.056-111.623-121.844 0-4.127 0.204-8.207 0.604-12.229l-0.041 0.508c17.958-163.521 72.979-311.283 156.446-438.738l-2.332 3.795c78.3-121.931 178.959-222.589 297.014-298.554l3.875-2.334c123.069-80.988 270.144-135.989 428.488-153.705l4.498-0.409h11.742c67.399 0.554 121.823 55.32 121.823 122.798 0 0.001 0 0.003 0 0.004v0 146.775c0.009 0.544 0.014 1.186 0.014 1.829 0 61.438-45.118 112.339-104.029 121.376l-0.684 0.086zM973.118 58.802c0 0 0-0.001 0-0.002 0-40.629-32.797-73.598-73.361-73.875h-6.386c-154.755 17.577-294.464 69.916-415.064 148.994l3.605-2.219c-115.908 74.575-211.636 170.303-283.986 282.524l-2.226 3.687c-77.304 117.338-129.713 257.634-146.395 408.695l-0.38 4.232c-0.249 2.263-0.392 4.887-0.392 7.545 0 38.332 29.586 69.754 67.168 72.676l0.25 0.016h154.114c36.8-0.132 67.207-27.33 72.362-62.717l0.047-0.397c7.261-53.42 19.761-101.621 37.227-147.368l-1.511 4.507c2.929-7.619 4.626-16.433 4.626-25.644 0-20.149-8.12-38.401-21.266-51.663l-62.13-62.13c-4.332-4.482-7.002-10.595-7.002-17.332 0-4.411 1.144-8.554 3.153-12.15l-0.065 0.127c73.139-126.912 175.788-229.404 298.936-300.282l3.91-2.075c3.492-2.172 7.73-3.459 12.268-3.459 6.728 0 12.794 2.829 17.076 7.362l0.011 0.011 62.135 61.645c13.257 13.141 31.509 21.261 51.658 21.261 9.211 0 18.025-1.697 26.147-4.795l-0.504 0.169c41.294-15.879 89.523-28.221 139.551-34.867l3.31-0.359c35.957-5.646 63.136-36.406 63.136-73.513 0-0.644-0.008-1.286-0.024-1.926l0.002 0.095z" />
</font>
</defs>
</svg>
