<svg width="23" height="20" viewBox="0 0 23 20" fill="none" xmlns="http://www.w3.org/2000/svg">
<path id="Vector" d="M11.1433 19.9919C10.827 19.9919 10.522 19.8773 10.2843 19.6691C9.38654 18.8841 8.52103 18.1465 7.75741 17.4958L7.75351 17.4924C5.51471 15.5845 3.58142 13.9369 2.23627 12.3139C0.732605 10.4994 0.0322266 8.77909 0.0322266 6.89972C0.0322266 5.07375 0.658346 3.38918 1.79513 2.1561C2.94547 0.908437 4.52391 0.221283 6.24018 0.221283C7.52294 0.221283 8.69769 0.626828 9.73173 1.42656C10.2536 1.83024 10.7266 2.32428 11.1433 2.90056C11.5602 2.32428 12.0331 1.83024 12.5551 1.42656C13.5892 0.626828 14.7639 0.221283 16.0467 0.221283C17.7628 0.221283 19.3414 0.908437 20.4917 2.1561C21.6285 3.38918 22.2544 5.07375 22.2544 6.89972C22.2544 8.77909 21.5542 10.4994 20.0506 12.3137C18.7054 13.9369 16.7723 15.5843 14.5338 17.492C13.7689 18.1437 12.902 18.8826 12.0022 19.6695C11.7647 19.8773 11.4595 19.9919 11.1433 19.9919ZM6.24018 1.52303C4.89181 1.52303 3.65314 2.06115 2.75202 3.03839C1.83751 4.03039 1.3338 5.40164 1.3338 6.89972C1.3338 8.48036 1.92126 9.894 3.23844 11.4833C4.51153 13.0195 6.40514 14.6332 8.59766 16.5017L8.60173 16.5051C9.36823 17.1584 10.2371 17.8989 11.1415 18.6897C12.0512 17.8974 12.9215 17.1557 13.6895 16.5014C15.8819 14.6329 17.7753 13.0195 19.0484 11.4833C20.3654 9.894 20.9529 8.48036 20.9529 6.89972C20.9529 5.40164 20.4492 4.03039 19.5347 3.03839C18.6337 2.06115 17.3949 1.52303 16.0467 1.52303C15.0589 1.52303 14.152 1.83702 13.3513 2.45619C12.6377 3.00822 12.1406 3.70605 11.8491 4.19433C11.6993 4.44542 11.4355 4.5953 11.1433 4.5953C10.8512 4.5953 10.5874 4.44542 10.4375 4.19433C10.1463 3.70605 9.64916 3.00822 8.93539 2.45619C8.13464 1.83702 7.22776 1.52303 6.24018 1.52303Z" fill="#444444"/>
</svg>
