<?xml version="1.0" standalone="no"?>
<!DOCTYPE svg PUBLIC "-//W3C//DTD SVG 1.1//EN" "http://www.w3.org/Graphics/SVG/1.1/DTD/svg11.dtd" >
<svg xmlns="http://www.w3.org/2000/svg">
<metadata>Generated by IcoMoon</metadata>
<defs>
<font id="icomoon" horiz-adv-x="1024">
<font-face units-per-em="1024" ascent="960" descent="-64" />
<missing-glyph horiz-adv-x="1024" />
<glyph unicode="&#x20;" horiz-adv-x="512" d="" />
<glyph unicode="&#xf002;" glyph-name="icon-search" d="M1013.522-3.036l-203.847 205.753c68.148 79.744 109.617 184.068 109.617 298.078 0 254.098-205.987 460.086-460.086 460.086s-460.086-205.987-460.086-460.086c0-254.098 205.987-460.086 460.086-460.086 114.010 0 218.334 41.469 298.712 110.146l-0.634-0.529 205.753-205.753c6.463-6.455 15.387-10.447 25.243-10.447s18.78 3.992 25.243 10.447v0c7.043 6.543 11.435 15.856 11.435 26.195s-4.392 19.652-11.413 26.175l-0.022 0.021zM71.442 500.867c0 0.165 0 0.36 0 0.555 0 214.116 173.575 387.691 387.691 387.691s387.691-173.575 387.691-387.691c0-106.722-43.122-203.373-112.893-273.478l0.015 0.015c-70.217-70.964-167.622-114.908-275.29-114.908-213.853 0-387.215 173.362-387.215 387.215 0 0.211 0 0.423 0.001 0.634v-0.033z" />
<glyph unicode="&#xf004;" glyph-name="icon-heart" horiz-adv-x="1163" d="M1138.181 759.663c-17.371 40.419-41.195 74.888-70.542 103.759l-0.043 0.042c-28.844 29.341-63.341 53.021-101.739 69.29l-2.062 0.776c-36.658 15.534-79.287 24.562-124.026 24.562-89.52 0-170.598-36.148-229.433-94.643l-27.492-27.492-27.507 27.507c-58.709 58.709-139.814 95.021-229.401 95.021-179.173 0-324.422-145.249-324.422-324.422 0-89.587 36.312-170.692 95.021-229.401l458.802-458.802c7.042-7.034 16.767-11.384 27.507-11.384s20.465 4.35 27.508 11.384v0l458.802 458.802c29.504 28.842 53.348 63.333 69.8 101.742l0.784 2.059c15.433 36.679 24.4 79.313 24.4 124.043s-8.967 87.364-25.202 126.205l0.802-2.163zM1066.040 541.162c-12.404-31.104-29.986-57.684-51.929-79.956l0.029 0.029-432.851-431.294-431.294 431.294c-44.629 44.629-72.233 106.284-72.233 174.386 0 136.204 110.415 246.619 246.619 246.619 68.102 0 129.757-27.604 174.386-72.233v0l55.015-57.61c7.042-7.034 16.767-11.384 27.507-11.384s20.465 4.35 27.508 11.384v0l55.015 55.015c22.413 21.616 48.937 39.149 78.26 51.289l1.667 0.611c28.211 12.187 61.058 19.275 95.561 19.275 67.563 0 128.777-27.178 173.308-71.198l-0.023 0.023c21.914-22.243 39.497-48.823 51.334-78.327l0.567-1.6c11.818-27.921 18.687-60.388 18.687-94.459s-6.868-66.538-19.296-96.092l0.609 1.633z" />
<glyph unicode="&#xf007;" glyph-name="icon-user" horiz-adv-x="969" d="M891.71 274.197c-47.236 47.526-112.646 76.941-184.926 76.941-0.371 0-0.741-0.001-1.112-0.002h-442.753c-145.206 0-262.919-117.713-262.919-262.919v0-110.703c0.308-22.803 18.711-41.206 41.484-41.513h0.029c22.803 0.308 41.206 18.711 41.513 41.484v110.732c0.723 50.071 21.793 95.083 55.29 127.25l0.061 0.058c32.744 32.296 77.662 52.323 127.258 52.584h442.861c49.646-0.261 94.564-20.288 127.329-52.604l-0.021 0.020c32.491-32.543 52.584-77.474 52.584-127.097 0-0.074 0-0.148 0-0.222v0.012-110.703c0-22.927 18.586-41.514 41.514-41.514s41.514 18.586 41.514 41.514v0 110.703c-0.479 73.037-30.918 138.873-79.63 185.907l-0.076 0.073zM484.324 434.162c145.206 0 262.919 117.713 262.919 262.919s-117.713 262.919-262.919 262.919c-145.206 0-262.919-117.713-262.919-262.919v0c0-145.206 117.713-262.919 262.919-262.919v0zM484.324 876.973c99.352 0 179.892-80.54 179.892-179.892s-80.54-179.892-179.892-179.892c-99.352 0-179.892 80.54-179.892 179.892v0c0.314 99.225 80.667 179.578 179.862 179.892h0.030z" />
<glyph unicode="&#xf00d;" glyph-name="icon-times" d="M567.808 448l444.416 444.928c7.383 6.931 11.983 16.752 11.983 27.648s-4.599 20.717-11.962 27.629l-0.020 0.019c-6.931 7.383-16.752 11.983-27.648 11.983s-20.717-4.599-27.629-11.962l-0.019-0.020-444.928-444.416-444.928 444.416c-6.931 7.383-16.752 11.983-27.648 11.983s-20.717-4.599-27.629-11.962l-0.019-0.020c-7.383-6.931-11.983-16.752-11.983-27.648s4.599-20.717 11.962-27.629l0.020-0.019 444.416-444.928-444.416-444.928c-7.383-6.931-11.983-16.752-11.983-27.648s4.599-20.717 11.962-27.629l0.020-0.019c7.022-7.212 16.803-11.707 27.635-11.776h0.013c10.845 0.069 20.626 4.564 27.64 11.767l0.008 0.009 444.928 444.416 444.928-444.416c6.995-7.25 16.796-11.751 27.648-11.751s20.653 4.502 27.637 11.74l0.011 0.011c7.383 6.931 11.983 16.752 11.983 27.648s-4.599 20.717-11.962 27.629l-0.020 0.019z" />
<glyph unicode="&#xf023;" glyph-name="icon-lock" horiz-adv-x="931" d="M139.636 459.636c-32.133 0-58.182-26.047-58.182-58.182v-325.818c0-32.135 26.049-58.182 58.182-58.182h651.636c32.135 0 58.182 26.047 58.182 58.182v325.818c0 32.135-26.047 58.182-58.182 58.182h-651.636zM11.636 401.455c0 70.693 57.308 128 128 128h651.636c70.693 0 128-57.307 128-128v-325.818c0-70.693-57.307-128-128-128h-651.636c-70.692 0-128 57.307-128 128v325.818zM465.455 878.545c-52.465 0-102.78-20.842-139.878-57.94s-57.94-87.414-57.94-139.878v-186.182c0-19.279-15.629-34.909-34.909-34.909s-34.909 15.63-34.909 34.909v186.182c0 70.981 28.197 139.056 78.389 189.247s118.265 78.389 189.247 78.389c70.982 0 139.055-28.197 189.249-78.389 50.19-50.191 78.387-118.266 78.387-189.247v-186.182c0-19.279-15.63-34.909-34.909-34.909s-34.909 15.63-34.909 34.909v186.182c0 52.465-20.843 102.78-57.94 139.878s-87.412 57.94-139.878 57.94z" />
<glyph unicode="&#xf044;" glyph-name="icon-edit" d="M971.404 907.404c-32.389 32.615-77.255 52.804-126.836 52.804s-94.447-20.188-126.826-52.793l-633.494-633.494c-5.762-5.557-9.996-12.661-12.036-20.643l-0.066-0.303-72.145-258.327c-1.021-3.638-1.608-7.815-1.608-12.13 0-25.706 20.839-46.545 46.545-46.545 0.566 0 1.129 0.010 1.689 0.030l-0.081-0.002c1.819-0.336 3.913-0.528 6.051-0.528s4.232 0.192 6.264 0.56l-0.213-0.032 258.327 70.284c8.241 2.247 15.314 6.455 20.944 12.101l633.485 635.346c32.39 32.492 52.417 77.326 52.417 126.836s-20.027 94.344-52.422 126.841l0.005-0.005zM905.775 721.222l-626.502-626.502-167.564-46.545 46.545 167.564 625.571 626.036c15.834 15.094 37.32 24.381 60.975 24.381s45.141-9.287 61.010-24.414l-0.035 0.034c15.522-15.642 25.115-37.188 25.115-60.975s-9.593-45.332-25.121-60.98l0.005 0.005z" />
<glyph unicode="&#xf04b;" glyph-name="icon-play" horiz-adv-x="817" d="M796.049 485.398l-727.485 467.478c-6.467 4.002-14.31 6.374-22.706 6.374s-16.239-2.372-22.894-6.482l0.188 0.108c-13.318-7.57-22.344-21.346-23.147-37.29l-0.004-0.108v-934.957c0.154-16.745 9.346-31.308 22.928-39.062l0.223-0.117c6.114-3.364 13.4-5.343 21.148-5.343 0.078 0 0.157 0 0.235 0.001h-0.012c8.929 0.176 17.208 2.806 24.237 7.238l-0.195-0.115 727.485 467.478c12.33 8.053 20.365 21.787 20.365 37.398s-8.035 29.346-20.194 37.294l-0.17 0.105zM89.043 62.442v771.117l600.153-385.558z" />
<glyph unicode="&#xf058;" glyph-name="icon-check-circle" horiz-adv-x="1025" d="M986.605 529.193c-20.935 0-37.907-16.972-37.907-37.907v0-43.542c0.103-3.534 0.161-7.692 0.161-11.863 0-241.040-195.402-436.442-436.442-436.442s-436.442 195.402-436.442 436.442c0 14.278 0.686 28.395 2.026 42.321l-0.138-1.772c12.566 194.729 151.543 353.724 335.152 396.423l2.937 0.575c28.954 6.87 62.197 10.809 96.36 10.809 64.361 0 125.457-13.981 180.416-39.071l-2.719 1.112c4.708-2.217 10.226-3.511 16.046-3.511 15.631 0 29.082 9.335 35.082 22.734l0.097 0.243c2.113 4.645 3.345 10.073 3.345 15.789 0 15.657-9.243 29.156-22.57 35.337l-0.241 0.1c-62.012 28.747-134.593 45.515-211.091 45.515-282.911 0-512.256-229.345-512.256-512.256 0-104.641 31.375-201.953 85.232-283.043l-1.18 1.89c92.72-141.437 250.505-233.558 429.806-233.558 166.998 0 315.332 79.912 408.848 203.583l0.933 1.288c63.611 84.7 102.018 191.5 102.451 307.252v43.643c0 20.935-16.972 37.907-37.907 37.907v0zM396.998 521.509c-5.132 2.766-11.231 4.391-17.71 4.391-20.935 0-37.907-16.972-37.907-37.907 0-6.479 1.625-12.578 4.491-17.912l-0.099 0.202 142.407-142.407c6.514-6.65 15.587-10.772 25.622-10.772 0.357 0 0.713 0.005 1.068 0.016l-0.052-0.001c0.178-0.003 0.388-0.005 0.598-0.005 10.165 0 19.369 4.112 26.040 10.763l-0.001-0.001 474.349 474.861c6.913 6.869 11.192 16.381 11.192 26.893s-4.279 20.025-11.19 26.891l-0.002 0.002c-6.675 6.286-15.693 10.149-25.613 10.149s-18.938-3.863-25.632-10.166l0.019 0.018-452.322-450.785z" />
<glyph unicode="&#xf060;" glyph-name="icon-arrow-left" d="M974.452 497.548h-805.326l377.889 377.889c9.715 9.070 15.77 21.953 15.77 36.25 0 27.365-22.184 49.548-49.548 49.548-14.297 0-27.18-6.055-36.224-15.741l-0.027-0.029-462.452-462.452c-4.596-4.305-8.2-9.609-10.475-15.57l-0.096-0.286c-2.164-5.282-3.42-11.413-3.42-17.837s1.256-12.555 3.536-18.16l-0.116 0.323c2.37-6.247 5.975-11.551 10.547-15.834l0.023-0.021 462.452-462.452c8.964-8.953 21.343-14.491 35.014-14.491s26.050 5.537 35.015 14.491l-0.001-0.001c8.953 8.964 14.491 21.343 14.491 35.014s-5.537 26.050-14.491 35.015l0.001-0.001-377.889 375.246h805.326c27.365 0 49.548 22.184 49.548 49.548s-22.184 49.548-49.548 49.548v0z" />
<glyph unicode="&#xf061;" glyph-name="icon-arrow-right" d="M49.548 398.452h805.326l-377.889-377.889c-8.239-8.824-13.298-20.711-13.298-33.778 0-27.365 22.184-49.548 49.548-49.548 13.068 0 24.954 5.059 33.807 13.325l-0.029-0.027 462.452 462.452c4.615 5.167 8.229 11.338 10.466 18.134l0.104 0.364c2.508 5.645 3.969 12.232 3.969 19.159s-1.46 13.513-4.090 19.467l0.122-0.308c-2.651 6.145-6.213 11.4-10.58 15.865l-462.443 462.443c-8.964 8.953-21.343 14.491-35.014 14.491s-26.050-5.537-35.015-14.491l0.001 0.001c-8.953-8.964-14.491-21.343-14.491-35.014s5.537-26.050 14.491-35.015l-0.001 0.001 377.889-380.532h-805.326c-27.365 0-49.548-22.184-49.548-49.548s22.184-49.548 49.548-49.548v0z" />
<glyph unicode="&#xf062;" glyph-name="icon-arrow-up" d="M561.548-14.452v805.326l377.889-377.889c9.070-9.715 21.953-15.77 36.25-15.77 27.365 0 49.548 22.184 49.548 49.548 0 14.297-6.055 27.18-15.741 36.224l-0.029 0.027-462.452 462.452c-4.995 4.923-11.236 8.596-18.206 10.502l-0.292 0.068c-5.645 2.508-12.232 3.969-19.159 3.969s-13.513-1.46-19.467-4.090l0.308 0.122c-6.247-2.37-11.551-5.975-15.834-10.547l-0.021-0.023-462.452-462.452c-8.953-8.964-14.491-21.343-14.491-35.014s5.537-26.050 14.491-35.015l-0.001 0.001c8.964-8.953 21.343-14.491 35.014-14.491s26.050 5.537 35.015 14.491l-0.001-0.001 380.532 377.889v-805.326c0-27.365 22.184-49.548 49.548-49.548s49.548 22.184 49.548 49.548v0z" />
<glyph unicode="&#xf063;" glyph-name="icon-arrow-down" d="M462.452 910.452v-805.326l-377.889 377.889c-8.824 8.239-20.711 13.298-33.778 13.298-27.365 0-49.548-22.184-49.548-49.548 0-13.068 5.059-24.954 13.325-33.807l-0.027 0.029 462.452-462.452c4.455-4.358 9.711-7.919 15.522-10.442l0.333-0.129c5.645-2.508 12.232-3.969 19.159-3.969s13.513 1.46 19.467 4.090l-0.308-0.122c6.145 2.651 11.4 6.213 15.865 10.58l462.443 462.443c8.953 8.964 14.491 21.343 14.491 35.014s-5.537 26.050-14.491 35.015l0.001-0.001c-8.964 8.953-21.343 14.491-35.014 14.491s-26.050-5.537-35.015-14.491l-377.888-377.888v805.326c0 27.365-22.184 49.548-49.548 49.548s-49.548-22.184-49.548-49.548v0z" />
<glyph unicode="&#xf067;" glyph-name="icon-plus" d="M512-64c-18.946 0-34.304 15.358-34.304 34.304v0 955.392c0 18.946 15.358 34.304 34.304 34.304s34.304-15.358 34.304-34.304v0-955.392c0-18.946-15.358-34.304-34.304-34.304v0zM989.696 413.696h-955.392c-18.946 0-34.304 15.358-34.304 34.304s15.358 34.304 34.304 34.304h955.392c18.946 0 34.304-15.358 34.304-34.304s-15.358-34.304-34.304-34.304v0z" />
<glyph unicode="&#xf068;" glyph-name="icon-minus" d="M960 384h-896c-35.4 0-64 28.6-64 64s28.6 64 64 64h896c35.402 0 64-28.6 64-64s-28.598-64-64-64z" />
<glyph unicode="&#xf082;" glyph-name="icon-facebook-square" d="M967.68 960h-911.36c-31.105 0-56.32-25.215-56.32-56.32v0-911.36c0-31.105 25.215-56.32 56.32-56.32v0h490.496v396.8h-133.12v153.6h133.12v115.2c-0.614 5.681-0.965 12.27-0.965 18.941 0 102.928 83.44 186.368 186.368 186.368 4.844 0 9.645-0.185 14.396-0.548l-0.631 0.039c1.638 0.009 3.575 0.014 5.513 0.014 40.084 0 79.646-2.237 118.567-6.593l-4.784 0.435v-138.24h-81.92c-64.512 0-76.8-30.72-76.8-75.264v-99.84h153.6l-19.968-153.6h-133.632v-397.312h261.12c31.105 0 56.32 25.215 56.32 56.32v0 911.36c0 31.105-25.215 56.32-56.32 56.32v0z" />
<glyph unicode="&#xf0a3;" glyph-name="icon-certificate" horiz-adv-x="814" d="M814.080 553.157c-0.152 19.835-6.945 38.054-18.262 52.575l0.145-0.194c-6.527 8.86-10.446 19.991-10.446 32.038 0 5.425 0.795 10.665 2.275 15.609l-0.099-0.385c1.798 6.636 2.83 14.256 2.83 22.116 0 12.203-2.489 23.824-6.986 34.384l0.217-0.574c-7.478 18.143-20.356 32.801-36.612 42.314l-0.41 0.222c-14.13 8.202-23.965 22.464-25.969 39.135l-0.024 0.25c-5.725 39.243-36.375 69.893-75.137 75.561l-0.482 0.058c-16.794 2.392-30.923 12.108-39.248 25.753l-0.137 0.241c-9.841 16.604-24.646 29.374-42.349 36.424l-0.58 0.204c-9.618 4.238-20.831 6.705-32.621 6.705-0.439 0-0.878-0.003-1.316-0.010l0.066 0.001c-0.195 0.002-0.426 0.002-0.657 0.002-7.744 0-15.252-1.007-22.402-2.896l0.61 0.137c-2.011-0.276-4.335-0.433-6.695-0.433s-4.684 0.157-6.962 0.462l0.266-0.029c-0.232-0.004-0.506-0.006-0.78-0.006-12.033 0-23.132 3.997-32.043 10.736l0.134-0.097c-14.233 10.357-32.062 16.57-51.342 16.57-0.781 0-1.56-0.010-2.336-0.030l0.115 0.002c-19.835-0.152-38.054-6.945-52.575-18.262l0.194 0.145c-8.866-6.642-20.050-10.636-32.166-10.636-0.184 0-0.367 0.001-0.551 0.003h0.028c-2.070-0.277-4.463-0.436-6.892-0.436s-4.823 0.158-7.169 0.465l0.276-0.030c-6.873 2.408-14.812 3.966-23.062 4.326l-0.175 0.006c-0.305 0.004-0.665 0.006-1.025 0.006-11.732 0-22.887-2.466-32.977-6.908l0.525 0.206c-18.051-7.458-32.675-20.177-42.314-36.23l-0.221-0.398c-8.166-14.246-22.42-24.206-39.121-26.36l-0.264-0.028c-38.907-5.969-69.256-36.318-75.162-74.726l-0.063-0.499c-2.215-16.856-11.989-31.049-25.748-39.249l-0.246-0.136c-16.665-9.734-29.544-24.392-36.811-41.96l-0.211-0.575c-4.36-9.918-6.897-21.48-6.897-33.635 0-7.929 1.080-15.606 3.1-22.892l-0.142 0.601c1.243-4.334 1.958-9.312 1.958-14.457 0-12.382-4.141-23.798-11.113-32.937l0.097 0.132c-11.172-14.327-17.965-32.547-18.117-52.347v-0.035c0-0.041 0-0.090 0-0.139 0-20.192 6.814-38.793 18.268-53.628l-0.151 0.204c6.796-8.839 10.891-20.062 10.891-32.241 0-4.922-0.669-9.688-1.921-14.212l0.088 0.374c-1.905-6.857-3-14.732-3-22.861 0-31.841 16.793-59.759 42.006-75.382l0.379-0.219c14.082-8.343 23.962-22.507 26.353-39.093l0.035-0.292c5.938-39.404 36.893-70.092 75.934-75.564l0.472-0.054c16.921-2.029 31.182-11.863 39.25-25.744l0.134-0.25c9.734-16.665 24.392-29.544 41.96-36.811l0.575-0.211c5.999-2.534 13.012-4.588 20.302-5.827l0.572-0.080v-220.16c0-0.002 0-0.004 0-0.006 0-5.825 3.328-10.873 8.186-13.346l0.085-0.039c2.25-1.365 4.969-2.174 7.877-2.174s5.627 0.808 7.945 2.212l-0.069-0.039 110.671 83.102 111.065-83.102c2.497-1.891 5.633-3.061 9.038-3.15h0.021c1.004-0.278 2.157-0.439 3.348-0.439s2.344 0.16 3.439 0.46l-0.091-0.021c4.943 2.512 8.271 7.56 8.271 13.385 0 0.002 0 0.004 0 0.006v0 224.492c7.862 1.32 14.875 3.373 21.514 6.145l-0.64-0.237c18.017 7.495 32.549 20.374 41.921 36.607l0.221 0.415c8.379 13.965 22.55 23.719 39.106 25.963l0.279 0.031c39.243 5.725 69.893 36.375 75.561 75.137l0.058 0.482c2.275 16.835 12.029 31.006 25.75 39.249l0.244 0.136c16.647 9.593 29.526 24.124 36.812 41.574l0.21 0.567c4.281 10.061 6.77 21.764 6.77 34.049 0 7.915-1.033 15.588-2.971 22.892l0.14-0.621c-1.164 4.15-1.832 8.916-1.832 13.839 0 12.18 4.095 23.403 10.984 32.367l-0.093-0.126c11.097 14.361 17.872 32.557 18.116 52.326l0.001 0.056zM512-19.102l-96.098 73.255c-2.427 1.874-5.512 3.004-8.862 3.004s-6.434-1.13-8.895-3.029l0.034 0.025-96.098-73.255v191.409h5.12c4.113 1.173 8.848 1.887 13.737 1.969l0.047 0.001c12.343-0.031 23.713-4.171 32.821-11.124l-0.132 0.097c14.492-11.299 32.961-18.117 53.022-18.117 0.052 0 0.104 0 0.155 0h-0.008c0.041 0 0.090 0 0.139 0 20.192 0 38.793 6.814 53.628 18.268l-0.204-0.151c8.918 6.88 20.252 11.028 32.554 11.028 0.048 0 0.095 0 0.143 0h-0.007c4.798-0.081 9.397-0.795 13.761-2.061l-0.37 0.092h5.514zM772.332 517.711c-10.837-13.853-17.377-31.522-17.377-50.719 0-7.594 1.024-14.95 2.94-21.935l-0.136 0.581c1.249-4.488 1.967-9.641 1.967-14.961 0-21.235-11.433-39.8-28.479-49.876l-0.269-0.147c-21.299-13.15-36.090-35.090-39.342-60.632l-0.043-0.414c-3.717-25.773-23.852-45.907-49.311-49.587l-0.313-0.037c-25.957-3.294-47.896-18.086-60.84-39.026l-0.206-0.359c-6.57-10.835-16.148-19.272-27.575-24.267l-0.388-0.151c-6.515-2.735-14.087-4.324-22.031-4.324-5.331 0-10.494 0.716-15.4 2.056l0.409-0.095c-6.336 1.605-13.647 2.602-21.166 2.755l-0.102 0.002c-19.208-0.091-36.879-6.594-51.003-17.475l0.197 0.146c-9.693-7.345-21.955-11.766-35.249-11.766s-25.556 4.421-35.396 11.873l0.147-0.106c-13.949 10.686-31.605 17.176-50.771 17.329h-0.035c-7.62-0.155-14.932-1.152-21.945-2.9l0.678 0.143c-4.727-1.39-10.157-2.19-15.774-2.19-20.681 0-38.829 10.843-49.069 27.155l-0.141 0.241c-13.15 21.299-35.090 36.090-60.632 39.342l-0.414 0.043c-25.773 3.717-45.907 23.852-49.587 49.311l-0.037 0.313c-3.294 25.957-18.086 47.896-39.026 60.84l-0.359 0.206c-12.414 6.337-22.056 16.615-27.425 29.159l-0.145 0.38c-2.774 6.484-4.387 14.029-4.387 21.951 0 5.362 0.739 10.552 2.121 15.472l-0.096-0.402c1.689 6.304 2.66 13.542 2.66 21.007 0 19.288-6.479 37.063-17.38 51.267l0.148-0.2c-7.345 9.693-11.766 21.955-11.766 35.249s4.421 25.556 11.873 35.396l-0.106-0.147c10.753 14.004 17.232 31.779 17.232 51.067 0 7.465-0.97 14.703-2.792 21.595l0.132-0.588c-1.285 4.519-2.024 9.708-2.024 15.070 0 7.922 1.613 15.467 4.529 22.325l-0.141-0.374c5.289 11.257 13.706 20.308 24.131 26.237l0.288 0.151c21.299 13.15 36.090 35.090 39.342 60.632l0.043 0.414c3.202 26.89 24.31 47.998 50.924 51.173l0.276 0.027c26.831 3.175 49.48 18.663 62.409 40.571l0.213 0.389c6.464 10.924 16.077 19.394 27.581 24.275l0.382 0.144c6.484 2.774 14.029 4.387 21.951 4.387 5.362 0 10.552-0.739 15.472-2.121l-0.402 0.096c6.336-1.605 13.647-2.602 21.166-2.755l0.102-0.002c19.201 0.153 36.857 6.644 51.010 17.479l-0.204-0.15c9.693 7.345 21.955 11.766 35.249 11.766s25.556-4.421 35.396-11.873l-0.147 0.106c13.927-10.735 31.598-17.238 50.785-17.329h0.021c7.62 0.155 14.932 1.152 21.945 2.9l-0.678-0.143c4.519 1.285 9.708 2.024 15.070 2.024 7.922 0 15.467-1.613 22.325-4.529l-0.374 0.141c11.886-5.024 21.499-13.494 27.815-24.149l0.148-0.27c13.15-21.299 35.090-36.090 60.632-39.342l0.414-0.043c25.773-3.717 45.907-23.852 49.587-49.311l0.037-0.313c3.294-25.957 18.086-47.896 39.026-60.84l0.359-0.206c17.315-10.223 28.748-28.788 28.748-50.023 0-5.321-0.718-10.474-2.062-15.368l0.095 0.406c-1.781-6.405-2.804-13.761-2.804-21.355 0-19.197 6.54-36.866 17.514-50.901l-0.137 0.182c7.345-9.693 11.766-21.955 11.766-35.249s-4.421-25.556-11.873-35.396l0.106 0.147zM666.388 616.566c-14.838 59.57-47.899 109.904-92.824 146.108l-0.517 0.403c-45.030 36.327-102.951 58.313-166.006 58.313s-120.976-21.985-166.514-58.709l0.508 0.396c-45.577-36.495-78.68-86.877-92.958-144.677l-0.383-1.834c-0.255-1.062-0.402-2.281-0.402-3.534 0-3.569 1.187-6.861 3.187-9.502l-0.029 0.039c2.693-3.375 6.805-5.519 11.419-5.519 0.139 0 0.278 0.002 0.417 0.006h489.531c0.118-0.003 0.257-0.005 0.396-0.005 4.614 0 8.726 2.144 11.396 5.49l0.023 0.029c1.972 2.602 3.158 5.894 3.158 9.463 0 1.253-0.146 2.472-0.423 3.641l0.021-0.107zM182.351 627.988c32.498 94.25 120.434 160.747 223.902 160.747s191.404-66.498 223.402-159.087l0.499-1.66zM361.945 553.157c0 8.266-6.701 14.966-14.966 14.966s-14.966-6.701-14.966-14.966c0-8.266 6.701-14.966 14.966-14.966v0c8.266 0 14.966 6.701 14.966 14.966v0zM421.809 553.157c0 8.266-6.701 14.966-14.966 14.966s-14.966-6.701-14.966-14.966c0-8.266 6.701-14.966 14.966-14.966v0c8.266 0 14.966 6.701 14.966 14.966v0zM482.068 553.157c0 8.266-6.701 14.966-14.966 14.966s-14.966-6.701-14.966-14.966c0-8.266 6.701-14.966 14.966-14.966v0c8.266 0 14.966 6.701 14.966 14.966v0zM150.449 502.351c-2.010-2.525-3.225-5.761-3.225-9.281 0-1.32 0.171-2.6 0.492-3.82l-0.023 0.104c29.57-117.689 134.444-203.447 259.348-203.447s229.778 85.757 258.954 201.603l0.393 1.843c0.298 1.115 0.469 2.395 0.469 3.716 0 3.52-1.215 6.756-3.249 9.312l0.023-0.031c-2.693 3.375-6.805 5.519-11.419 5.519-0.139 0-0.278-0.002-0.417-0.006h-489.531c-0.118 0.003-0.257 0.005-0.396 0.005-4.614 0-8.726-2.144-11.396-5.49l-0.023-0.029zM630.154 477.932c-31.791-95.489-120.342-163.122-224.689-163.122s-192.898 67.633-224.207 161.454l-0.483 1.668zM406.843 881.231c-79.121-0.182-151.613-28.411-208.098-75.267l0.541 0.436c-3.875-2.742-6.373-7.206-6.373-12.254 0-3.944 1.525-7.531 4.018-10.205l-0.008 0.009c2.755-2.646 6.504-4.276 10.634-4.276s7.879 1.63 10.639 4.281l-0.005-0.005c50.409 41.881 115.8 67.298 187.127 67.298 162.266 0 293.809-131.543 293.809-293.809s-131.543-293.809-293.809-293.809c-162.266 0-293.809 131.543-293.809 293.809 0 71.327 25.416 136.717 67.687 187.608l-0.389-0.482c2.821 2.6 4.582 6.313 4.582 10.437s-1.761 7.837-4.572 10.428l-0.010 0.009c-2.65 2.717-6.346 4.403-10.437 4.403s-7.787-1.685-10.434-4.4l-0.003-0.003c-46.869-56.174-75.323-129.133-75.323-208.738 0-180.538 146.355-326.892 326.892-326.892s326.892 146.355 326.892 326.892c0 180.365-146.074 326.612-326.373 326.892h-0.027z" />
<glyph unicode="&#xf0ac;" glyph-name="icon-globe" d="M512 960c-282.77 0-512-229.23-512-512s229.23-512 512-512c282.77 0 512 229.23 512 512v0c-0.271 282.661-229.339 511.729-511.974 512h-0.026zM952.558 471.814h-214.326c-7.586 154.411-60.009 295.236-144.403 411.317l1.519-2.193c197.33-38.721 345.926-205.037 357.159-407.985l0.050-1.138zM360.067 424.186h306.724c-8.443-152.057-64.912-289.485-154.341-398.928l0.979 1.235c-88.735 108.185-145.634 245.522-154.698 395.763l-0.093 1.93zM360.067 471.814c8.005 151.903 63.991 289.354 152.94 398.974l-1.007-1.281c88.735-108.185 145.634-245.522 154.698-395.763l0.093-1.93zM431.509 880.938c-82.611-113.995-134.978-254.747-142.808-407.267l-0.076-1.856h-215.754c11.436 204.478 160.702 370.982 355.869 408.678l2.769 0.445zM72.871 424.186h212.897c7.586-154.411 60.009-295.236 144.403-411.317l-1.519 2.193c-196.725 39.297-344.652 205.427-355.731 407.997l-0.049 1.126zM592.491 15.062c82.611 113.995 134.978 254.747 142.808 407.267l0.076 1.856h217.183c-11.587-204.871-161.525-371.563-357.321-408.691l-2.746-0.433z" />
<glyph unicode="&#xf0d1;" glyph-name="icon-truck" horiz-adv-x="1231" d="M1217.008 532.402l-155.152 155.152c-8.416 8.426-20.044 13.642-32.89 13.653h-160.119v212.247c-0.345 25.566-20.979 46.201-46.513 46.545h-775.791c-25.566-0.345-46.201-20.979-46.545-46.513v-672.149c0-25.706 20.839-46.545 46.545-46.545v0h77.576c-13.614-23.954-21.662-52.611-21.721-83.144v-0.017c0-96.999 78.633-175.632 175.632-175.632s175.632 78.633 175.632 175.632v0c0.014 0.818 0.021 1.782 0.021 2.749 0 29.342-7.12 57.021-19.726 81.403l0.466-0.991h363.675c-13.614-23.954-21.662-52.611-21.721-83.144v-0.017c5.679-92.738 82.278-165.798 175.942-165.798s170.263 73.061 175.917 165.301l0.024 0.497c-0.372 30.545-8.375 59.142-22.185 84.075l0.464-0.914h78.196c0.186-0.003 0.405-0.004 0.625-0.004 25.364 0 45.925 20.561 45.925 45.925 0 0.22-0.002 0.439-0.005 0.658v-0.033 258.172c-0.187 12.932-5.62 24.559-14.259 32.878l-0.015 0.014zM93.091 866.909h682.667v-579.025h-682.667zM361.813 111.632c-0.352-45.318-37.171-81.92-82.538-81.92-45.586 0-82.541 36.955-82.541 82.541s36.953 82.539 82.538 82.541v0c0.001 0 0.002 0 0.002 0 45.586 0 82.541-36.955 82.541-82.541 0-0.218-0.001-0.436-0.003-0.654v0.033zM1034.55 111.632c0-45.929-37.233-83.161-83.161-83.161s-83.161 37.233-83.161 83.161c0 45.929 37.233 83.161 83.161 83.161v0c45.929 0 83.161-37.233 83.161-83.161v0zM1137.571 287.884h-268.722v320.233h140.878l127.845-127.845z" />
<glyph unicode="&#xf0e0;" glyph-name="icon-envelope" horiz-adv-x="1252" d="M1080.958 960h-910.083c-94.372 0-170.875-76.503-170.875-170.875v0-682.875c0 0 0-0.001 0-0.001 0-94.026 76.223-170.249 170.249-170.249 0.22 0 0.44 0 0.66 0.001h910.049c0.186-0.001 0.406-0.001 0.626-0.001 94.026 0 170.249 76.223 170.249 170.249 0 0 0 0.001 0 0.001v0 682.875c0 94.372-76.503 170.875-170.875 170.875v0zM170.875 846.083h910.083c22.207-0.028 41.401-12.902 50.552-31.589l0.147-0.332-505.741-354.895-505.741 354.895c9.298 19.019 28.492 31.893 50.695 31.922h0.004zM1080.958 49.291h-910.083c-31.457 0-56.958 25.501-56.958 56.958v0 573.966l479.452-336.117c8.856-5.725 19.679-9.129 31.296-9.129s22.44 3.403 31.525 9.267l-0.229-0.138 479.452 336.117v-573.966c0-0.016 0-0.036 0-0.055 0-30.577-24.093-55.526-54.331-56.899l-0.124-0.004z" />
<glyph unicode="&#xf0e2;" glyph-name="icon-undo" horiz-adv-x="1172" d="M93.73 522.984c2.825-1.393 6.15-2.208 9.666-2.208s6.841 0.815 9.797 2.266l-0.131-0.058 190.389 85.529c7.049 4.409 11.668 12.13 11.668 20.929 0 13.588-11.016 24.604-24.604 24.604-2.489 0-4.891-0.37-7.156-1.057l0.174 0.045-133.565-58.581c62.692 189.989 238.611 324.686 445.99 324.686 218.096 0 401.396-148.978 453.687-350.721l0.716-3.256c2.367-10.632 11.719-18.463 22.899-18.463 2.276 0 4.476 0.324 6.557 0.93l-0.166-0.041c10.638 2.87 18.338 12.432 18.338 23.793 0 2.161-0.279 4.258-0.802 6.255l0.038-0.171c-62.567 222.12-263.371 382.213-501.566 382.213-226.768 0-419.646-145.1-490.855-347.521l-1.117-3.644-58.581 140.595c-3.499 9.603-12.55 16.336-23.173 16.336-2.602 0-5.109-0.404-7.463-1.152l0.174 0.048c-9.289-3.46-15.786-12.253-15.786-22.563 0-2.613 0.417-5.128 1.189-7.483l-0.048 0.17s0 0 0 0l80.256-198.005c2.221-6.346 7.128-11.253 13.322-13.427l0.152-0.046zM1171.625 162.709v0l-77.913 195.076c-2.608 6.103-7.371 10.865-13.31 13.411l-0.164 0.063c-2.851 1.25-6.173 1.978-9.666 1.978s-6.815-0.728-9.825-2.040l0.159 0.062-190.975-86.7c-8.776-3.706-14.823-12.241-14.823-22.188 0-3.413 0.712-6.66 1.995-9.6l-0.060 0.155c3.973-9.005 12.823-15.177 23.114-15.177 3.276 0 6.405 0.625 9.276 1.763l-0.17-0.060 133.565 58.581c-62.77-189.855-238.623-324.429-445.907-324.429-218.215 0-401.597 149.141-453.773 351.052l-0.714 3.254c-3.126 10.609-12.777 18.221-24.207 18.221-2.011 0-3.966-0.236-5.841-0.681l0.171 0.034c-10.609-3.126-18.221-12.777-18.221-24.207 0-2.011 0.236-3.966 0.681-5.841l-0.034 0.171c60.796-224.739 262.884-387.362 502.954-387.362 227.81 0 421.418 146.436 491.829 350.315l1.098 3.656 58.581-140.009c3.464-9.451 12.382-16.073 22.847-16.073 13.406 0 24.274 10.868 24.274 24.274 0 2.941-0.523 5.761-1.482 8.37l0.054-0.168z" />
<glyph unicode="&#xf104;" glyph-name="icon-angle-left" horiz-adv-x="548" d="M537.243-53.522c6.455 6.463 10.447 15.387 10.447 25.243s-3.992 18.78-10.447 25.243v0l-451.036 451.036 451.036 451.036c5.94 6.362 9.587 14.931 9.587 24.352 0 19.728-15.993 35.721-35.721 35.721-9.421 0-17.99-3.647-24.373-9.606l0.021 0.019-476.279-476.279c-6.455-6.463-10.447-15.387-10.447-25.243s3.992-18.78 10.447-25.243v0l476.279-476.279c6.463-6.455 15.387-10.447 25.243-10.447s18.78 3.992 25.243 10.447v0z" />
<glyph unicode="&#xf105;" glyph-name="icon-angle-right" horiz-adv-x="548" d="M10.478 949.522c-6.455-6.463-10.447-15.387-10.447-25.243s3.992-18.78 10.447-25.243v0l451.036-451.036-451.036-451.036c-5.94-6.362-9.587-14.931-9.587-24.352 0-19.728 15.993-35.721 35.721-35.721 9.421 0 17.99 3.647 24.373 9.606l-0.021-0.019 476.279 476.279c6.455 6.463 10.447 15.387 10.447 25.243s-3.992 18.78-10.447 25.243v0l-476.279 476.279c-6.463 6.455-15.387 10.447-25.243 10.447s-18.78-3.992-25.243-10.447v0z" />
<glyph unicode="&#xf106;" glyph-name="icon-angle-up" horiz-adv-x="1914" d="M19.59-44.41c12.082-12.068 28.766-19.531 47.193-19.531s35.111 7.463 47.194 19.531l843.241 843.241 843.242-843.242c11.894-11.105 27.914-17.924 45.527-17.924 36.883 0 66.783 29.9 66.783 66.783 0 17.613-6.818 33.634-17.96 45.566l0.036-0.039-890.435 890.435c-12.082 12.068-28.766 19.531-47.193 19.531s-35.111-7.463-47.194-19.531l-890.434-890.434c-12.068-12.082-19.531-28.766-19.531-47.193s7.463-35.111 19.531-47.194l-0.001 0.001z" />
<glyph unicode="&#xf107;" glyph-name="icon-angle-down" horiz-adv-x="1914" d="M1894.845 940.41c-12.082 12.068-28.766 19.531-47.193 19.531s-35.111-7.463-47.194-19.531l-843.241-843.241-843.242 843.242c-11.894 11.105-27.914 17.924-45.527 17.924-36.883 0-66.783-29.9-66.783-66.783 0-17.613 6.818-33.634 17.96-45.566l-0.036 0.039 890.435-890.435c12.082-12.068 28.766-19.531 47.193-19.531s35.111 7.463 47.194 19.531l890.434 890.434c12.068 12.082 19.531 28.766 19.531 47.193s-7.463 35.111-19.531 47.194l0.001-0.001z" />
<glyph unicode="&#xf111;" glyph-name="icon-circle" d="M512 960c-282.77 0-512-229.23-512-512s229.23-512 512-512c282.77 0 512 229.23 512 512v0c-0.278 282.658-229.342 511.722-511.973 512h-0.027zM512-15.238c-255.839 0-463.238 207.399-463.238 463.238s207.399 463.238 463.238 463.238c255.839 0 463.238-207.399 463.238-463.238v0c-0.277-255.728-207.51-462.961-463.212-463.238h-0.026z" />
<glyph unicode="&#xf16d;" glyph-name="icon-instagram" d="M512 960c139.264 0 156.672 0 210.944-3.072 186.368-8.704 289.792-112.128 297.984-297.984 3.072-54.272 3.072-71.68 3.072-210.944s-3.072-156.672-3.072-210.944c-8.192-186.368-112.128-289.28-297.984-297.984-54.272-3.072-71.68-3.072-210.944-3.072s-156.672 0-210.944 3.072c-186.368 8.704-289.28 112.128-297.984 297.984-3.072 54.272-3.072 71.68-3.072 210.944s0 156.672 3.072 210.944c8.704 186.368 112.128 289.28 297.984 297.984 54.272 3.072 71.68 3.072 210.944 3.072zM512 711.168c-145.344 0-263.168-117.824-263.168-263.168s117.824-263.168 263.168-263.168c145.344 0 263.168 117.824 263.168 263.168v0c0 145.344-117.824 263.168-263.168 263.168v0zM512 277.504v0c94.162 0 170.496 76.334 170.496 170.496v0c0 94.162-76.334 170.496-170.496 170.496s-170.496-76.334-170.496-170.496c0-94.162 76.334-170.496 170.496-170.496zM785.408 782.848c-33.932 0-61.44-27.508-61.44-61.44s27.508-61.44 61.44-61.44c33.932 0 61.44 27.508 61.44 61.44v0c0 33.932-27.508 61.44-61.44 61.44v0z" />
<glyph unicode="&#xf1ce;" glyph-name="icon-circle-notch" d="M1024 448c0-282.77-229.23-512-512-512s-512 229.23-512 512c0 282.77 229.23 512 512 512s512-229.23 512-512z" />
<glyph unicode="&#xf1d8;" glyph-name="icon-paper-plane" d="M1024 908.8c0.347 2.078 0.546 4.472 0.546 6.912s-0.199 4.834-0.58 7.167l0.034-0.255v4.608c-2.597 5.943-6.043 11.030-10.253 15.373l0.013-0.013c-4.33 4.197-9.417 7.643-15.032 10.111l-0.328 0.129h-4.608c-2.078 0.347-4.472 0.546-6.912 0.546s-4.834-0.199-7.167-0.58l0.255 0.034h-7.168c-5.702-0.113-11.147-1.041-16.278-2.671l0.406 0.111-921.6-322.56c-16.968-8.576-28.399-25.874-28.399-45.843 0-18.108 9.4-34.020 23.587-43.123l0.204-0.123 396.288-175.616 176.128-396.288c8.104-18.235 26.057-30.72 46.926-30.72 0.063 0 0.125 0 0.188 0h-0.010c21.64 0.841 39.767 14.99 46.484 34.456l0.108 0.36 322.56 921.6c2.205 4.766 3.825 10.295 4.578 16.096l0.030 0.288s0 0 0 0zM775.168 784.384l-320.512-320.512-262.656 116.736zM644.608 128l-116.736 262.656 320.512 320.512z" />
<glyph unicode="&#xf1f8;" glyph-name="icon-trash" horiz-adv-x="836" d="M833.751 731.283l-22.579 67.737c-9.143 24.602-32.422 41.813-59.721 41.813-0.025 0-0.050 0-0.076 0h-190.245v63.138c0 30.944-25.085 56.029-56.029 56.029v0h-173.942c-30.944 0-56.029-25.085-56.029-56.029v0-61.883h-191.503c-0.021 0-0.046 0-0.072 0-27.299 0-50.578-17.211-59.578-41.374l-0.143-0.439-21.325-68.991c-1.617-4.775-2.55-10.275-2.55-15.992 0-11.263 3.62-21.68 9.761-30.151l-0.103 0.149c9.387-12.738 24.331-20.91 41.184-20.91 0.221 0 0.442 0.001 0.663 0.004h23.8l50.176-643.084c5.024-47.075 44.44-83.446 92.388-83.626h409.367c47.79 0.401 86.981 36.692 91.953 83.217l0.035 0.409 53.102 643.084h13.38c0.187-0.002 0.408-0.004 0.629-0.004 16.853 0 31.797 8.172 41.085 20.77l0.099 0.14c5.69 8.158 9.092 18.281 9.092 29.198 0 6.016-1.033 11.79-2.931 17.156l0.111-0.36zM334.504 900.207h167.252v-58.12h-167.252zM660.645 25.898c-1.342-16.669-15.2-29.687-32.098-29.687-0.034 0-0.069 0-0.103 0h-409.762c-0.039 0-0.085 0-0.132 0-16.982 0-30.932 12.979-32.473 29.559l-0.010 0.129-51.43 638.484h576.183zM63.556 724.175l20.070 55.611c0.427 0.213 0.931 0.337 1.463 0.337s1.036-0.124 1.483-0.346l-0.020 0.009h666.081c0.427 0.213 0.931 0.337 1.463 0.337s1.036-0.124 1.483-0.346l-0.020 0.009 18.398-55.611zM564.893 27.989v0c0.014 0 0.030 0 0.046 0 16.038 0 29.148 12.542 30.055 28.353l0.004 0.080 28.015 541.060c-0.956 15.853-14.046 28.347-30.054 28.347-14.973 0-27.393-10.93-29.715-25.247l-0.023-0.173-28.433-540.642c-0.016-0.375-0.026-0.815-0.026-1.257 0-16.72 13.443-30.3 30.11-30.521h0.021zM270.948 27.989v0c15.913 0.886 28.482 14.006 28.482 30.062 0 0.604-0.018 1.203-0.053 1.798l0.004-0.082-28.015 540.642c0.022 0.431 0.035 0.936 0.035 1.445 0 16.627-13.479 30.105-30.105 30.105s-30.105-13.479-30.105-30.105c0-1.691 0.139-3.35 0.407-4.965l-0.024 0.175 29.687-540.642c0.691-15.847 13.706-28.433 29.661-28.433 0.009 0 0.019 0 0.028 0h-0.001zM418.13 27.989c16.627 0 30.105 13.479 30.105 30.105v0 540.642c0 16.627-13.479 30.105-30.105 30.105s-30.105-13.479-30.105-30.105v0-540.642c0-16.627 13.479-30.105 30.105-30.105v0z" />
<glyph unicode="&#xf290;" glyph-name="icon-shopping-bag" horiz-adv-x="925" d="M693.767 662.605v66.139c0.261 3.994 0.409 8.659 0.409 13.359 0 120.567-97.739 218.305-218.305 218.305-4.7 0-9.365-0.149-13.992-0.441l0.632 0.032c-3.994 0.261-8.659 0.409-13.359 0.409-120.567 0-218.305-97.739-218.305-218.305 0-4.7 0.149-9.365 0.441-13.992l-0.032 0.632v-66.139h-185.005c-24.529-1.266-43.939-21.463-43.939-46.193 0-0.020 0-0.041 0-0.061v0.003-515.238c0-91.191 73.925-165.117 165.117-165.117h592.477c91.191 0 165.117 73.925 165.117 165.117v0 517.55c0 0.017 0 0.037 0 0.058 0 24.73-19.41 44.927-43.826 46.189l-0.113 0.005zM297.395 728.744c-0.044 1.399-0.069 3.043-0.069 4.694 0 88.637 71.854 160.491 160.491 160.491 1.651 0 3.295-0.025 4.934-0.074l-0.24 0.006c1.399 0.044 3.043 0.069 4.694 0.069 88.637 0 160.491-71.854 160.491-160.491 0-1.651-0.025-3.295-0.074-4.934l0.006 0.24v-66.139h-330.233zM660.929 480.838c-0.137-0.001-0.299-0.002-0.46-0.002-27.587 0-49.951 22.364-49.951 49.951s22.364 49.951 49.951 49.951c27.587 0 49.951-22.364 49.951-49.951 0-0.162-0.001-0.324-0.002-0.485v0.025c0-27.332-22.157-49.489-49.489-49.489v0zM264.094 480.838c-27.586 0.001-49.949 22.365-49.949 49.951s22.364 49.951 49.951 49.951c27.587 0 49.951-22.364 49.951-49.951 0-0.163-0.001-0.325-0.002-0.487v0.025c0-0.001 0-0.001 0-0.002 0-27.332-22.157-49.489-49.489-49.489-0.163 0-0.325 0.001-0.487 0.002h0.025z" />
<glyph unicode="&#xf3a5;" glyph-name="icon-gem" horiz-adv-x="1011" d="M1005.653 516.267l-174.507 197.12c-3.694 4.118-8.999 6.727-14.916 6.826h-621.671c-0.028 0-0.062 0-0.095 0-6.056 0-11.499-2.629-15.248-6.808l-174.097-197.139c-3.104-3.68-4.99-8.476-4.99-13.711 0-2.902 0.579-5.668 1.629-8.19l-0.052 0.141c1.263-2.688 2.988-4.96 5.096-6.806l0.024-0.020 483.413-544.853c3.694-4.118 8.999-6.727 14.916-6.826h0.018c0.016 0 0.036 0 0.055 0 5.937 0 11.258 2.636 14.857 6.802l0.021 0.025 483.413 544.853c2.254 1.764 4.008 4.067 5.081 6.718l0.039 0.109c1.222 2.516 1.937 5.474 1.937 8.598 0 5.048-1.865 9.66-4.944 13.185l0.020-0.024zM780.8 680.107l-89.173-143.36-142.080 143.36zM649.387 522.667h-288l143.787 145.067zM461.227 680.107l-142.507-143.36-88.747 143.36zM191.147 666.453l89.173-143.787h-215.893zM63.147 482.987h238.080l162.987-450.56zM545.28 33.28l113.92 308.48c0.87 2.163 1.374 4.67 1.374 7.295 0 8.501-5.29 15.767-12.757 18.685l-0.136 0.047c-1.986 0.69-4.276 1.089-6.658 1.089-8.709 0-16.174-5.325-19.317-12.897l-0.051-0.139-117.76-319.573-160.427 446.72h602.453zM728.32 522.667l90.88 143.787 128-143.787zM505.173 817.067c11.075 0 20.053 8.978 20.053 20.053v102.827c0 11.075-8.978 20.053-20.053 20.053s-20.053-8.978-20.053-20.053v0-102.827c0-11.075 8.978-20.053 20.053-20.053v0zM600.32 773.973c5.515 0.057 10.487 2.331 14.078 5.971l0.002 0.002 72.96 72.533c3.595 3.686 5.813 8.731 5.813 14.293s-2.218 10.607-5.817 14.298l0.004-0.004c-3.619 3.57-8.592 5.774-14.080 5.774s-10.461-2.205-14.082-5.777l-72.958-72.958c-3.57-3.619-5.775-8.592-5.775-14.081 0-11.006 8.866-19.94 19.845-20.052h0.011zM392.107 779.947c3.571-3.674 8.559-5.953 14.080-5.953s10.509 2.28 14.076 5.949l0.004 0.005c3.786 3.517 6.147 8.523 6.147 14.080s-2.361 10.563-6.135 14.069l-0.012 0.011-72.533 72.96c-3.658 3.658-8.711 5.92-14.293 5.92-11.164 0-20.214-9.050-20.214-20.214 0-5.582 2.263-10.635 5.92-14.293v0zM668.16 403.2c11.075 0 20.053 8.978 20.053 20.053s-8.978 20.053-20.053 20.053c-11.075 0-20.053-8.978-20.053-20.053v0c0-11.075 8.978-20.053 20.053-20.053v0z" />
<glyph unicode="&#xf3c5;" glyph-name="icon-map-marker-alt" horiz-adv-x="742" d="M370.88 960c-204.831 0-370.88-166.049-370.88-370.88v0c0-253.682 333.792-626.417 346.031-641.993 6.137-6.822 14.994-11.092 24.849-11.092s18.712 4.271 24.822 11.062l0.027 0.030c14.093 15.577 346.031 388.311 346.031 641.993 0 204.831-166.049 370.88-370.88 370.88v0zM370.88 20.561c-111.264 132.775-304.122 394.246-304.122 568.559 0 167.962 136.16 304.122 304.122 304.122s304.122-136.16 304.122-304.122v0c0-174.314-192.858-435.784-304.122-568.559zM370.88 774.56c-102.416 0-185.44-83.024-185.44-185.44s83.024-185.44 185.44-185.44c102.416 0 185.44 83.024 185.44 185.44v0c0 102.416-83.024 185.44-185.44 185.44v0zM370.88 468.213c-66.158 0.003-119.789 53.636-119.789 119.794 0 66.161 53.634 119.794 119.794 119.794 65.769 0 119.16-53.001 119.789-118.622v-0.060c0-66.161-53.634-119.794-119.794-119.794v0z" />
<glyph unicode="&#xf406;" glyph-name="icon-user-alt" d="M1018.027 594.347c-3.69 3.415-8.637 5.519-14.074 5.547h-0.006c-35.243 0.003-69.136 5.78-100.786 16.437l2.226-0.65c0.101 1.531 0.159 3.319 0.159 5.12s-0.058 3.589-0.172 5.362l0.012-0.242c0 0.059 0 0.13 0 0.2 0 32.274-21.849 59.444-51.563 67.526l-0.49 0.114c0.312 1.86 0.491 4.002 0.491 6.187s-0.178 4.327-0.521 6.414l0.031-0.227c-0.389 32.928-27.173 59.47-60.156 59.47-21.253 0-39.932-11.020-50.634-27.659l-0.144-0.239c-33.135 48.566-52.908 108.545-52.908 173.143 0 0.33 0.001 0.659 0.002 0.988v-0.051 28.16c0 0.048 0.001 0.105 0.001 0.162 0 5.474-2.291 10.413-5.966 13.911l-0.008 0.008c-2.985 3.118-6.954 5.271-11.408 5.959l-0.112 0.014h-320c-5.515-0.057-10.487-2.331-14.078-5.971l-0.002-0.002c-3.683-3.505-5.974-8.444-5.974-13.918 0-0.057 0-0.114 0.001-0.171v0.009-28.16c0.001-0.278 0.001-0.608 0.001-0.937 0-64.598-19.773-124.577-53.598-174.215l0.69 1.073c-10.844 16.889-29.529 27.919-50.791 27.919-33.225 0-60.16-26.935-60.16-60.16 0-0.515 0.006-1.029 0.019-1.542l-0.002 0.076c-0.2-1.919-0.314-4.146-0.314-6.4s0.114-4.481 0.337-6.676l-0.023 0.276c-29.748-8.33-51.201-35.201-51.201-67.083 0-0.116 0-0.232 0.001-0.348v0.018c-0.101-1.531-0.159-3.319-0.159-5.12s0.058-3.589 0.172-5.362l-0.012 0.242c-29.423-10.006-63.316-15.783-98.558-15.787h-0.002c-5.443-0.028-10.39-2.132-14.094-5.559l0.014 0.013c-2.634-3.386-4.234-7.69-4.267-12.366v-0.008c-0.001-0.458-0.002-1-0.002-1.543 0-83.168 16.781-162.417 47.142-234.545l-1.487 3.981c3.383-7.194 10.474-12.136 18.743-12.373l0.030-0.001c1.088-0.302 2.337-0.475 3.627-0.475s2.539 0.173 3.725 0.498l-0.099-0.023c7.73 2.753 13.164 10.008 13.164 18.532 0 3.198-0.765 6.218-2.122 8.886l0.051-0.112c-24.146 58.499-38.754 126.344-40.099 197.434l-0.008 0.539c34.639 1.923 67.087 8.646 97.56 19.525l-2.414-0.752c7.514-8.143 16.792-14.541 27.236-18.603l0.497-0.17c-4.243-7.917-7.007-17.22-7.669-27.099l-0.011-0.208c0-0.018 0-0.040 0-0.062 0-30.39 19.374-56.256 46.445-65.919l0.489-0.152c-4.351-9.538-6.887-20.687-6.887-32.428 0-44.065 35.722-79.787 79.787-79.787 0.171 0 0.343 0.001 0.514 0.002h-0.026c9.944 0.839 19.076 3.584 27.275 7.868l-0.395-0.188c25.345-34.221 63.716-57.552 107.646-62.651l0.727-0.069c8.999-46.895 49.698-81.846 98.56-81.846s89.561 34.951 98.459 81.217l0.101 0.629c44.361 5.3 82.425 28.61 107.219 62.291l0.301 0.429c8.23-3.087 17.738-4.95 27.659-5.119l0.074-0.001c0.145-0.001 0.316-0.001 0.487-0.001 44.065 0 79.787 35.722 79.787 79.787 0 11.741-2.536 22.89-7.091 32.929l0.203-0.501c26.795 9.522 45.844 34.189 46.93 63.447l0.004 0.127c-0.073 9.576-2.107 18.659-5.718 26.892l0.172-0.439c10.942 4.232 20.219 10.631 27.688 18.723l0.045 0.050c28.059-10.128 60.508-16.85 94.248-18.733l0.899-0.040c-7.645-203.971-120.543-379.957-285.684-475.968l-2.743-1.472-183.040-103.68-183.040 104.533c-61.737 35.16-114.118 78.974-157.584 130.549l-0.71 0.865c-3.627 4.441-9.103 7.254-15.235 7.254-0.044 0-0.088 0-0.131 0h0.007c-4.885-0.061-9.348-1.823-12.833-4.72l0.033 0.027c-3.866-3.381-6.414-8.185-6.823-13.586l-0.004-0.067c-0.112-0.762-0.176-1.642-0.176-2.537 0-4.585 1.682-8.777 4.463-11.993l-0.020 0.023c23.644-28.213 48.776-53.48 75.895-76.478l0.905-0.749c26.706-22.623 56.433-43.512 87.968-61.607l2.912-1.54 193.28-110.080c2.825-1.614 6.208-2.565 9.813-2.565s6.989 0.951 9.912 2.617l-0.099-0.052 193.28 110.080c48.728 28.164 90.758 60.549 128.011 97.718l-0.011-0.011c36.865 37.306 69.099 79.321 95.683 125.027l1.597 2.973c52.554 87.382 83.992 192.671 84.905 305.235l0.002 0.258c0 0.015 0 0.033 0 0.050 0 5.643-2.282 10.753-5.974 14.457l0.001-0.001zM796.16 726.187c11.075 0 20.053-8.978 20.053-20.053s-8.978-20.053-20.053-20.053v0c-0.102-0.002-0.223-0.003-0.344-0.003-3.49 0-6.757 0.952-9.556 2.611l0.087-0.048-2.987 2.56-5.12 5.12c-0.307 1.475-0.483 3.17-0.483 4.907s0.176 3.431 0.511 5.069l-0.028-0.162c0 0.034 0 0.074 0 0.114 0 10.324 7.801 18.825 17.83 19.932l0.090 0.008zM227.84 726.187c0.034 0 0.074 0 0.114 0 11.075 0 20.053-8.978 20.053-20.053 0-0.752-0.041-1.494-0.122-2.224l0.008 0.090c0.307-1.475 0.483-3.17 0.483-4.907s-0.176-3.431-0.511-5.069l0.028 0.162-5.12-5.12-2.987-2.56c-2.712-1.611-5.98-2.563-9.469-2.563-0.121 0-0.242 0.001-0.362 0.003h0.018c-11.075 0-20.053 8.978-20.053 20.053s8.978 20.053 20.053 20.053v0zM178.347 598.187c-11.978 3.913-20.48 14.985-20.48 28.043 0 0.041 0 0.082 0 0.123v-0.006c-0.099 0.959-0.156 2.073-0.156 3.2s0.057 2.241 0.168 3.338l-0.011-0.138c3.026 13.54 14.94 23.51 29.182 23.51 3.137 0 6.162-0.484 9.003-1.381l-0.212 0.058c12.419-3.64 21.335-14.93 21.335-28.302 0-0.1 0-0.2-0.001-0.3v0.015c0.382-1.495 0.602-3.212 0.602-4.98 0-0.952-0.064-1.889-0.187-2.807l0.012 0.107c-2.689-14.065-14.812-24.576-29.422-24.746h-0.018c-3.71 0.62-7.018 1.969-9.905 3.898l0.092-0.058zM197.973 533.333c0.002 16.729 13.564 30.29 30.293 30.29 16.731 0 30.293-13.563 30.293-30.293s-13.563-30.293-30.293-30.293c-0.15 0-0.3 0.001-0.449 0.003h0.023c-16.546 0.24-29.867 13.71-29.867 30.29 0 0.001 0 0.002 0 0.003v0zM278.187 395.093c-0.127-0.001-0.277-0.002-0.427-0.002-22.15 0-40.107 17.956-40.107 40.107s17.956 40.107 40.107 40.107c22.15 0 40.105-17.955 40.107-40.104v0c-0.474-21.635-18.009-39.020-39.658-39.253h-0.022zM512 256c-33.225 0-60.16 26.935-60.16 60.16s26.935 60.16 60.16 60.16c33.225 0 60.16-26.935 60.16-60.16v0c0-33.225-26.935-60.16-60.16-60.16v0zM666.027 436.053c0-0.041 0-0.090 0-0.138 0-19.875 7.267-38.052 19.288-52.020l-0.088 0.105c-18.112-23.847-44.747-40.407-75.291-45.143l-0.656-0.084c-10.574 44.659-50.106 77.376-97.28 77.376s-86.706-32.717-97.144-76.698l-0.136-0.678c-31.443 4.162-58.376 20.714-76.161 44.504l-0.212 0.296c12.188 13.824 19.628 32.088 19.628 52.089 0 0.137 0 0.275-0.001 0.412v-0.021c-0.099 38.017-26.63 69.809-62.181 77.976l-0.539 0.104c1.852 5.672 3.075 12.231 3.407 19.024l0.007 0.176c0.001 0.109 0.001 0.237 0.001 0.365 0 30.072-18.97 55.714-45.597 65.61l-0.484 0.158c3.44 7.795 5.474 16.877 5.547 26.426v0.027c0.065 1.219 0.102 2.647 0.102 4.083 0 6.727-0.815 13.264-2.352 19.516l0.116-0.559c2.56 2.987 18.773 17.067 23.040 22.613 41.914 45.724 72.092 102.867 85.356 166.227l0.404 2.306h57.173c0.877-0.136 1.888-0.213 2.917-0.213 11.075 0 20.053 8.978 20.053 20.053s-8.978 20.053-20.053 20.053c-1.029 0-2.041-0.078-3.028-0.227l0.111 0.014h-51.627c0 10.667 0 40.107 0 40.107h279.893s0-29.44 0-40.107h-48.213c-0.877 0.136-1.888 0.213-2.917 0.213-11.075 0-20.053-8.978-20.053-20.053s8.978-20.053 20.053-20.053c1.029 0 2.041 0.078 3.028 0.227l-0.111-0.014h57.173c13.792-66.605 44.601-124.52 87.671-170.889l-0.204 0.222c4.267-5.547 20.48-19.627 23.467-22.613-2.602-6.837-4.157-14.74-4.266-22.993v-0.047c0.073-9.576 2.107-18.659 5.718-26.892l-0.172 0.439c-26.569-9.843-45.311-34.637-46.078-63.908l-0.002-0.092c-0.001-0.147-0.002-0.321-0.002-0.495 0-6.955 0.935-13.692 2.686-20.091l-0.124 0.533c-35.451-8.537-61.452-39.788-61.866-77.181v-0.046zM745.813 395.947c-22.15 0-40.107 17.956-40.107 40.107s17.956 40.107 40.107 40.107c22.15 0 40.107-17.956 40.107-40.107v0c0-22.15-17.956-40.107-40.107-40.107v0zM796.16 503.893c-0.127-0.002-0.277-0.003-0.427-0.003-16.731 0-30.293 13.563-30.293 30.293s13.563 30.293 30.293 30.293c16.729 0 30.292-13.561 30.293-30.29v0c0-0.001 0-0.002 0-0.003 0-16.581-13.321-30.050-29.844-30.29h-0.023zM845.653 597.76c-1.475-0.307-3.17-0.483-4.907-0.483s-3.431 0.176-5.069 0.511l0.162-0.028c-0.189-0.004-0.412-0.007-0.635-0.007-13.377 0-24.73 8.671-28.743 20.699l-0.062 0.214c-0.1 0.769-0.157 1.658-0.157 2.56s0.057 1.791 0.168 2.664l-0.011-0.104c0 16.495 13.372 29.867 29.867 29.867v0c0.079 0.001 0.173 0.001 0.267 0.001 14.228 0 26.132-9.948 29.135-23.268l0.038-0.2c0.099-0.959 0.156-2.073 0.156-3.2s-0.057-2.241-0.168-3.338l0.011 0.138c-0.808-12.141-8.864-22.209-19.846-25.965l-0.207-0.062zM121.6 285.44c-3.457 5.908-9.771 9.813-16.997 9.813-0.024 0-0.049 0-0.073 0h0.004c-3.794-0.141-7.306-1.233-10.34-3.042l0.1 0.055c-5.8-3.583-9.608-9.906-9.608-17.118 0-3.758 1.034-7.274 2.832-10.28l-0.051 0.091c3.457-5.908 9.771-9.813 16.997-9.813 0.024 0 0.049 0 0.073 0h-0.004c0.173-0.006 0.376-0.010 0.581-0.010 3.61 0 6.958 1.121 9.716 3.034l-0.056-0.037c5.971 3.333 9.943 9.613 9.943 16.821 0 3.9-1.163 7.529-3.161 10.558l0.045-0.072zM532.053 860.16c0-11.075-8.978-20.053-20.053-20.053s-20.053 8.978-20.053 20.053c0 11.075 8.978 20.053 20.053 20.053s20.053-8.978 20.053-20.053z" />
<glyph unicode="&#xf52c;" glyph-name="icon-equals" horiz-adv-x="2663" d="M2560.666 141.066h-2458.133c-56.628 0-102.533-45.906-102.533-102.533s45.906-102.533 102.533-102.533v0h2458.133c56.628 0 102.533 45.906 102.533 102.533s-45.906 102.533-102.533 102.533v0zM102.533 754.934h2458.133c56.628 0 102.533 45.906 102.533 102.533s-45.906 102.533-102.533 102.533v0h-2458.133c-56.628 0-102.533-45.906-102.533-102.533s45.906-102.533 102.533-102.533v0z" />
<glyph unicode="&#xf662;" glyph-name="icon-funnel-dollar" horiz-adv-x="1128" d="M1123.242 932.934c-7.465 16.1-23.49 27.067-42.076 27.067-0.075 0-0.151 0-0.226-0.001h-1034.138c-0.064 0-0.139 0-0.215 0-18.586 0-34.611-10.966-41.957-26.781l-0.119-0.285c-2.804-5.749-4.443-12.508-4.443-19.649 0-11.495 4.246-21.997 11.255-30.026l-0.046 0.054 402.608-476.476v-320.846c0-0.054 0-0.119 0-0.183 0-18.148 10.455-33.853 25.67-41.423l0.269-0.121 206.943-103.753c5.584-2.854 12.181-4.526 19.168-4.526 0.398 0 0.794 0.005 1.189 0.016l-0.058-0.001c0.168-0.002 0.366-0.003 0.564-0.003 25.536 0 46.238 20.701 46.238 46.238 0 0.001 0 0.002 0 0.004v0 424.599l402.608 476.476c6.963 7.974 11.209 18.477 11.209 29.972 0 7.142-1.639 13.901-4.562 19.921l0.119-0.272zM631.542 452.511c-6.439-7.621-10.585-17.366-11.27-28.052l-0.007-0.142v-366.52l-112.775 56.388v310.132c-0.692 10.828-4.839 20.572-11.337 28.266l0.059-0.072-349.040 414.449h833.41z" />
<glyph unicode="&#xf879;" glyph-name="icon-phone-alt" horiz-adv-x="1022" d="M988.743 309.525c-21.769 25.694-52.428 43.267-87.175 47.953l-0.713 0.079c-45.216 6.363-85.884 16.901-124.581 31.465l3.99-1.317c-14.718 5.843-31.771 9.23-49.615 9.23-10.3 0-20.336-1.129-29.992-3.269l0.917 0.171c-27.323-6.193-50.915-19.484-69.509-37.828l-33.198-33.198c-86.88 55.561-158.538 127.218-212.445 211.341l-1.654 2.759 33.725 33.725c18.083 18.476 31.192 41.888 37.119 68.027l0.182 0.955c1.97 8.739 3.099 18.775 3.099 29.075 0 17.844-3.388 34.897-9.555 50.551l0.325-0.936c-13.317 34.886-23.861 75.737-29.799 118.065l-0.349 3.036c-4.982 34.881-22.093 65.062-46.847 86.726l-0.163 0.14c-25.137 20.317-57.267 32.898-92.306 33.721l-0.181 0.003h-140.008c-0.011 0-0.024 0-0.037 0-20.495 0-39.981-4.325-57.593-12.112l0.911 0.36c-18.251-8.273-33.719-19.651-46.396-33.61l-0.103-0.115c-13.014-14.2-23.156-31.265-29.358-50.119l-0.279-0.979c-4.771-13.813-7.526-29.731-7.526-46.293 0-3.669 0.135-7.306 0.401-10.907l-0.029 0.481c18.506-160.047 73.155-304.392 155.548-428.753l-2.254 3.619c76.556-119.152 174.826-217.584 290.040-292.040l3.772-2.284c120.033-78.003 263.128-131.182 417.033-148.785l4.524-0.421h12.774c16.117 0.015 31.573 2.821 45.918 7.962l-0.952-0.298c19.774 6.453 36.82 16.409 51.241 29.251l-0.143-0.125c14.169 13.051 25.568 28.87 33.374 46.626l0.351 0.895c7.378 16.556 11.698 35.87 11.752 56.187v137.473c0.003 0.357 0.005 0.78 0.005 1.203 0 35.354-12.962 67.681-34.393 92.487l0.153-0.181zM928.447 216.527v-140.008c0.009-0.316 0.014-0.687 0.014-1.059 0-6.494-1.514-12.633-4.208-18.086l0.107 0.239c-2.608-6.264-6.427-11.557-11.198-15.802l-0.043-0.038c-4.476-4.348-9.958-7.686-16.062-9.629l-0.289-0.080c-5.161-1.628-11.097-2.566-17.251-2.566-0.402 0-0.804 0.004-1.204 0.012l0.060-0.001c-143.937 16.342-273.886 64.991-386.084 138.498l3.361-2.067c-107.823 69.352-196.867 158.397-264.15 262.79l-2.069 3.429c-71.603 109.096-120.136 239.473-135.569 379.815l-0.351 3.93c-0.597 2.842-0.939 6.108-0.939 9.453s0.342 6.611 0.993 9.764l-0.054-0.311c2.567 6.487 6.017 12.071 10.276 16.928l-0.056-0.065c4.234 4.49 9.332 8.114 15.034 10.615l0.295 0.116c5.213 2.587 11.353 4.102 17.847 4.102 0.373 0 0.744-0.005 1.114-0.015l-0.055 0.001h143.074c0.006 0 0.014 0 0.022 0 11.55 0 22.105-4.258 30.182-11.289l-0.056 0.047c8.35-6.936 14.119-16.725 15.809-27.855l0.031-0.249c7.307-52.997 19.64-100.745 36.779-146.134l-1.522 4.593c2.291-5.313 3.623-11.499 3.623-17.996 0-12.951-5.295-24.666-13.838-33.097l-0.005-0.005-59.273-57.741c-8.426-8.416-13.637-20.049-13.637-32.898 0-8.378 2.216-16.238 6.093-23.027l-0.12 0.228c71.943-124.989 172.911-225.958 294.062-295.858l3.838-2.042c6.561-3.757 14.421-5.973 22.799-5.973 12.849 0 24.481 5.212 32.898 13.637v0l59.273 59.273c6.258 5.817 14.024 10.098 22.645 12.192l0.349 0.072c3.978 1.216 8.55 1.916 13.285 1.916s9.308-0.7 13.618-2.003l-0.333 0.086c40.617-15.546 88.183-27.873 137.471-34.845l3.559-0.413c11.698-1.713 21.813-7.472 29.078-15.785l0.048-0.056c6.69-7.998 10.753-18.394 10.753-29.738 0-0.503-0.008-1.005-0.024-1.505l0.002 0.073z" />
</font>
</defs>
</svg>
