<?xml version="1.0" standalone="no"?>
<!DOCTYPE svg PUBLIC "-//W3C//DTD SVG 1.1//EN" "http://www.w3.org/Graphics/SVG/1.1/DTD/svg11.dtd" >
<svg xmlns="http://www.w3.org/2000/svg" xmlns:xlink="http://www.w3.org/1999/xlink" version="1.1">
<metadata></metadata>
<defs>
<font id="didot_htf06_medium" horiz-adv-x="1300" >
<font-face units-per-em="2048" ascent="1638" descent="-410" />
<missing-glyph horiz-adv-x="354" />
<glyph horiz-adv-x="0" />
<glyph unicode="&#xd;" horiz-adv-x="681" />
<glyph unicode=" "  horiz-adv-x="354" />
<glyph unicode="&#x09;" horiz-adv-x="354" />
<glyph unicode="&#xa0;" horiz-adv-x="354" />
<glyph unicode="!" horiz-adv-x="471" d="M102 1321q0 166 136 166q133 0 133 -166q0 -68 -55.5 -403.5t-55.5 -538.5q0 -4 -22.5 -4t-22.5 4q0 203 -56.5 538.5t-56.5 403.5zM115 100q0 51 36.5 89t86 38t84 -37t34.5 -90q0 -49 -34.5 -87t-84 -38t-86 38t-36.5 87z" />
<glyph unicode="&#x22;" horiz-adv-x="643" d="M106 1378q0 109 76 109q78 0 78 -109q0 -47 -9 -108.5t-23.5 -142t-20.5 -128.5l-2 -22q-4 -8 -21.5 -8t-17.5 8l-4 22q-4 29 -22.5 124.5t-26 151.5t-7.5 103zM385 1378q0 41 18.5 75t59.5 34t59.5 -34t18.5 -75q0 -47 -7.5 -103t-26 -151.5t-22.5 -124.5v-22 q-2 -8 -22.5 -8t-22.5 8l-2 22q-6 41 -21.5 127t-23.5 145.5t-8 106.5z" />
<glyph unicode="#" horiz-adv-x="925" d="M70 282.5q0 24.5 4 24.5h200l72 301h-180q-2 0 -2 24.5t2 24.5h194l80 304q2 2 12.5 2t21.5 -2.5t11 -4.5l-77 -299h219l80 304q2 2 12 2t21.5 -2.5t11.5 -4.5l-76 -299h209q4 0 4 -24.5t-4 -24.5h-223l-76 -301h209q4 0 4 -24.5t-4 -24.5h-224l-92 -346q0 -6 -37 0 q-8 2 -8 4l92 342h-223l-88 -346q-2 -2 -24.5 -1t-22.5 5l90 342h-184q-4 0 -4 24.5zM317 307h224l75 301h-221z" />
<glyph unicode="$" horiz-adv-x="1103" d="M102 283q0 70 38 112.5t85 42.5q51 0 86 -39t35 -94q0 -53 -38 -87t-38 -71q0 -102 160 -120v602q-291 119 -291 405q0 158 85 284t206 152v191q0 2 23.5 2t23.5 -2v-180q27 8 78 8q35 0 70 -6v178q0 2 22.5 2t22.5 -2v-186q111 -23 213 -122.5t102 -193.5 q0 -68 -40 -111.5t-87 -43.5q-49 0 -84 40.5t-35 94t37 86t37 69.5q0 31 -40 75t-103 58v-565q170 -68 248.5 -162.5t78.5 -248.5q0 -156 -92 -296.5t-235 -168.5v-191q0 -4 -22.5 -4t-22.5 4v178q-57 -8 -86 -8q-16 0 -62 4v-174q0 -4 -23.5 -4t-23.5 4v182 q-123 16 -225.5 109.5t-102.5 196.5zM270 1219q0 -160 160 -250v454q-160 -55 -160 -204zM477 16q8 0 27.5 -1t32.5 -1q31 1 88 9v526q-78 37 -148 63v-596zM477 946q91 -45 148 -63v551q-25 8 -68 8q-35 0 -80 -10v-486zM670 35q82 16 138 75.5t56 131.5q0 199 -194 290 v-497z" />
<glyph unicode="%" horiz-adv-x="1413" d="M82 991q0 168 128 318.5t306 150.5q98 0 160.5 -69.5t62.5 -188.5q0 -168 -127 -318.5t-305 -150.5q-100 0 -162.5 69.5t-62.5 188.5zM227 922q0 -76 20.5 -108t69.5 -32q66 0 111 37q74 63 124 206t50 247q0 76 -19.5 107.5t-68.5 31.5q-68 0 -113 -37 q-76 -63 -125 -205.5t-49 -246.5zM266 -23l844 1534q0 2 11.5 -4t21.5 -12l10 -8l-848 -1536q0 -2 -10 4t-19.5 13t-9.5 9zM678 240q0 168 127 318.5t303 150.5q100 0 162.5 -69.5t62.5 -188.5q0 -168 -128 -318.5t-306 -150.5q-98 0 -159.5 69.5t-61.5 188.5zM821 170 q0 -76 20.5 -107.5t71.5 -31.5q66 0 109 37q76 63 126 205.5t50 246.5q0 74 -20.5 106.5t-69.5 32.5q-66 0 -111 -36q-76 -63 -126 -206t-50 -247z" />
<glyph unicode="&#x26;" horiz-adv-x="1476" d="M76 387q0 301 344 516q-37 106 -37 199q0 174 84 279.5t209 105.5q207 0 207 -182q0 -84 -51.5 -169t-157.5 -145q84 -270 399 -735q82 145 103 362q12 82 -27 118t-127 36h-78q-2 0 -2 24.5t2 24.5h529q2 0 2 -24.5t-2 -24.5h-84q-78 0 -117 -35t-47 -119 q-25 -221 -127 -403q18 -25 35 -51q66 -94 159 -94q18 0 33 6q33 8 49.5 26.5t30.5 57.5q0 2 9 -4t16.5 -13.5t7.5 -9.5q-33 -76 -122 -121t-188 -45q-117 0 -229 99q-164 -100 -356 -101q-205 0 -336 118t-131 304zM287 563q0 -199 119.5 -341t336.5 -142q74 -1 121 22 q-10 10 -19 19.5t-15.5 16.5t-14.5 19.5t-12 19.5t-15.5 25.5t-17.5 28.5q-211 336 -281 488q-35 76 -57 145q-145 -119 -145 -301zM618 1272q0 -104 41 -234q179 99 179 267q0 59 -28 92t-75 33q-59 0 -88 -34t-29 -124z" />
<glyph unicode="'" horiz-adv-x="366" d="M106 1378q0 41 17.5 75t58.5 34q78 0 78 -109q0 -47 -9 -108.5t-23.5 -142t-20.5 -128.5l-2 -22q-4 -8 -21.5 -8t-17.5 8l-4 22q-4 29 -22.5 124.5t-26 151.5t-7.5 103z" />
<glyph unicode="(" horiz-adv-x="604" d="M135 505.5q0 321.5 120 582t335 423.5q2 0 11 -6t17.5 -14t6.5 -8q-47 -35 -83 -74t-77 -115.5t-67.5 -176t-45 -257.5t-18.5 -354q0 -244 24.5 -425t71.5 -287.5t91.5 -164t103.5 -100.5q2 -2 -6.5 -9t-17.5 -13.5t-11 -6.5q-215 164 -335 424t-120 581.5z" />
<glyph unicode=")" horiz-adv-x="604" d="M-18 -471q59 43 103 100.5t90 164t70.5 287.5t24.5 425t-24.5 424t-70.5 286.5t-90 165t-103 101.5q-2 0 6 8t16 14l10 6q217 -162 336 -423t119 -582.5t-119 -582.5t-336 -423q-2 0 -10 6.5t-16 13.5t-6 9z" />
<glyph unicode="*" horiz-adv-x="856" d="M106 958q0 43 33 70q39 25 56.5 16.5t68.5 1t119 54.5q-68 45 -119 54t-68.5 1t-56.5 16q-33 27 -33 72q0 41 26 72t61 31q33 0 52 -29t53 -80t91 -86l14 -8v16q0 94 -30.5 152.5t-30.5 89.5q0 33 22.5 59.5t61.5 26.5q41 0 64.5 -26.5t23.5 -59.5q0 -31 -32.5 -89.5 t-32.5 -152.5v-16l12 8q47 29 78.5 66.5t44 64.5t31 45.5t44.5 18.5q35 0 62 -31t27 -72q0 -43 -35 -72q-39 -25 -56.5 -16.5t-68.5 -0.5t-119 -54q68 -45 119 -54.5t68.5 -1t56.5 -16.5q35 -29 35 -69.5t-27 -72.5t-62 -32q-27 0 -45 18.5t-30.5 45t-44 63.5t-78.5 66 l-12 10v-19q0 -94 32.5 -151.5t32.5 -85.5q0 -33 -23.5 -60.5t-64.5 -27.5q-39 0 -61.5 26.5t-22.5 61.5q0 29 30.5 86t30.5 151v19l-14 -10q-45 -29 -76.5 -66t-44 -63.5t-31 -45t-44.5 -18.5q-35 0 -61 32t-26 72z" />
<glyph unicode="+" horiz-adv-x="811" d="M98 435q0 34 2 34h275v303q0 2 31.5 2t31.5 -2v-303h258q4 0 4 -34t-4 -34h-258v-284q0 -2 -31.5 -2t-31.5 2v284h-275q-2 0 -2 34z" />
<glyph unicode="," horiz-adv-x="442" d="M92 -248q23 6 58 31q68 55 67 119q0 61 -63 110q-37 29 -37 90q0 47 31.5 82t74.5 35q109 0 109 -145q0 -98 -65.5 -213t-164.5 -148q-2 0 -4 9.5t-4 19.5z" />
<glyph unicode="-" horiz-adv-x="630" d="M68 422q-4 0 0 8q27 49 32 125h463q8 0 0 -8q-29 -53 -35 -125h-460z" />
<glyph unicode="." horiz-adv-x="442" d="M109 94q0 49 32.5 82t79.5 33q51 0 84 -33t33 -82q0 -51 -33 -86t-84 -35q-47 0 -79.5 35t-32.5 86z" />
<glyph unicode="/" horiz-adv-x="696" d="M117 -29l594 1592q0 2 12 -2.5t22.5 -9.5t10.5 -7l-598 -1591l-37 12q-6 4 -4 6z" />
<glyph unicode="0" horiz-adv-x="1165" d="M111 436q0 188 139 321.5t333.5 133.5t333 -133.5t138.5 -321.5q0 -186 -138.5 -320t-333 -134t-333.5 134t-139 320zM334 436q0 -162 22.5 -240.5t73.5 -119.5q51 -45 154 -45q100 0 153 45q53 41 75 118.5t22 241.5q0 289 -97 363q-53 45 -153 45q-102 0 -154 -45 q-96 -76 -96 -363z" />
<glyph unicode="1" horiz-adv-x="733" d="M106.5 24.5q-0.5 24.5 2.5 24.5h137q12 0 12 8v758q0 8 -12 8h-137q-2 0 -2.5 24.5t2.5 24.5h516q2 0 2 -24.5t-2 -24.5h-140q-12 0 -12 -8v-758q0 -8 12 -8h140q2 0 2 -24.5t-2 -24.5h-516q-2 0 -2.5 24.5z" />
<glyph unicode="2" horiz-adv-x="983" d="M48 40q1 13 5 15q324 125 432.5 241t108.5 327q0 125 -31 172t-110 47q-72 0 -109 -38t-37 -106q0 -18 8.5 -41.5t8.5 -40.5q0 -31 -25 -54t-74 -23q-47 0 -70.5 29.5t-23.5 70.5q0 94 93 173t249 79q143 0 239.5 -76t96.5 -211q0 -113 -96.5 -213t-331.5 -237 q-4 -6 10 -9h273q100 0 143 37t43 127q0 2 21.5 2t21.5 -2v-303q0 -6 -4 -6h-834q-2 0 -5 13.5t-2 26.5z" />
<glyph unicode="3" horiz-adv-x="894" d="M53 -354q0 39 23.5 68.5t71 29.5t73 -23.5t25.5 -54.5q0 -16 -9.5 -40.5t-9.5 -43.5q0 -121 152 -121q70 0 111.5 12.5t78.5 49.5t53.5 112.5t16.5 198.5q0 164 -23.5 243t-63.5 99.5t-122 20.5q-8 0 -14 -1t-12.5 -1t-13.5 -3.5t-11 -4.5t-13.5 -5t-12.5 -6t-14 -8 l-16.5 -9t-19.5 -11.5t-20 -12.5q-2 -2 -8.5 7.5t-9.5 17.5t1 12q170 94 227.5 186.5t57.5 266.5q0 141 -34 180t-138 39q-43 0 -75 -26.5t-32 -76.5q0 -20 9.5 -42.5t9.5 -39.5q0 -35 -23.5 -57t-74.5 -22q-92 0 -93 100q0 66 82 138.5t197 72.5q174 0 283.5 -71.5 t109.5 -215.5q0 -78 -72.5 -167t-149.5 -141t-93 -42v-4h14q182 0 288.5 -116.5t106.5 -280.5q0 -201 -153.5 -321t-333.5 -120q-137 0 -231.5 75t-94.5 159z" />
<glyph unicode="4" horiz-adv-x="991" d="M55 10q66 84 138 238l358 721q57 -23 159.5 31.5t149.5 109.5q2 2 18.5 -12.5t16.5 -16.5l-770 -1032h428v219q61 4 105 54.5t67 109.5q2 2 22.5 2t20.5 -2v-383h223q4 0 4 -24.5t-4 -24.5h-223v-569h-215v569h-496q-8 0 -2 10z" />
<glyph unicode="5" horiz-adv-x="888" d="M31 -354q0 39 23.5 68.5t70.5 29.5q49 0 74.5 -23.5t25.5 -54.5q0 -16 -8 -40.5t-8 -43.5q0 -121 149 -121q90 0 135.5 28t71 117t25.5 267q0 207 -38 304t-144 97q-78 0 -122 -25.5t-61 -107.5q-2 -8 -2 -51q0 -23 -20 -22q-18 0 -19 24q0 10 3 32.5t3 31.5v682 q0 6 -1 12t-1 8t2.5 3t4.5 -1q55 -49 178 -49q70 0 123 27.5t89 55.5t66 28q92 0 92 -80q0 -66 -67.5 -109t-171.5 -43q-203 0 -266 62v-506q49 84 215 84q180 0 270 -124t90 -312q0 -221 -139 -351.5t-316 -130.5q-139 0 -233 75t-94 159z" />
<glyph unicode="6" horiz-adv-x="1110" d="M143 602q0 215 61.5 409.5t181.5 320.5t269 126q115 0 192 -72.5t77 -140.5q0 -41 -22.5 -69.5t-70 -28.5t-73 22.5t-25.5 55.5q0 16 8.5 40.5t8.5 43.5q0 104 -95 104q-272 0 -290 -704q35 53 95 81.5t122 28.5q178 0 304 -124t126 -294q0 -172 -126 -295.5t-304 -123.5 q-197 0 -318 156.5t-121 463.5zM367 391q0 -143 21.5 -214t66.5 -109q45 -37 127 -37q84 0 129 37q43 35 60 109t17 224q0 268 -77 332q-41 37 -129 37t-151.5 -53t-63.5 -117v-209z" />
<glyph unicode="7" horiz-adv-x="909" d="M123 532v334q0 6 6 6h717h18q12 0 4 -8q-51 -100 -135 -317l-371 -1116h-212l598 1276h-392q-98 0 -144 -41t-46 -134q0 -4 -21.5 -4t-21.5 4z" />
<glyph unicode="8" horiz-adv-x="1132" d="M143 360q0 254 297 390q-74 57 -112.5 92t-74.5 101.5t-36 143.5q0 135 94.5 254t266.5 119q162 0 271 -88t109 -225q0 -201 -262 -309q100 -66 163 -120t113 -139.5t50 -181.5q0 -164 -118 -289.5t-326 -125.5q-178 0 -306.5 105.5t-128.5 272.5zM317 375 q0 -344 261 -344q137 0 214.5 60t77.5 183q0 66 -20.5 119t-67.5 99.5t-85 76t-112.5 77.5t-113.5 77q-86 -68 -120 -144.5t-34 -203.5zM373 1206q0 -47 12 -86t25.5 -64.5t48.5 -56t55.5 -45t70.5 -47.5t72 -47q144 61 144 266q0 156 -56.5 222.5t-166.5 66.5 q-104 0 -154.5 -58.5t-50.5 -150.5z" />
<glyph unicode="9" horiz-adv-x="1112" d="M119 455q0 180 124 308t308 128q205 0 332 -156t127 -471q0 -217 -63.5 -409.5t-189.5 -317.5t-288 -125q-123 0 -206 78t-83 145q0 41 23.5 71t70.5 30q49 0 73 -23.5t24 -56.5q0 -18 -8.5 -42t-8.5 -40q0 -53 31 -83t84 -30q84 0 141.5 50.5t90 146.5t48 207.5 t21.5 263.5q-25 -53 -86 -83t-133 -30q-184 0 -308 128t-124 311zM344 455q0 -283 78 -349q47 -41 129 -40q92 0 147.5 39.5t73.5 93.5q14 51 14 260q0 152 -21.5 227.5t-70.5 116.5t-143 41q-82 0 -129 -41q-45 -37 -61.5 -112t-16.5 -236z" />
<glyph unicode=":" horiz-adv-x="442" d="M109 94q0 49 32.5 82t79.5 33q51 0 84 -33t33 -82q0 -51 -33 -86t-84 -35q-47 0 -79.5 35t-32.5 86zM109 762q0 47 32.5 79.5t79.5 32.5q49 0 83 -32.5t34 -79.5q0 -53 -33 -88t-84 -35q-47 0 -79.5 36t-32.5 87z" />
<glyph unicode=";" horiz-adv-x="442" d="M92 -248q23 6 58 31q68 55 67 119q0 61 -63 110q-37 29 -37 90q0 47 31.5 82t74.5 35q109 0 109 -145q0 -98 -65.5 -213t-164.5 -148q-2 0 -4 9.5t-4 19.5zM109 762q0 47 32.5 79.5t79.5 32.5q49 0 83 -32.5t34 -79.5q0 -53 -33 -88t-84 -35q-47 0 -79.5 36t-32.5 87z " />
<glyph unicode="&#x3c;" horiz-adv-x="651" d="M106 434v6l449 285q2 0 9 -11.5t12.5 -23.5t3.5 -12l-387 -242l387 -239q6 -2 -17 -39l-8 -8z" />
<glyph unicode="=" horiz-adv-x="733" d="M106.5 312.5q-0.5 23.5 2.5 23.5h520v-47h-520q-2 0 -2.5 23.5zM106.5 557q-0.5 25 2.5 25h520v-50h-520q-2 0 -2.5 25z" />
<glyph unicode="&#x3e;" horiz-adv-x="651" d="M74 197l387 239l-387 242q-2 0 0 5t5 12t6 14.5t6 11.5t5 4l449 -285q4 -2 0 -6l-449 -284l-12 16q-14 29 -10 31z" />
<glyph unicode="?" horiz-adv-x="882" d="M29 1161q0 104 116.5 215t253.5 111q199 0 328 -119t129 -307q0 -186 -111.5 -318.5t-263.5 -132.5q-68 0 -119 27v-258q0 -4 -22.5 -4t-22.5 4v340q0 2 -2 6v2q0 2 3.5 4t5.5 0q39 -72 157 -72q63 0 97 37q27 25 32.5 87.5t5.5 277.5q0 154 -17 224.5t-60 111.5 q-47 41 -140 41q-78 0 -119.5 -41t-41.5 -115q0 -43 16 -75.5t16 -65.5q0 -43 -32.5 -74t-85.5 -31q-57 0 -90 32t-33 93zM219 100q0 51 36 89t85 38t84 -37t35 -90q0 -49 -35 -87t-84 -38t-85 38t-36 87z" />
<glyph unicode="@" horiz-adv-x="1564" d="M104 725q0 315 205 538.5t492 223.5q270 0 453.5 -178.5t183.5 -483.5q0 -221 -137.5 -343t-299.5 -122q-111 0 -156.5 61.5t-23.5 147.5q-35 -111 -90 -160t-119 -49q-100 0 -149 76t-49 185q0 166 128 317.5t292 151.5q94 0 100 -91l22 74h150l-94 -325 q-31 -111 -43.5 -164.5t-13.5 -96.5t18.5 -56t60.5 -13q145 0 248.5 113.5t103.5 293.5q0 283 -168.5 447t-416.5 164q-270 0 -457.5 -205t-187.5 -506q0 -297 188 -504t457 -207q231 0 407 160q2 0 10.5 -8t14.5 -18.5t4 -12.5q-193 -170 -436 -170q-287 0 -492 222.5 t-205 537.5zM557 539q0 -125 76 -125q51 0 103 65.5t79 130t43 119.5l53 195q12 119 -92 118q-49 0 -88 -36q-78 -63 -126 -207t-48 -260z" />
<glyph unicode="A" d="M-33 24.5q0 24.5 4 24.5h152q14 0 21.5 13.5t25.5 72.5l453 1346q2 4 23.5 4t23.5 -4l497 -1428q6 -4 15 -4h172q2 0 2 -24.5t-2 -24.5h-635q-2 0 -2 24.5t2 24.5h164q6 0 8 4l-131 410h-434l-111 -328q-8 -29 -13 -45t-6 -25.5t-1 -12.5t4 -3h159q4 0 4 -24.5t-4 -24.5 h-387q-4 0 -4 24.5zM342 512h403l-198 618z" />
<glyph unicode="B" horiz-adv-x="1273" d="M82 24.5q0 24.5 4 24.5h168q10 0 10 8v1338q0 8 -10 8h-168q-4 0 -4 24.5t4 24.5h555q195 0 318.5 -86t123.5 -250q0 -141 -104.5 -241.5t-220.5 -100.5q170 0 294 -106.5t124 -282.5q0 -158 -117 -271.5t-328 -113.5h-645q-4 0 -4 24.5zM524 57q0 -8 13 -8h143 q137 0 188.5 63.5t51.5 260.5q0 162 -29 244.5t-82 108.5t-156 26h-129v-695zM524 799h148q104 0 140 61.5t36 247.5q0 178 -49 236.5t-191 58.5h-71q-12 0 -13 -8v-596z" />
<glyph unicode="C" horiz-adv-x="1302" d="M106 725q0 311 177.5 536.5t441.5 225.5q47 0 151.5 -27.5t147.5 -27.5q39 0 65.5 15t30.5 34q0 2 21.5 2t21.5 -2v-484q0 -2 -21.5 -2t-21.5 2q0 154 -128 297.5t-267 143.5q-133 0 -209 -74q-129 -137 -129 -639q0 -500 129 -637q74 -76 219 -76q172 0 296 147.5 t124 348.5q0 4 22.5 4t22.5 -4v-539q0 -2 -21.5 -2t-23.5 2q-4 23 -26.5 42.5t-59.5 19.5q-41 0 -159.5 -33t-174.5 -33q-266 0 -447.5 225.5t-181.5 534.5z" />
<glyph unicode="D" horiz-adv-x="1421" d="M84 24.5q0 24.5 2 24.5h168q10 0 10 8v1338q0 8 -10 8h-168q-2 0 -2 24.5t2 24.5h610q256 0 436.5 -213t180.5 -514q0 -299 -181.5 -512t-435.5 -213h-610q-2 0 -2 24.5zM524 55q0 -6 13 -6h159q137 0 207 69.5t98.5 201t28.5 405.5q0 481 -127 606q-74 72 -207 72h-159 q-12 0 -13 -8v-1340z" />
<glyph unicode="E" horiz-adv-x="1255" d="M82 24.5q0 24.5 4 24.5h168q10 0 10 8v1338q0 8 -10 8h-168q-4 0 -4 24.5t4 24.5h1004q8 0 8 -6v-424q0 -2 -23.5 -2t-23.5 2q0 160 -83 270.5t-251 110.5h-180q-16 0 -17 -8v-625h45q109 0 170.5 72.5t61.5 183.5q0 2 21.5 2t21.5 -2v-561q0 -4 -21.5 -4t-21.5 4 q0 111 -61.5 183.5t-170.5 72.5h-45v-664q0 -8 17 -8h186q219 0 323.5 122t104.5 300q0 4 21.5 4t21.5 -4v-465q0 -6 -6 -6h-1102q-4 0 -4 24.5z" />
<glyph unicode="F" horiz-adv-x="1208" d="M84 24.5q0 24.5 2 24.5h170q8 0 8 8v1338q0 8 -8 8h-170q-2 0 -2 24.5t2 24.5h1006q6 0 6 -6v-424q0 -2 -23.5 -2t-23.5 2q0 154 -98.5 267.5t-266.5 113.5h-149q-12 0 -13 -8v-625h43q113 0 188.5 75t75.5 181q0 2 23 2t23 -2v-561q0 -4 -23 -4t-23 4q0 106 -75.5 181 t-188.5 75h-43v-664q0 -8 13 -8h168q4 0 4 -24.5t-4 -24.5h-619q-2 0 -2 24.5z" />
<glyph unicode="G" horiz-adv-x="1333" d="M106 725q0 311 177.5 536.5t441.5 225.5q61 0 140 -27.5t96 -27.5q37 0 63.5 15t30.5 34q2 2 23.5 2t21.5 -2v-477q0 -4 -22.5 -4.5t-22.5 4.5q0 162 -94.5 298t-235.5 136q-133 0 -209 -74q-127 -133 -127 -639q0 -301 18.5 -436t84.5 -201q68 -76 208 -76 q236 0 236 181v350q0 6 -12 6h-168q-2 0 -2 24.5t2 24.5h616q4 0 4 -24.5t-4 -24.5h-166q-12 0 -12 -6v-551q0 -2 -12.5 -3t-24.5 1t-12 4q2 41 -9.5 57.5t-48.5 16.5q-33 0 -85 -26t-129.5 -51.5t-172.5 -25.5q-178 0 -316 108.5t-208 280.5t-70 371z" />
<glyph unicode="H" horiz-adv-x="1509" d="M84 24.5q0 24.5 2 24.5h168q10 0 10 8v1338q0 8 -10 8h-168q-2 0 -2 24.5t2 24.5h598q4 0 4 -24.5t-4 -24.5h-147q-12 0 -13 -8v-615h459v615q0 8 -10 8h-150q-4 0 -4 24.5t4 24.5h598q4 0 4 -24.5t-4 -24.5h-166q-10 0 -10 -8v-1338q0 -8 10 -8h166q4 0 4 -24.5 t-4 -24.5h-598q-4 0 -4 24.5t4 24.5h150q10 0 10 8v674h-459v-674q0 -8 13 -8h147q4 0 4 -24.5t-4 -24.5h-598q-2 0 -2 24.5z" />
<glyph unicode="I" horiz-adv-x="790" d="M84 24.5q0 24.5 2 24.5h168q10 0 10 8v1338q0 8 -10 8h-168q-2 0 -2 24.5t2 24.5h619q4 0 4 -24.5t-4 -24.5h-170q-12 0 -13 -8v-1338q0 -8 13 -8h170q4 0 4 -24.5t-4 -24.5h-619q-2 0 -2 24.5z" />
<glyph unicode="J" horiz-adv-x="991" d="M43 303q0 82 48 134t108 52q57 0 99 -47t42 -112.5t-45 -106.5t-45 -84q0 -49 42 -88t93 -39q76 0 102.5 39t26.5 129v1215q0 8 -10 8h-168q-4 0 -4 24.5t4 24.5h614q4 0 4 -24.5t-4 -24.5h-166q-14 0 -14 -8v-1053q0 -176 -104.5 -276.5t-280.5 -100.5 q-131 0 -236.5 105.5t-105.5 232.5z" />
<glyph unicode="K" horiz-adv-x="1327" d="M82 24.5q0 24.5 4 24.5h170q8 0 8 8v1338q0 8 -8 8h-170q-4 0 -4 24.5t4 24.5h616q4 0 4.5 -24.5t-4.5 -24.5h-165q-12 0 -13 -8v-664l467 586q55 68 55 82q0 4 -4 4h-139q-2 0 -2 24.5t2 24.5h373q2 0 2 -24.5t-2 -24.5h-143q-14 0 -62 -57q-14 -18 -24 -29l-342 -428 l563 -836l8 -2q8 -2 10 -2h197q6 0 6 -24.5t-6 -24.5h-692q-4 0 -4.5 24.5t4.5 24.5h161q10 0 11 4l-439 666v-662q0 -8 13 -8h165q4 0 4.5 -24.5t-4.5 -24.5h-616q-4 0 -4 24.5z" />
<glyph unicode="L" horiz-adv-x="1196" d="M84 24.5q0 24.5 2 24.5h170q8 0 8 8v1338q0 8 -8 8h-170q-2 0 -2 24.5t2 24.5h619q4 0 4 -24.5t-4 -24.5h-168q-10 0 -11 -8v-1338q0 -8 11 -8h149q201 0 308.5 132t107.5 308q0 2 22.5 2.5t22.5 -2.5v-483q0 -6 -6 -6h-1055q-2 0 -2 24.5z" />
<glyph unicode="M" horiz-adv-x="1734" d="M74 24.5q0 24.5 4 24.5h168q8 0 8 8v1338q0 8 -8 8h-168q-4 0 -4 24.5t4 24.5h432q16 0 29 -37l364 -1026l326 1026q10 37 28 37h426q2 0 2.5 -24.5t-2.5 -24.5h-170q-8 0 -8 -8v-1338q0 -8 8 -8h170q2 0 2 -24.5t-2 -24.5h-614q-4 0 -4 24.5t4 24.5h166q10 0 10 8v1239 l-420 -1323q-2 -4 -22.5 -4t-22.5 4l-475 1350v-1266q0 -8 10 -8h170q2 0 2 -24.5t-2 -24.5h-407q-4 0 -4 24.5z" />
<glyph unicode="N" horiz-adv-x="1415" d="M74 24.5q0 24.5 4 24.5h166q10 0 10 8v1338q0 8 -10 8h-166q-4 0 -4 24.5t4 24.5h454q18 0 43 -37l582 -966v946q0 8 -12 8h-166q-6 0 -6 24.5t6 24.5h403q2 0 2 -24.5t-2 -24.5h-168q-12 0 -12 -8v-1422q0 -2 -10 -4t-22.5 -1t-14.5 5l-850 1397v-1313q0 -8 8 -8h170 q4 0 4 -24.5t-4 -24.5h-405q-4 0 -4 24.5z" />
<glyph unicode="O" horiz-adv-x="1454" d="M106 725q0 311 177.5 536.5t441.5 225.5q258 0 438 -222.5t180 -539.5q0 -315 -180 -537.5t-438 -222.5q-256 0 -437.5 222.5t-181.5 537.5zM389 725q0 -287 30 -425t99 -212q70 -76 207 -76t211 76q68 74 97.5 212t29.5 425q0 504 -127 639q-76 74 -211 74 q-133 0 -207 -74q-129 -135 -129 -639z" />
<glyph unicode="P" horiz-adv-x="1247" d="M84 24.5q0 24.5 2 24.5h170q8 0 8 8v1338q0 8 -8 8h-170q-2 0 -2 24.5t2 24.5h563q248 0 387.5 -124.5t139.5 -319.5q0 -188 -128 -300t-350 -112q-84 0 -172 25v-564q0 -8 11 -8h168q4 0 4 -24.5t-4 -24.5h-619q-2 0 -2 24.5zM526 678q68 -33 172 -33q133 0 177.5 71 t44.5 292q0 215 -66 305t-205 90h-112q-10 0 -11 -8v-717z" />
<glyph unicode="Q" horiz-adv-x="1454" d="M106 725q0 311 177.5 536.5t441.5 225.5q258 0 438 -222.5t180 -539.5q0 -231 -90 -404.5t-243 -269.5q-51 -35 -155.5 -78t-229.5 -88t-162 -61q129 0 221 -19.5t141 -50t83 -67.5t57.5 -74t51 -67.5t77 -50t123.5 -19.5q4 0 4 -24.5t-4 -24.5q-147 0 -257 19t-168.5 50 t-98.5 68t-60.5 73.5t-41 67.5t-52 50.5t-82.5 19.5q-18 0 -41 -15.5t-25 -15.5q-47 0 -47 33q0 18 11.5 35.5t27.5 19.5q47 20 172 68.5t147 58.5q2 0 10.5 3t12.5 3q-256 0 -437.5 222.5t-181.5 537.5zM391 725q0 -289 29 -427t98 -210q70 -76 207 -76t211 76 q68 74 97.5 212t29.5 425q0 504 -127 639q-76 74 -211 74q-133 0 -207 -74q-127 -133 -127 -639z" />
<glyph unicode="R" horiz-adv-x="1335" d="M82 24.5q0 24.5 4 24.5h170q8 0 8 8v1338q0 8 -8 8h-170q-4 0 -4 24.5t4 24.5h592q207 0 331 -101.5t124 -254.5q0 -141 -106.5 -240.5t-248.5 -99.5q199 0 305.5 -114t106.5 -284v-184q0 -139 115 -139q39 0 56 7t38 30l8 -9q8 -8 15 -17t5 -9q-66 -72 -174 -72 q-135 0 -231 97.5t-96 299.5v134q0 129 -71 182t-210 53h-121v-674q0 -8 13 -8h165v-49h-616q-4 0 -4 24.5zM524 780h121q141 0 184 56t43 251q0 186 -52 251t-189 65h-94q-12 0 -13 -8v-615z" />
<glyph unicode="S" horiz-adv-x="1083" d="M123 -29v492q0 4 21.5 4t21.5 -4q0 -143 121 -297t288 -154q154 0 234 78t80 189q0 127 -68.5 181t-269.5 132q-47 16 -72 26q-152 59 -234.5 153.5t-82.5 262.5q0 190 108.5 321.5t255.5 131.5q72 0 128.5 -27.5t95.5 -27.5q72 0 79 49q0 2 10.5 4t21.5 0t11 -4v-379 q0 -4 -21.5 -4t-21.5 4q0 145 -86 240.5t-215 95.5q-113 0 -180 -70t-67 -176q0 -104 74.5 -166.5t267.5 -136.5q207 -82 303 -174t96 -266q0 -115 -47 -222.5t-151.5 -184.5t-245.5 -77q-80 0 -183.5 42t-124.5 42q-39 0 -69.5 -24.5t-34.5 -53.5q-2 -4 -22.5 -4t-20.5 4z " />
<glyph unicode="T" horiz-adv-x="1275" d="M53 961v485q0 6 6 6h1160q4 0 4 -6v-485q0 -2 -20.5 -2.5t-20.5 2.5q0 193 -99.5 317.5t-296.5 124.5h-12q-12 0 -12 -8v-1338q0 -8 12 -8h166q2 0 2 -24.5t-2 -24.5h-612q-4 0 -4 24.5t4 24.5h166q12 0 12 8v1338q0 8 -12 8h-15q-195 0 -289 -124t-94 -318 q0 -2 -21.5 -2.5t-21.5 2.5z" />
<glyph unicode="U" horiz-adv-x="1388" d="M49 1427.5q0 24.5 2 24.5h615q2 0 2 -24.5t-2 -24.5h-166q-14 0 -15 -8v-985q0 -193 66.5 -285t214.5 -92q182 0 272 105.5t90 291.5v965q0 8 -12 8h-162q-4 0 -4 24.5t4 24.5h400q2 0 2 -24.5t-2 -24.5h-170q-8 0 -8 -8v-965q0 -219 -114 -342t-345 -123 q-223 0 -355.5 111.5t-132.5 333.5v985q0 8 -10 8h-168q-2 0 -2 24.5z" />
<glyph unicode="V" horiz-adv-x="1343" d="M-53 1427.5q0 24.5 2 24.5h669q4 0 4.5 -24.5t-4.5 -24.5h-184q-6 0 -9 -2t-1 -6l414 -1065l317 987q15 54 15 74q0 11 -5 12h-164v49h410q2 0 2 -24.5t-2 -24.5h-166q-12 0 -18 -12.5t-29 -73.5l-432 -1348q0 -4 -22.5 -4t-24.5 4l-569 1426q-2 8 -17 8h-184 q-2 0 -2 24.5z" />
<glyph unicode="W" horiz-adv-x="1992" d="M-74 1427.5q0 24.5 2 24.5h643q4 0 4 -24.5t-4 -24.5h-157q-10 0 -8 -8l370 -1035l230 744l-97 291q-4 8 -12 8h-190q-2 0 -2 24.5t2 24.5h667q2 0 2 -24.5t-2 -24.5h-188q-8 0 -8 -8l342 -1037l299 969q8 27 12 41t5 22.5t-1 10.5t-8 2h-162q-2 0 -2 24.5t2 24.5h410 q2 0 2 -24.5t-2 -24.5h-166q-23 0 -45 -86l-426 -1348q-2 -2 -23.5 -2t-23.5 2l-361 1069l-336 -1069q-4 -6 -24.5 -5t-24.5 5l-518 1426q0 8 -16 8h-183q-2 0 -2 24.5z" />
<glyph unicode="X" horiz-adv-x="1363" d="M12 1427.5q0 24.5 4 24.5h668q4 0 4 -24.5t-4 -24.5h-170q-8 0 -8 -8l258 -500l235 422q39 64 39 80q0 3 -2 4l-12 2h-139q-4 0 -4 24.5t4 24.5h409q4 0 4 -24.5t-4 -24.5h-184q-14 0 -63 -86l-259 -467l416 -797l6 -2q6 -2 11 -2h192q4 0 4 -24.5t-4 -24.5h-668 q-4 0 -4 24.5t4 24.5h173q4 2 6 4l-295 574l-275 -492q-30 -64 -30 -80q0 -5 2 -6h143q2 0 2 -24.5t-2 -24.5h-412q-4 0 -4 24.5t4 24.5h185q20 0 65 86l299 541l-381 719q0 8 -16 8h-193q-4 0 -4 24.5z" />
<glyph unicode="Y" horiz-adv-x="1282" d="M-16 1427.5q0 24.5 2 24.5h673q2 0 2.5 -24.5t-2.5 -24.5h-182q-4 0 -8 -8l328 -690l266 612q26 66 26 81q0 5 -2 5h-169q-4 0 -4.5 24.5t4.5 24.5h407q2 0 2 -24.5t-2 -24.5h-158q-8 0 -14 -7t-24.5 -43t-51.5 -110l-268 -620v-566q0 -8 12 -8h168q2 0 2 -24.5t-2 -24.5 h-616q-4 0 -4 24.5t4 24.5h170q10 0 10 8v576l-363 762q-4 8 -14 8h-190q-2 0 -2 24.5z" />
<glyph unicode="Z" horiz-adv-x="1228" d="M119 16l694 1379q4 8 -4 8h-203q-180 0 -277.5 -127t-97.5 -315q0 -2 -24.5 -2.5t-24.5 2.5v485q0 6 6 6h918q6 0 2 -16l-696 -1383q-4 0 -1 -2t9 -2h264q180 0 281.5 131t101.5 320q0 4 23.5 4t23.5 -4v-494q0 -6 -6 -6h-985q-10 0 -4 16z" />
<glyph unicode="[" horiz-adv-x="536" d="M172 -492v1995q0 6 8 6h418q2 0 2 -23.5t-2 -23.5h-217q-12 0 -12 -8v-1898q0 -6 12 -7h217q2 0 2 -24.5t-2 -24.5h-418q-8 0 -8 8z" />
<glyph unicode="\" horiz-adv-x="696" d="M-57 1544q0 2 10 7t22.5 9.5t12.5 2.5l594 -1592l-17 -10q-25 -12 -24 -8z" />
<glyph unicode="]" horiz-adv-x="544" d="M-55 -475.5q0 24.5 2 24.5h215q10 0 10 7v1898q0 8 -10 8h-215q-2 0 -2 23.5t2 23.5h420q2 -2 2 -6v-1995l-2 -8h-420q-2 0 -2 24.5z" />
<glyph unicode="^" horiz-adv-x="636" d="M47 1075q231 262 283 340q6 6 10 0q64 -94 285 -340q2 0 -2.5 -7t-10.5 -13t-8 -4l-278 194l-256 -194q0 -2 -6.5 4t-10.5 14z" />
<glyph unicode="_" horiz-adv-x="1087" d="M78 24.5q0 24.5 2 24.5h928q4 0 4 -24.5t-4 -24.5h-928q-2 0 -2 24.5z" />
<glyph unicode="`" horiz-adv-x="688" d="M121 1376q0 31 20.5 52.5t53 21.5t60.5 -29.5t55.5 -76t62.5 -94.5t99.5 -92t150.5 -62q2 -2 2 -25.5t-4 -23.5q-279 66 -389.5 153.5t-110.5 175.5z" />
<glyph unicode="a" horiz-adv-x="944" d="M78 199q0 76 30.5 129t83 78.5t91.5 37t82 15.5q184 16 210 41q10 10 11 20v156q0 59 -9.5 95t-32 50.5t-42 18.5t-53.5 4q-37 0 -55.5 -3t-34 -16.5t-15.5 -42.5q0 -18 9 -42.5t9 -41.5q0 -33 -24.5 -55t-73.5 -22q-47 0 -70.5 29.5t-23.5 68.5q0 63 81 118.5t198 55.5 q168 0 259 -92t91 -279v-399q0 -72 43 -72q53 0 63 41q0 2 8.5 -4t14.5 -14.5t6 -10.5q-10 -31 -54 -55t-102 -24q-68 0 -123 44t-65 103q-23 -63 -79 -105t-136 -42q-123 0 -210 52t-87 163zM289 199q0 -76 25.5 -117t97.5 -41q78 0 126 72t48 166v174q-23 -14 -50.5 -21.5 t-72.5 -12.5t-57 -7q-45 -8 -64.5 -19.5t-36 -57.5t-16.5 -136z" />
<glyph unicode="b" horiz-adv-x="1128" d="M53 24.5q0 24.5 2 24.5h121q14 0 14 8v1391q0 8 -14 8h-121q-2 0 -2 24.5t2 24.5h340q6 0 6 -6v-692q78 84 197 84q178 0 309 -142.5t131 -318.5t-113.5 -312t-289.5 -136q-61 0 -128 31.5t-106 72.5v-80q0 -6 -6 -6h-340q-2 0 -2 24.5zM401 174q29 -70 97.5 -106.5 t136.5 -36.5q39 0 55.5 7t44.5 34q80 71 80 358q0 299 -80 371q-47 41 -137 41q-63 0 -123.5 -34t-73.5 -87v-547z" />
<glyph unicode="c" horiz-adv-x="942" d="M90 436.5q0 186.5 130 320.5t312 134q135 0 230.5 -82t95.5 -168q0 -45 -26.5 -69.5t-69.5 -24.5t-67.5 22.5t-24.5 55.5q0 25 11 52.5t11 59.5q0 104 -160 105q-92 0 -135 -43q-45 -41 -64.5 -120t-19.5 -243t19.5 -242.5t64.5 -119.5q43 -43 135 -43q109 0 199 47 t143 125q2 2 7.5 -4t10.5 -13.5t3 -9.5q-61 -90 -157.5 -142t-205.5 -52q-182 0 -312 134t-130 320.5z" />
<glyph unicode="d" horiz-adv-x="1116" d="M90 430q0 174 132 317.5t310 143.5q121 0 195 -84v641q0 8 -12 8h-115q-2 0 -2 24.5t2 24.5h336q4 0 4 -6v-1442q0 -8 16 -8h117q4 0 4 -24.5t-4 -24.5h-340q-6 0 -6 6v90q-10 -33 -74.5 -73.5t-154.5 -40.5q-178 0 -293 135t-115 313zM313 430q0 -283 84 -358l9 -9 q33 -29 63 -32h29q119 0 174 56t55 126v508q-10 53 -70.5 87t-124.5 34q-86 0 -135 -41q-84 -76 -84 -371z" />
<glyph unicode="e" horiz-adv-x="995" d="M90 436.5q0 188.5 130 321.5t315 133q94 0 170.5 -43t121.5 -107.5t70 -131.5t25 -122q0 -6 -7 -6h-600v-45q0 -166 17.5 -243.5t64.5 -118.5q45 -43 138 -43q217 0 339 172q2 2 15.5 -10.5t11.5 -14.5q-59 -88 -157.5 -142t-208.5 -54q-184 0 -314.5 133t-130.5 321.5z M315 530h404q-2 119 -17.5 175.5t-52.5 93.5q-39 43 -114 43q-92 0 -138 -43q-43 -37 -61.5 -93.5t-20.5 -175.5z" />
<glyph unicode="f" horiz-adv-x="694" d="M72 847.5q0 24.5 6 24.5h143q12 0 12 9v39q0 604 367 604q72 0 130 -59.5t58 -133.5q0 -43 -28.5 -73.5t-71.5 -30.5q-49 0 -75.5 21.5t-26.5 54.5q0 25 15 50t15 56q0 61 -61 61q-106 0 -106 -241v-348q0 -8 12 -9h176q2 0 2 -24.5t-2 -24.5h-176q-12 0 -12 -8v-758 q0 -8 12 -8h119q2 0 2 -24.5t-2 -24.5h-476q-2 0 -2 24.5t2 24.5h117q12 0 12 8v758q0 8 -12 8h-143q-6 0 -6 24.5z" />
<glyph unicode="g" horiz-adv-x="1026" d="M37 -365q0 86 63.5 162t155.5 99q-88 20 -141.5 76.5t-53.5 133.5q0 84 44.5 142.5t127.5 109.5q-77 91 -77 200q0 140 102 236.5t248 96.5q168 0 268 -123q70 123 180 123q55 0 80 -34t25 -77q0 -45 -18.5 -68.5t-45.5 -23.5q-33 0 -50 14.5t-17 34.5q0 14 8 27.5 t8 23.5q0 33 -35 33h-11h-13t-13.5 -1t-14.5 -4t-13 -9t-15.5 -15.5t-15.5 -22.5t-16 -30q55 -68 55 -178q0 -135 -101.5 -231.5t-244.5 -96.5q-74 0 -141.5 28t-102.5 61q-57 -43 -57 -125q0 -74 34.5 -97.5t122.5 -23.5h263q195 0 300 -83t105 -251q0 -176 -160.5 -281.5 t-351.5 -105.5q-209 0 -345 82t-136 198zM190 -340q0 -154 76 -205t252 -51q164 0 275.5 65.5t111.5 184.5q0 98 -65.5 164.5t-192.5 66.5h-301h-18l-19 -2q-70 -39 -94.5 -85t-24.5 -138zM350 560q0 -193 60 -249q30 -28 92 -28h4q68 0 98 28q55 54 55 252.5t-55 251.5 q-31 27 -98 27q-66 0 -96 -27q-60 -55 -60 -255z" />
<glyph unicode="h" horiz-adv-x="1153" d="M53 24.5q0 24.5 2 24.5h119q16 0 16 8v1391q0 8 -16 8h-119q-2 0 -2 24.5t2 24.5h340q6 0 6 -6v-768q27 80 93.5 120t146.5 40q164 0 257 -90t93 -252v-492q0 -8 13 -8h114q4 0 4 -24.5t-4 -24.5h-469q-4 0 -4 24.5t4 24.5h115q12 0 12 8v576q0 102 -38 155.5t-97 53.5 q-92 0 -146.5 -48.5t-93.5 -162.5v-574q0 -8 15 -8h114q2 0 2 -24.5t-2 -24.5h-475q-2 0 -2 24.5z" />
<glyph unicode="i" horiz-adv-x="620" d="M78 24.5q0 24.5 4 24.5h119q14 0 14 8v758q0 8 -14 8h-119q-4 0 -4 24.5t4 24.5h338q8 0 8 -6v-809q0 -8 12 -8h119q2 0 2 -24.5t-2 -24.5h-477q-4 0 -4 24.5zM188 1350q0 59 39 101t97 42q55 0 93 -42t38 -101q0 -57 -38 -98.5t-93 -41.5q-57 0 -96.5 41t-39.5 99z" />
<glyph unicode="j" horiz-adv-x="587" d="M-129 -459q0 41 30.5 73t73.5 32q49 0 75 -21.5t26 -56.5q0 -25 -15.5 -50.5t-15.5 -54.5q0 -33 14.5 -47t46.5 -14q109 0 109 242v1171q0 10 -14 10h-117q-2 0 -2 23.5t2 23.5h338q6 0 6 -6v-915q0 -602 -367 -602q-72 0 -131 60.5t-59 131.5zM188 1350q0 59 40 101 t98 42q53 0 92 -42t39 -101q0 -57 -39 -98.5t-92 -41.5q-57 0 -97.5 41t-40.5 99z" />
<glyph unicode="k" horiz-adv-x="1087" d="M57 24.5q0 24.5 4 24.5h119q14 0 15 8v1391q0 8 -15 8h-119q-4 0 -4 24.5t4 24.5h336q10 0 11 -6v-1018l290 256q81 74 81 84q0 1 -1 2h-2h-2h-2h-2h-2h-2h-2h-2h-2h-2h-2h-2h-4h-2h-3h-4h-2h-4h-2h-4h-2h-4h-4h-2h-4h-4h-4h-5h-2h-4h-4h-18q-4 0 -4 24.5t4 24.5h2h2h2h2 h2h2h2h2h2h2h2h2h2h2h2h3h2h2h2h2h2h2h2h2h2h2h2h2h2h2h2h2h2h2h2h5h2h2h2h2h4h2h2h2h4h2h2h2h4h2h2h4h3h2h4h2h4h2h2h4h2h4h2h4h2h4h2h5h2h4h2h4h2h4h2h4h2h4h4h2h5h2h4h4h2h4h4h2h4h4h2h4h5h4h2h4h4h4h2h4h4h4h2h4h5h4h4h2h20q2 0 2 -24.5t-2 -24.5h-114q-23 0 -121 -86 l-193 -166l412 -514q8 -8 20 -8h162q2 0 2 -24.5t-2 -24.5h-516q-6 0 -6 24.5t6 24.5h82q8 0 11 2t-1 6l-325 412v-412q0 -8 12 -8h115q2 0 2 -24.5t-2 -24.5h-474q-4 0 -4 24.5z" />
<glyph unicode="l" horiz-adv-x="575" d="M55 24.5q0 24.5 4 24.5h117q14 0 14 8v1391q0 8 -14 8h-117q-4 0 -4 24.5t4 24.5h338q6 0 6 -6v-1442q0 -8 13 -8h116q4 0 4 -24.5t-4 -24.5h-473q-4 0 -4 24.5z" />
<glyph unicode="m" horiz-adv-x="1757" d="M68 24.5q0 24.5 4 24.5h116q16 0 17 8v758q0 8 -17 8h-116q-4 0 -4 24.5t4 24.5h340q6 0 6 -6v-135q27 80 93.5 120t145.5 40q266 0 336 -162q74 162 254 162q346 0 346 -299v-535q0 -8 15 -8h118q2 0 2 -24.5t-2 -24.5h-477v49h119q14 0 14 8v576q0 102 -38.5 155.5 t-96.5 53.5q-121 0 -181 -77t-60 -177v-531q0 -8 12 -8h117q4 0 4 -24.5t-4 -24.5h-471q-4 0 -4.5 24.5t4.5 24.5h114q12 0 13 8v576q0 102 -37 155.5t-97 53.5q-92 0 -147 -48.5t-92 -162.5v-574q0 -8 12 -8h115q4 0 4 -24.5t-4 -24.5h-473q-4 0 -4 24.5z" />
<glyph unicode="n" horiz-adv-x="1169" d="M70 24.5q0 24.5 2 24.5h116q16 0 17 8v758q0 8 -17 8h-116q-2 0 -2 24.5t2 24.5h338q6 0 6 -6v-135q27 80 94.5 120t146.5 40q164 0 257.5 -90t93.5 -252v-492q0 -8 12 -8h115q4 0 4 -24.5t-4 -24.5h-469q-4 0 -4 24.5t4 24.5h114q10 0 11 8v576q0 102 -37 155.5 t-97 53.5q-92 0 -147 -48.5t-94 -162.5v-574q0 -8 14 -8h117q2 0 2 -24.5t-2 -24.5h-475q-2 0 -2 24.5z" />
<glyph unicode="o" horiz-adv-x="1064" d="M90 436.5q0 186.5 130 320.5t310 134q184 0 314.5 -133t130.5 -321.5t-130 -321.5t-315 -133q-180 0 -310 134t-130 320.5zM311 436q0 -162 19.5 -241.5t64.5 -120.5q45 -43 135 -43q94 0 138 43q45 41 64.5 119.5t19.5 242.5q0 287 -84 363q-43 43 -138 43 q-90 0 -135 -43q-84 -78 -84 -363z" />
<glyph unicode="p" horiz-adv-x="1128" d="M53 -607.5q0 23.5 2 23.5h119q16 0 16 9v1392q0 8 -16 8h-119q-2 0 -2 23.5t2 23.5h338q6 0 6 -1v-3v-71q29 37 84.5 65.5t112.5 28.5q178 0 310 -142.5t132 -316.5q0 -178 -112.5 -313t-290.5 -135q-59 0 -127 30.5t-109 71.5v-661q0 -8 17 -9h114q2 0 2 -23.5t-2 -23.5 h-475q-2 0 -2 23.5zM399 174q31 -68 99.5 -106.5t136.5 -38.5q35 0 51 7t39 27q4 6 8 9q82 73 82 360q0 299 -82 367q-49 43 -137 43q-61 0 -122.5 -34t-74.5 -85v-549z" />
<glyph unicode="q" horiz-adv-x="1077" d="M90 432q0 176 132 317.5t310 141.5q55 0 110.5 -25.5t84.5 -68.5v73q2 2 6 2h340q4 0 4 -22.5t-4 -22.5h-117q-16 0 -16 -10v-1392q0 -10 16 -11h117q4 0 4 -21.5t-4 -21.5h-473q-2 0 -2 21.5t2 21.5h115q12 0 12 11v675q-79 -116 -226 -116h-3q-178 0 -293 135t-115 313 zM313 432q0 -285 84 -360q49 -43 127 -43q90 0 146.5 61t56.5 127v508q-10 51 -70.5 84t-124.5 33q-86 0 -135 -43q-84 -70 -84 -367z" />
<glyph unicode="r" horiz-adv-x="837" d="M53 24.5q0 24.5 4 24.5h117q16 0 16 8v758q0 8 -16 8h-117q-4 0 -4 24.5t4 24.5h340q6 0 6 -6v-135q33 92 84.5 126t133.5 34q86 0 136 -56t50 -128q0 -70 -29.5 -104t-79.5 -34q-51 0 -79.5 23.5t-28.5 60.5q0 29 14 55.5t14 47.5q0 31 -16 49t-41 18q-55 0 -92 -47 t-66 -178v-541q0 -8 13 -8h114q4 0 4.5 -24.5t-4.5 -24.5h-473q-4 0 -4 24.5z" />
<glyph unicode="s" horiz-adv-x="804" d="M109 -2l10 321q0 4 22.5 4.5t22.5 -4.5v-6q0 -119 74 -199q76 -82 196 -83q193 0 193 172q0 70 -49.5 98.5t-196.5 67.5q-121 29 -183.5 87t-62.5 156q0 129 78 204t184 75q61 0 102.5 -16.5t70 -16.5t44.5 35q2 4 25 4t23 -4v-260q0 -2 -24 -2t-24 2q0 82 -69.5 145.5 t-147.5 63.5q-157 0 -157 -140q0 -65 44 -91.5t169 -61.5q18 -6 28 -8q267 -67 267 -260q0 -129 -83 -214t-231 -85q-74 0 -129 27.5t-76 27.5q-27 0 -49 -13.5t-26 -25.5q0 -2 -12.5 -3t-22.5 0t-10 3z" />
<glyph unicode="t" horiz-adv-x="661" d="M41 847.5q0 24.5 2 24.5h147q14 0 15 9v186q61 6 105 58.5t61 107.5h45v-352q0 -8 16 -9h174q4 0 4 -24.5t-4 -24.5h-174q-16 0 -16 -8v-702q0 -59 63 -60q78 0 121 131l6 -4q8 -6 15.5 -11t7.5 -7q-49 -180 -230 -180q-195 0 -194 200v633q0 8 -15 8h-147q-2 0 -2 24.5z " />
<glyph unicode="u" horiz-adv-x="1148" d="M39 847.5q0 24.5 2 24.5h340q6 0 6 -6v-626q0 -104 38 -157.5t95 -53.5q94 0 150.5 49t93.5 164v573q0 8 -16 8h-113q-6 0 -6 24.5t6 24.5h336q6 0 6 -6v-809q0 -8 14 -8h115q4 0 4 -24.5t-4 -24.5h-336q-6 0 -6 6v135q-27 -80 -94.5 -119.5t-149.5 -39.5q-162 0 -254 84 t-92 243v506q0 8 -16 8h-117q-2 0 -2 24.5z" />
<glyph unicode="v" horiz-adv-x="970" d="M-24.5 847.5q-0.5 24.5 4.5 24.5h507q8 0 8.5 -24.5t-8.5 -24.5h-127q-12 -2 -12 -6l254 -590l199 510q19 55 19 75q0 10 -5 11h-119q-4 0 -4 24.5t4 24.5h326q6 0 6 -24.5t-6 -24.5h-123q-14 0 -23.5 -14t-29.5 -72l-287 -753q-2 -4 -24.5 -4t-24.5 4l-395 833 q-4 6 -17 6h-118q-4 0 -4.5 24.5z" />
<glyph unicode="w" horiz-adv-x="1511" d="M-45 847.5q0 24.5 4 24.5h496q4 0 4 -24.5t-4 -24.5h-123q-12 0 -10 -6l251 -569l175 475l-46 94q0 6 -18 6h-100q-6 0 -6 24.5t6 24.5h475q2 0 2 -24.5t-2 -24.5h-119q-12 0 -12 -6l254 -565l182 485q17 52 17 72q0 13 -7 14h-119q-4 0 -4 24.5t4 24.5h326q6 0 6 -24.5 t-6 -24.5h-123q-12 0 -21.5 -15t-27.5 -71l-279 -753q0 -2 -11 -3t-23.5 0t-12.5 3l-311 682l-248 -682q-2 -4 -24.5 -4t-24.5 4l-379 833q-10 6 -16 6h-121q-4 0 -4 24.5z" />
<glyph unicode="x" horiz-adv-x="1044" d="M10 847.5q0 24.5 2 24.5h541q4 0 4 -24.5t-4 -24.5h-137q-12 -2 -10 -6l190 -276l154 196q48 65 48 81q0 5 -5 5h-101q-4 0 -4 24.5t4 24.5h299q2 0 2 -24.5t-2 -24.5h-108q-12 0 -27.5 -14t-56.5 -72l-183 -229l308 -455q4 -4 18 -4h133q2 0 2 -24.5t-2 -24.5h-518 q-4 0 -4 24.5t4 24.5h117l12 2l-2 2l-221 326l-195 -244q-50 -67 -50 -82q0 -4 3 -4h107q4 0 4 -24.5t-4 -24.5h-299q-4 0 -4 24.5t4 24.5h102q14 0 29.5 14.5t56.5 71.5l221 279l-274 403q-6 6 -21 6h-131q-2 0 -2 24.5z" />
<glyph unicode="y" horiz-adv-x="933" d="M-45 848.5q0 23.5 4 23.5h508q8 0 8 -23.5t-8 -23.5h-129q-12 0 -8 -8l254 -592l196 514q20 57 20 76q0 9 -5 10h-119q-4 0 -4 23.5t4 23.5h325q6 0 6 -23.5t-6 -23.5h-122q-14 0 -23.5 -14t-30.5 -72l-467 -1222q-61 -166 -204 -166q-63 0 -108.5 51t-45.5 115 q0 53 30.5 89t78.5 36q43 0 67.5 -24t24.5 -58q0 -25 -22.5 -56.5t-22.5 -54.5q0 -45 30 -45q84 0 127 109l179 467l-400 837q-4 8 -16 8h-117q-4 0 -4 23.5z" />
<glyph unicode="z" horiz-adv-x="897" d="M80 14l487 803q0 4 -10 6h-131q-141 0 -190.5 -53t-49.5 -178q0 -2 -21.5 -2t-21.5 2v274q0 6 7 6h665q2 0 2 -14l-491 -805q0 -2 8 -4h180q160 0 215 62.5t55 197.5q0 2 21.5 2t21.5 -2v-303q0 -6 -6 -6h-735q-16 0 -6 14z" />
<glyph unicode="{" horiz-adv-x="548" d="M145 -72q0 119 73 284t73 210t-31 55q-12 4 -18 4q-12 0 -26.5 -3t-22.5 -3q-14 0 -15 31q0 29 15 29q8 0 22 -2.5t27 -2.5h18q31 14 31 58q0 47 -73 212t-73 281q0 190 94.5 309t260.5 119h39q2 0 2 -23.5t-2 -23.5h-39q-102 0 -143.5 -60.5t-41.5 -234.5q0 -74 27 -250 t27 -253q0 -43 -2 -67t-19.5 -52.5t-50.5 -38.5q33 -10 50.5 -40t19.5 -53.5t2 -66.5q0 -78 -27 -254t-27 -250q0 -174 40 -233.5t145 -59.5h39q2 0 2 -24.5t-2 -24.5h-39q-166 0 -260.5 119t-94.5 309z" />
<glyph unicode="|" horiz-adv-x="315" d="M137 -47v1593q0 4 23.5 4t23.5 -4v-1593q0 -2 -23.5 -2t-23.5 2z" />
<glyph unicode="}" horiz-adv-x="548" d="M8 -475.5q0 24.5 2 24.5h43q100 0 141.5 60.5t41.5 232.5q0 74 -28 250t-28 254q0 137 74 160q-25 8 -41 23.5t-22.5 41t-8.5 44t-2 49.5q0 80 28 255t28 248q0 174 -41 234.5t-142 60.5h-43q-2 0 -2 23.5t2 23.5h43q164 0 258.5 -118.5t94.5 -309.5q0 -117 -73 -281.5 t-73 -211.5q0 -41 29 -58h22q10 0 23.5 2.5t21.5 2.5q14 0 15 -29q0 -31 -15 -31q-8 0 -21 3t-24 3q-6 0 -22 -4q-29 -10 -29 -55t73 -210t73 -284q0 -190 -94.5 -309t-258.5 -119h-43q-2 0 -2 24.5z" />
<glyph unicode="~" horiz-adv-x="786" d="M33 602q0 98 70.5 166t172.5 68q76 0 186.5 -44t151.5 -44q49 0 68.5 22.5t19.5 77.5q0 4 23 4t23 -4q0 -96 -71 -164t-169 -68q-78 0 -190.5 43t-153.5 43q-47 0 -64.5 -22.5t-17.5 -77.5q0 -4 -24.5 -4t-24.5 4z" />
<glyph unicode="&#xa1;" horiz-adv-x="446" d="M102 -459q0 68 56.5 404t56.5 538q0 4 22.5 4t22.5 -4q0 -203 55.5 -538.5t55.5 -403.5q0 -166 -133 -166q-135 0 -136 166zM115 762q0 51 36.5 89t86 38t84 -37t34.5 -90t-34.5 -91t-84 -38t-86 39t-36.5 90z" />
<glyph unicode="&#xa2;" horiz-adv-x="966" d="M100 436q0 182 125 314.5t301 140.5v141q0 4 23.5 4t23.5 -4v-143q127 -8 211 -87t84 -159q0 -94 -94 -94q-43 0 -68.5 22.5t-25.5 55.5q0 25 12.5 51.5t12.5 58.5q0 98 -132 105v-811q98 6 181.5 52t132.5 120q2 2 7 -4t9 -13.5t2 -9.5q-121 -176 -332 -192v-144 q0 -4 -23.5 -4t-23.5 4v140q-178 10 -302 142t-124 314zM326 436q0 -164 18 -242.5t64 -119.5q38 -39 118 -45v815q-78 -6 -118 -45q-45 -41 -63.5 -120t-18.5 -243z" />
<glyph unicode="&#xa3;" horiz-adv-x="1239" d="M59 70q0 70 72 120t182 50q102 0 199 -15q29 49 29 113q0 47 -16.5 99t-53.5 136t-53 125h-170q-2 0 -2 22.5t2 22.5h164q-4 12 -17.5 51.5t-17.5 52.5t-12.5 42t-10.5 51.5t-2 46.5q0 195 127 347.5t318 152.5q102 0 185 -84t83 -162q0 -47 -37 -83t-86 -36 q-111 0 -111 88q0 27 26 65t26 68q0 90 -117 91q-96 0 -142 -76t-46 -262q0 -63 25.5 -177t33.5 -176h203q4 0 4 -22.5t-4 -22.5h-203q16 -104 16 -200q0 -141 -106 -281q45 -10 121.5 -36.5t152.5 -40t191 -13.5q55 0 92 40t43 95q0 2 10 2t21.5 -2t11.5 -4 q-8 -113 -110.5 -203t-264.5 -90q-39 0 -78 5t-66.5 11.5t-67.5 20.5t-58.5 21.5t-62.5 27t-58 25.5q-123 -111 -242 -111q-43 0 -83 25.5t-40 79.5zM106 76q0 -33 29 -49.5t62 -16.5q80 0 174 78q-119 45 -183 45q-82 0 -82 -57z" />
<glyph unicode="&#xa5;" horiz-adv-x="1216" d="M-127 1427.5q0 24.5 2 24.5h721q2 0 2 -24.5t-2 -24.5h-209q-10 0 -6 -8l358 -658l289 580q31 84 25 86h-193q-4 0 -4 24.5t4 24.5h459q6 0 6 -24.5t-6 -24.5h-180q-23 0 -66 -86l-266 -535h356q4 0 4 -23.5t-4 -23.5h-377l-34 -67v-156h411q4 0 4 -24.5t-4 -24.5h-411 v-406q0 -8 12 -8h192q2 0 2 -24.5t-2 -24.5h-637q-2 0 -2 24.5t2 24.5h193q14 0 14 8v406h-413q-2 0 -2 24.5t2 24.5h413v121l-59 102h-354q-2 0 -2 23.5t2 23.5h329l-331 613q-4 8 -19 8h-217q-2 0 -2 24.5z" />
<glyph unicode="&#xa7;" horiz-adv-x="1122" d="M106 424q0 246 203 375q-131 117 -131 268q0 193 122 325t321 132q170 0 253.5 -94.5t83.5 -202.5q0 -49 -25.5 -74t-66.5 -25q-45 0 -72.5 23t-27.5 61q0 16 13.5 45t13.5 56q0 43 -3.5 64.5t-18.5 48t-52 38t-98 11.5q-147 0 -231.5 -64.5t-84.5 -198.5 q0 -86 52.5 -153.5t131 -108.5t171 -89t171 -95t131 -129t52.5 -186q0 -121 -42 -205t-159 -170q133 -119 133 -269q0 -193 -122 -324.5t-318 -131.5q-186 0 -287.5 106.5t-101.5 218.5q0 47 27.5 73t68.5 26q45 0 72.5 -22.5t27.5 -61.5q0 -16 -13 -45t-13 -56 q0 -41 6 -69.5t26.5 -59t67.5 -46t119 -15.5q145 0 228 64.5t83 197.5q0 102 -72.5 176t-177 124t-210 103.5t-178.5 143.5t-73 215zM190 573q0 -82 64.5 -148.5t149.5 -106t200 -100t182 -118.5q146 103 146 199q0 82 -64.5 149.5t-149.5 107.5t-200 101.5t-180 118.5 q-147 -94 -148 -203z" />
<glyph unicode="&#xa8;" horiz-adv-x="923" d="M154 1208q0 43 29.5 73t72.5 30q41 0 71.5 -30t30.5 -73t-30.5 -72.5t-71.5 -29.5q-43 0 -72.5 28.5t-29.5 73.5zM565 1208q0 43 31 73t74 30q41 0 70.5 -30t29.5 -73q0 -45 -28.5 -73.5t-71.5 -28.5t-74 29.5t-31 72.5z" />
<glyph unicode="&#xa9;" horiz-adv-x="1683" d="M113 725q0 315 214 538.5t515 223.5t514 -223.5t213 -538.5t-214 -537.5t-513 -222.5q-301 0 -515 223.5t-214 536.5zM166 725q0 -293 197.5 -501t478.5 -208q279 0 477.5 208t198.5 501q0 295 -199 502t-477 207q-281 0 -478.5 -207t-197.5 -502zM451 737.5 q0 186.5 110.5 321.5t274.5 135q29 0 93 -17.5t91 -17.5q51 0 59 31q0 2 19.5 2t21.5 -2v-285q-2 -2 -21.5 -2t-19.5 2q0 90 -77.5 168t-165.5 78q-86 0 -131 -45q-82 -74 -82 -369t82 -370q45 -45 137 -45q109 0 184.5 80.5t75.5 201.5q0 2 18.5 2t22.5 -2v-321 q-4 -2 -21.5 -2t-19.5 2q-2 12 -16.5 24t-36.5 12q-27 0 -99.5 -19t-107.5 -19q-166 0 -278.5 135t-112.5 321.5z" />
<glyph unicode="&#xaa;" horiz-adv-x="751" d="M74 961q0 57 23.5 98t62.5 60.5t68.5 27.5t60.5 12q143 8 143 49v115q0 78 -17.5 98.5t-62.5 20.5q-33 0 -45 -1t-25.5 -12.5t-13.5 -33.5q0 -16 7.5 -37t7.5 -33q0 -68 -70 -68q-82 0 -82 84q0 51 67.5 98.5t153.5 47.5q262 0 262 -260v-314q0 -53 29 -53q37 0 47 31 q0 2 8.5 -4t15.5 -13.5t7 -9.5q-6 -25 -43 -46t-88 -21q-45 0 -86 28.5t-51 73.5q-33 -53 -67 -77.5t-95 -24.5q-88 0 -152.5 41t-64.5 123zM256 961q0 -57 13.5 -83t56.5 -26q49 0 77.5 46t28.5 101v144q-27 -23 -110 -31q-27 -4 -38.5 -12t-19.5 -41t-8 -98z" />
<glyph unicode="&#xab;" horiz-adv-x="817" d="M68 432q-4 4 0 8q43 25 94 63t110.5 115.5t59.5 149.5q0 8 25.5 8t25.5 -8q0 -92 -38 -188.5t-83 -143.5q45 -47 83 -144.5t38 -187.5q0 -8 -25.5 -8t-25.5 8q0 72 -59.5 150t-110.5 116t-94 62zM395 432q-4 4 0 8q43 25 94.5 63t110.5 115.5t59 149.5q0 8 26 8t26 -8 q0 -90 -39 -186.5t-84 -145.5q45 -47 84 -145.5t39 -186.5q0 -8 -26 -8t-26 8q0 72 -59 150t-110.5 116t-94.5 62z" />
<glyph unicode="&#xad;" horiz-adv-x="630" d="M68 422q-4 0 0 8q27 49 32 125h463q8 0 0 -8q-29 -53 -35 -125h-460z" />
<glyph unicode="&#xae;" horiz-adv-x="1683" d="M113 725q0 315 214 538.5t515 223.5t514 -223.5t213 -538.5t-214 -537.5t-513 -222.5q-301 0 -515 223.5t-214 536.5zM166 725q0 -293 197.5 -501t478.5 -208q279 0 477.5 208t198.5 501q0 295 -199 502t-477 207q-281 0 -478.5 -207t-197.5 -502zM479 322.5 q0 21.5 2 21.5h105q8 0 8 4v776q0 4 -8 4h-105q-2 0 -2 21.5t2 21.5h369q127 0 202.5 -60t75.5 -153q0 -90 -67.5 -155.5t-173.5 -65.5q279 0 278 -221v-110q0 -84 66 -84q33 0 63 34l4 -8q6 -8 13 -16l4 -8q-39 -43 -111 -43q-82 0 -140 58t-58 179v45q0 152 -175 152h-79 v-367q0 -4 8 -4h102q2 0 2 -21.5t-2 -21.5h-381q-2 0 -2 21.5zM752 758h79q86 0 114 38.5t28 157.5q0 111 -33 142.5t-123 31.5h-57q-8 0 -8 -4v-366z" />
<glyph unicode="&#xaf;" horiz-adv-x="774" d="M41 1254.5q0 31.5 2 31.5h682q6 0 6 -31.5t-6 -31.5h-682q-2 0 -2 31.5z" />
<glyph unicode="&#xb0;" horiz-adv-x="555" d="M117 1302.5q0 63.5 48 110.5t114 47q70 0 116.5 -46t46.5 -111.5t-47 -111.5t-116 -46q-66 0 -114 47t-48 110.5zM166 1302.5q0 -45.5 33.5 -77t79.5 -31.5q47 0 80.5 31.5t33.5 77t-33.5 77t-80.5 31.5q-45 0 -79 -31.5t-34 -77z" />
<glyph unicode="&#xb4;" horiz-adv-x="688" d="M68 1070.5q0 23.5 2 25.5q86 18 150.5 62t99 92t62.5 94.5t54.5 76t59.5 29.5q35 0 55 -21.5t20 -52.5q0 -88 -109.5 -176t-389.5 -153q-4 0 -4 23.5z" />
<glyph unicode="&#xb6;" horiz-adv-x="1232" d="M106 725q0 301 181.5 514t437.5 213h420q2 0 2 -24.5t-2 -24.5h-133q-8 0 -8 -8v-1340q0 -6 8 -6h133q2 0 2 -24.5t-2 -24.5h-420q-256 0 -437.5 213t-181.5 512zM809 55q0 -6 10 -6h123q14 0 14 6v1340q0 8 -14 8h-123q-10 0 -10 -8v-1340z" />
<glyph unicode="&#xb7;" horiz-adv-x="380" d="M109 725q0 47 32.5 80t79.5 33q51 0 84 -33t33 -80q0 -53 -33 -88t-84 -35q-47 0 -79.5 36t-32.5 87z" />
<glyph unicode="&#xb8;" horiz-adv-x="567" d="M94 -319q0 20 14.5 35.5t38.5 15.5q49 0 50 -41q0 -18 -13.5 -31.5t-13.5 -21.5q0 -41 90 -41q96 0 96 67q0 25 -21.5 42.5t-48 28.5t-48 43t-21.5 79q0 78 49 141q2 2 19.5 -5t17.5 -11q-20 -31 -20 -54q0 -41 19.5 -65.5t44 -33.5t44 -39t19.5 -81q0 -74 -38 -118 t-112 -44q-80 0 -123 39t-43 95z" />
<glyph unicode="&#xba;" horiz-adv-x="823" d="M90 1143q0 141 94.5 242.5t223.5 101.5q135 0 230 -100.5t95 -244t-95 -244.5t-230 -101q-129 0 -223.5 101t-94.5 245zM285 1143q0 -211 45 -264q23 -33 78 -33q63 0 81 33q27 29 36.5 84t9.5 180q0 219 -46 264q-20 35 -81 35q-51 0 -78 -35q-45 -51 -45 -264z" />
<glyph unicode="&#xbb;" horiz-adv-x="817" d="M109 104q0 90 37.5 187.5t82.5 144.5q-45 47 -82.5 144.5t-37.5 187.5q0 8 24.5 8t24.5 -8q0 -55 32.5 -112.5t83 -102.5t85 -70.5t63.5 -42.5q8 -4 0 -8q-29 -16 -63.5 -41.5t-85 -71t-83 -102.5t-32.5 -113q0 -8 -24.5 -8t-24.5 8zM434 104q0 90 38 187.5t83 144.5 q-45 47 -83 143.5t-38 188.5q0 8 24.5 8t24.5 -8q0 -55 33 -112.5t83 -101.5t86 -70.5t65 -43.5q4 -4 0 -8q-29 -16 -65 -43t-86 -71t-83 -101t-33 -113q0 -8 -24.5 -8t-24.5 8z" />
<glyph unicode="&#xbf;" horiz-adv-x="825" d="M27 -199q0 186 112.5 317.5t266.5 131.5q70 0 116 -25v258q0 4 22.5 4t22.5 -4v-340q0 -2 2 -4v-4q0 -2 -3 -4t-5 0q-41 72 -155 72q-70 0 -101 -37q-25 -25 -32 -89.5t-7 -275.5q0 -156 16.5 -225.5t63.5 -110.5q43 -43 139 -43q76 0 118 42t42 116q0 43 -16.5 77 t-16.5 67q0 41 34 70.5t87 29.5q55 0 88 -32t33 -91q0 -104 -115.5 -215t-253.5 -111q-199 0 -328.5 119t-129.5 307zM424 762q0 53 35 90t86 37q49 0 84 -37t35 -90t-35 -91t-84 -38q-51 0 -86 38t-35 91z" />
<glyph unicode="&#xc0;" d="M-33 24.5q0 24.5 4 24.5h152q14 0 21.5 13.5t25.5 72.5l453 1346q2 4 23.5 4t23.5 -4l497 -1428q6 -4 15 -4h172q2 0 2 -24.5t-2 -24.5h-635q-2 0 -2 24.5t2 24.5h164q6 0 8 4l-131 410h-434l-111 -328q-8 -29 -13 -45t-6 -25.5t-1 -12.5t4 -3h159q4 0 4 -24.5t-4 -24.5 h-387q-4 0 -4 24.5zM242 1898q0 31 20.5 52.5t53 21.5t60 -29.5t55.5 -75.5t62.5 -94.5t99 -92.5t150.5 -62q2 -2 2 -25.5t-4 -23.5q-279 66 -389 153.5t-110 175.5zM342 512h403l-198 618z" />
<glyph unicode="&#xc1;" d="M-33 24.5q0 24.5 4 24.5h152q14 0 21.5 13.5t25.5 72.5l453 1346q2 4 23.5 4t23.5 -4l497 -1428q6 -4 15 -4h172q2 0 2 -24.5t-2 -24.5h-635q-2 0 -2 24.5t2 24.5h164q6 0 8 4l-131 410h-434l-111 -328q-8 -29 -13 -45t-6 -25.5t-1 -12.5t4 -3h159q4 0 4 -24.5t-4 -24.5 h-387q-4 0 -4 24.5zM342 512h403l-198 618zM592 1592.5q0 23.5 2 25.5q86 18 150.5 62t99.5 92.5t62.5 94.5t54 75.5t59.5 29.5q35 0 55.5 -21.5t20.5 -52.5q0 -88 -109.5 -176t-390.5 -153q-4 0 -4 23.5z" />
<glyph unicode="&#xc2;" d="M-33 24.5q0 24.5 4 24.5h152q14 0 21.5 13.5t25.5 72.5l453 1346q2 4 23.5 4t23.5 -4l497 -1428q6 -4 15 -4h172q2 0 2 -24.5t-2 -24.5h-635q-2 0 -2 24.5t2 24.5h164q6 0 8 4l-131 410h-434l-111 -328q-8 -29 -13 -45t-6 -25.5t-1 -12.5t4 -3h159q4 0 4 -24.5t-4 -24.5 h-387q-4 0 -4 24.5zM342 512h403l-198 618zM375 1597q231 262 282 340q6 4 11 0q63 -94 284 -340q2 0 -2 -7t-10 -13t-8 -4l-279 194l-256 -194q0 -2 -6 4t-10 12z" />
<glyph unicode="&#xc3;" d="M-33 24.5q0 24.5 4 24.5h152q14 0 21.5 13.5t25.5 72.5l453 1346q2 4 23.5 4t23.5 -4l497 -1428q6 -4 15 -4h172q2 0 2 -24.5t-2 -24.5h-635q-2 0 -2 24.5t2 24.5h164q6 0 8 4l-131 410h-434l-111 -328q-8 -29 -13 -45t-6 -25.5t-1 -12.5t4 -3h159q4 0 4 -24.5t-4 -24.5 h-387q-4 0 -4 24.5zM326 1634q0 98 70.5 165t172.5 67q76 0 186.5 -43t151.5 -43q49 0 68.5 22.5t19.5 77.5q0 4 22.5 4t22.5 -4q0 -98 -70.5 -165.5t-168.5 -67.5q-78 0 -190.5 43t-153.5 43q-47 0 -64.5 -22.5t-17.5 -76.5q0 -4 -24.5 -4t-24.5 4zM342 512h403l-198 618z " />
<glyph unicode="&#xc4;" d="M-33 24.5q0 24.5 4 24.5h152q14 0 21.5 13.5t25.5 72.5l453 1346q2 4 23.5 4t23.5 -4l497 -1428q6 -4 15 -4h172q2 0 2 -24.5t-2 -24.5h-635q-2 0 -2 24.5t2 24.5h164q6 0 8 4l-131 410h-434l-111 -328q-8 -29 -13 -45t-6 -25.5t-1 -12.5t4 -3h159q4 0 4 -24.5t-4 -24.5 h-387q-4 0 -4 24.5zM342 512h403l-198 618zM354 1731q0 43 30 72.5t73 29.5q41 0 71.5 -29.5t30.5 -72.5t-30.5 -73t-71.5 -30q-43 0 -73 29t-30 74zM766 1731q0 43 30.5 72.5t73.5 29.5q41 0 71 -29.5t30 -72.5t-29 -73t-72 -30t-73.5 30t-30.5 73z" />
<glyph unicode="&#xc5;" d="M-33 24.5q0 24.5 4 24.5h152q14 0 21.5 13.5t25.5 72.5l448 1338q-57 8 -97 53t-40 102q0 63 49.5 110.5t114.5 47.5q68 0 115 -46t47 -112q0 -57 -38 -102t-95 -53l493 -1420q6 -4 15 -4h172q2 0 2 -24.5t-2 -24.5h-635q-2 0 -2 24.5t2 24.5h164q6 0 8 4l-131 410h-434 l-111 -328q-8 -29 -13 -45t-6 -25.5t-1 -12.5t4 -3h159q4 0 4 -24.5t-4 -24.5h-387q-4 0 -4 24.5zM342 512h403l-198 618zM530 1628q0 -45 34 -76.5t81 -31.5q45 0 79 31.5t34 76.5t-34 77t-79 32q-47 0 -81 -32t-34 -77z" />
<glyph unicode="&#xc6;" horiz-adv-x="1810" d="M-57 0q-4 49 0 49h125q10 0 20 14.5t41 71.5l668 1268h-164q-2 0 -2 24.5t2 24.5h1012q6 0 6 -6v-424q0 -2 -22.5 -2t-22.5 2q0 158 -84 269.5t-250 111.5h-185q-8 0 -8 -8v-625h41q109 0 170.5 72.5t61.5 183.5q0 2 21.5 2t21.5 -2v-561q0 -4 -21.5 -4t-21.5 4 q0 111 -61.5 183.5t-170.5 72.5h-41v-664q0 -8 8 -8h191q217 0 322.5 123t105.5 299q0 4 21.5 4t21.5 -4v-465q0 -6 -6 -6h-1102q-2 0 -2 24.5t2 24.5h170q10 0 10 8v508h-415l-222 -430q-43 -84 -30 -86h149q4 0 0 -49h-360zM430 612h391v752z" />
<glyph unicode="&#xc7;" horiz-adv-x="1302" d="M106 725q0 311 177.5 536.5t441.5 225.5q47 0 151.5 -27.5t147.5 -27.5q39 0 65.5 15t30.5 34q0 2 21.5 2t21.5 -2v-484q0 -2 -21.5 -2t-21.5 2q0 154 -128 297.5t-267 143.5q-133 0 -209 -74q-129 -137 -129 -639q0 -500 129 -637q74 -76 219 -76q172 0 296 147.5 t124 348.5q0 4 22.5 4t22.5 -4v-539q0 -2 -21.5 -2t-23.5 2q-4 23 -26.5 42.5t-59.5 19.5q-41 0 -152.5 -32t-156.5 -34q-18 -33 -19 -51q0 -41 20.5 -64.5t45 -33t45 -40t20.5 -81.5q0 -72 -39.5 -116t-113.5 -44q-78 0 -121 39t-43 94q0 20 14.5 34.5t36.5 14.5 q47 0 47 -39q0 -18 -11 -31.5t-11 -21.5q0 -43 88 -43q96 0 96 70q0 25 -21.5 42t-47 29.5t-47 43t-21.5 79.5q0 53 35 119q-170 6 -310.5 112.5t-218.5 278.5t-78 369z" />
<glyph unicode="&#xc8;" horiz-adv-x="1255" d="M82 24.5q0 24.5 4 24.5h168q10 0 10 8v1338q0 8 -10 8h-168q-4 0 -4 24.5t4 24.5h1004q8 0 8 -6v-424q0 -2 -23.5 -2t-23.5 2q0 160 -83 270.5t-251 110.5h-180q-16 0 -17 -8v-625h45q109 0 170.5 72.5t61.5 183.5q0 2 21.5 2t21.5 -2v-561q0 -4 -21.5 -4t-21.5 4 q0 111 -61.5 183.5t-170.5 72.5h-45v-664q0 -8 17 -8h186q219 0 323.5 122t104.5 300q0 4 21.5 4t21.5 -4v-465q0 -6 -6 -6h-1102q-4 0 -4 24.5zM352 1898q0 31 20.5 52.5t53.5 21.5t60.5 -29.5t55 -75.5t62.5 -94.5t99.5 -92.5t150.5 -62q2 -2 2 -25.5t-4 -23.5 q-279 66 -389.5 153.5t-110.5 175.5z" />
<glyph unicode="&#xc9;" horiz-adv-x="1255" d="M82 24.5q0 24.5 4 24.5h168q10 0 10 8v1338q0 8 -10 8h-168q-4 0 -4 24.5t4 24.5h1004q8 0 8 -6v-424q0 -2 -23.5 -2t-23.5 2q0 160 -83 270.5t-251 110.5h-180q-16 0 -17 -8v-625h45q109 0 170.5 72.5t61.5 183.5q0 2 21.5 2t21.5 -2v-561q0 -4 -21.5 -4t-21.5 4 q0 111 -61.5 183.5t-170.5 72.5h-45v-664q0 -8 17 -8h186q219 0 323.5 122t104.5 300q0 4 21.5 4t21.5 -4v-465q0 -6 -6 -6h-1102q-4 0 -4 24.5zM473 1592.5q0 23.5 2 25.5q86 18 150.5 62t99.5 92.5t62.5 94.5t54 75.5t59.5 29.5q35 0 55.5 -21.5t20.5 -52.5 q0 -88 -109.5 -176t-390.5 -153q-4 0 -4 23.5z" />
<glyph unicode="&#xca;" horiz-adv-x="1255" d="M82 24.5q0 24.5 4 24.5h168q10 0 10 8v1338q0 8 -10 8h-168q-4 0 -4 24.5t4 24.5h1004q8 0 8 -6v-424q0 -2 -23.5 -2t-23.5 2q0 160 -83 270.5t-251 110.5h-180q-16 0 -17 -8v-625h45q109 0 170.5 72.5t61.5 183.5q0 2 21.5 2t21.5 -2v-561q0 -4 -21.5 -4t-21.5 4 q0 111 -61.5 183.5t-170.5 72.5h-45v-664q0 -8 17 -8h186q219 0 323.5 122t104.5 300q0 4 21.5 4t21.5 -4v-465q0 -6 -6 -6h-1102q-4 0 -4 24.5zM362 1597q231 262 283 340q6 4 10 0q64 -94 285 -340q2 0 -2 -7t-10 -13t-8 -4l-279 194l-256 -194q0 -2 -6 4t-10 12z" />
<glyph unicode="&#xcb;" horiz-adv-x="1255" d="M82 24.5q0 24.5 4 24.5h168q10 0 10 8v1338q0 8 -10 8h-168q-4 0 -4 24.5t4 24.5h1004q8 0 8 -6v-424q0 -2 -23.5 -2t-23.5 2q0 160 -83 270.5t-251 110.5h-180q-16 0 -17 -8v-625h45q109 0 170.5 72.5t61.5 183.5q0 2 21.5 2t21.5 -2v-561q0 -4 -21.5 -4t-21.5 4 q0 111 -61.5 183.5t-170.5 72.5h-45v-664q0 -8 17 -8h186q219 0 323.5 122t104.5 300q0 4 21.5 4t21.5 -4v-465q0 -6 -6 -6h-1102q-4 0 -4 24.5zM324 1731q0 43 29.5 72.5t72.5 29.5q41 0 71.5 -29.5t30.5 -72.5t-30.5 -73t-71.5 -30q-43 0 -72.5 29t-29.5 74zM735 1731 q0 43 31 72.5t74 29.5q41 0 70.5 -29.5t29.5 -72.5t-29.5 -73t-70.5 -30q-43 0 -74 30t-31 73z" />
<glyph unicode="&#xcc;" horiz-adv-x="790" d="M84 24.5q0 24.5 2 24.5h168q10 0 10 8v1338q0 8 -10 8h-168q-2 0 -2 24.5t2 24.5h619q4 0 4 -24.5t-4 -24.5h-170q-12 0 -13 -8v-1338q0 -8 13 -8h170q4 0 4 -24.5t-4 -24.5h-619q-2 0 -2 24.5zM129 1898q0 31 20.5 52.5t53.5 21.5t60.5 -29.5t55 -75.5t62.5 -94.5 t99.5 -92.5t150.5 -62q2 -2 2 -25.5t-4 -23.5q-279 66 -389.5 153.5t-110.5 175.5z" />
<glyph unicode="&#xcd;" horiz-adv-x="790" d="M84 24.5q0 24.5 2 24.5h168q10 0 10 8v1338q0 8 -10 8h-168q-2 0 -2 24.5t2 24.5h619q4 0 4 -24.5t-4 -24.5h-170q-12 0 -13 -8v-1338q0 -8 13 -8h170q4 0 4 -24.5t-4 -24.5h-619q-2 0 -2 24.5zM190.5 1592.5q-0.5 23.5 2.5 25.5q86 18 150.5 62t99 92.5t62 94.5 t54.5 75.5t59 29.5q35 0 55.5 -21.5t20.5 -52.5q0 -88 -109.5 -176t-389.5 -153q-4 0 -4.5 23.5z" />
<glyph unicode="&#xce;" horiz-adv-x="790" d="M84 24.5q0 24.5 2 24.5h168q10 0 10 8v1338q0 8 -10 8h-168q-2 0 -2 24.5t2 24.5h619q4 0 4 -24.5t-4 -24.5h-170q-12 0 -13 -8v-1338q0 -8 13 -8h170q4 0 4 -24.5t-4 -24.5h-619q-2 0 -2 24.5zM115 1597q231 262 282 340q4 4 11 0q63 -94 284 -340q2 0 -2 -7t-10 -13 t-8 -4l-279 194l-256 -194q0 -2 -6 4l-12 12z" />
<glyph unicode="&#xcf;" horiz-adv-x="790" d="M84 24.5q0 24.5 2 24.5h168q10 0 10 8v1338q0 8 -10 8h-168q-2 0 -2 24.5t2 24.5h619q4 0 4 -24.5t-4 -24.5h-170q-12 0 -13 -8v-1338q0 -8 13 -8h170q4 0 4 -24.5t-4 -24.5h-619q-2 0 -2 24.5zM86 1731q0 43 29.5 72.5t72.5 29.5q41 0 72 -29.5t31 -72.5t-31 -73 t-72 -30q-43 0 -72.5 29t-29.5 74zM498 1731q0 43 30.5 72.5t73.5 29.5q41 0 70.5 -29.5t29.5 -72.5t-29.5 -73t-70.5 -30q-43 0 -73.5 30t-30.5 73z" />
<glyph unicode="&#xd1;" horiz-adv-x="1415" d="M74 24.5q0 24.5 4 24.5h166q10 0 10 8v1338q0 8 -10 8h-166q-4 0 -4 24.5t4 24.5h454q18 0 43 -37l582 -966v946q0 8 -12 8h-166q-6 0 -6 24.5t6 24.5h403q2 0 2 -24.5t-2 -24.5h-168q-12 0 -12 -8v-1422q0 -2 -10 -4t-22.5 -1t-14.5 5l-850 1397v-1313q0 -8 8 -8h170 q4 0 4 -24.5t-4 -24.5h-405q-4 0 -4 24.5zM416 1634q0 98 70.5 165t172.5 67q76 0 186.5 -43t151.5 -43q49 0 68.5 22.5t19.5 77.5q0 4 22.5 4t22.5 -4q0 -98 -70.5 -165.5t-168.5 -67.5q-78 0 -190.5 43t-153.5 43q-47 0 -64.5 -22.5t-17.5 -76.5q0 -4 -24.5 -4t-24.5 4z " />
<glyph unicode="&#xd2;" horiz-adv-x="1454" d="M106 725q0 311 177.5 536.5t441.5 225.5q258 0 438 -222.5t180 -539.5q0 -315 -180 -537.5t-438 -222.5q-256 0 -437.5 222.5t-181.5 537.5zM336 1898q0 31 20.5 52.5t53 21.5t60.5 -29.5t55.5 -75.5t62.5 -94.5t99.5 -92.5t150.5 -62q2 -2 2 -25.5t-4 -23.5 q-279 66 -389.5 153.5t-110.5 175.5zM389 725q0 -287 30 -425t99 -212q70 -76 207 -76t211 76q68 74 97.5 212t29.5 425q0 504 -127 639q-76 74 -211 74q-133 0 -207 -74q-129 -135 -129 -639z" />
<glyph unicode="&#xd3;" horiz-adv-x="1454" d="M106 725q0 311 177.5 536.5t441.5 225.5q258 0 438 -222.5t180 -539.5q0 -315 -180 -537.5t-438 -222.5q-256 0 -437.5 222.5t-181.5 537.5zM389 725q0 -287 30 -425t99 -212q70 -76 207 -76t211 76q68 74 97.5 212t29.5 425q0 504 -127 639q-76 74 -211 74 q-133 0 -207 -74q-129 -135 -129 -639zM616.5 1592.5q-0.5 23.5 1.5 25.5q86 18 151 62t99.5 92.5t62 94.5t54.5 75.5t59 29.5q35 0 55.5 -21.5t20.5 -52.5q0 -88 -109.5 -176t-389.5 -153q-4 0 -4.5 23.5z" />
<glyph unicode="&#xd4;" horiz-adv-x="1454" d="M106 725q0 311 177.5 536.5t441.5 225.5q258 0 438 -222.5t180 -539.5q0 -315 -180 -537.5t-438 -222.5q-256 0 -437.5 222.5t-181.5 537.5zM389 725q0 -287 30 -425t99 -212q70 -76 207 -76t211 76q68 74 97.5 212t29.5 425q0 504 -127 639q-76 74 -211 74 q-133 0 -207 -74q-129 -135 -129 -639zM440 1597q231 262 283 340q6 4 10 0q64 -94 285 -340q2 0 -2 -7t-10.5 -13t-8.5 -4l-278 194l-256 -194q0 -2 -6 4t-11 12z" />
<glyph unicode="&#xd5;" horiz-adv-x="1437" d="M106 725q0 311 177.5 536.5t441.5 225.5q258 0 438 -222.5t180 -539.5q0 -315 -180 -537.5t-438 -222.5q-256 0 -437.5 222.5t-181.5 537.5zM371 1634q0 98 70.5 165t172.5 67q76 0 186.5 -43t151.5 -43q49 0 68.5 22.5t19.5 77.5q0 4 22.5 4t22.5 -4q0 -98 -70.5 -165.5 t-168.5 -67.5q-78 0 -190.5 43t-153.5 43q-47 0 -64.5 -22.5t-17.5 -76.5q0 -4 -24.5 -4t-24.5 4zM389 725q0 -287 30 -425t99 -212q70 -76 207 -76t211 76q68 74 97.5 212t29.5 425q0 504 -127 639q-76 74 -211 74q-133 0 -207 -74q-129 -135 -129 -639z" />
<glyph unicode="&#xd6;" horiz-adv-x="1454" d="M106 725q0 311 177.5 536.5t441.5 225.5q258 0 438 -222.5t180 -539.5q0 -315 -180 -537.5t-438 -222.5q-256 0 -437.5 222.5t-181.5 537.5zM389 725q0 -287 30 -425t99 -212q70 -76 207 -76t211 76q68 74 97.5 212t29.5 425q0 504 -127 639q-76 74 -211 74 q-133 0 -207 -74q-129 -135 -129 -639zM416 1731q0 43 29.5 72.5t72.5 29.5q41 0 72 -29.5t31 -72.5t-31 -73t-72 -30q-43 0 -72.5 29t-29.5 74zM827 1731q0 43 31 72.5t74 29.5q41 0 70.5 -29.5t29.5 -72.5t-28.5 -73t-71.5 -30t-74 30t-31 73z" />
<glyph unicode="&#xd8;" horiz-adv-x="1454" d="M106 725q0 311 177.5 536.5t441.5 225.5q182 0 330 -117l75 137q0 2 10.5 -3t18.5 -13t8 -10q-35 -70 -75 -142q117 -106 184 -267t67 -347q0 -315 -180 -537.5t-438 -222.5q-178 0 -326 113q0 2 -17 -31t-36 -65l-18 -33q0 -2 -5.5 0t-11.5 5t-12 7t-8 6l-4 4l75 140 q-119 104 -187.5 266t-68.5 348zM389 725q0 -346 43 -487l563 1026q-25 63 -59 100q-76 74 -211 74q-133 0 -207 -74q-129 -135 -129 -639zM459 182q18 -41 59 -94q70 -76 207 -76t211 76q68 74 97.5 212t29.5 425q0 319 -47 479l-139 -254q-139 -256 -279 -512z" />
<glyph unicode="&#xd9;" horiz-adv-x="1388" d="M49 1427.5q0 24.5 2 24.5h615q2 0 2 -24.5t-2 -24.5h-166q-14 0 -15 -8v-985q0 -193 66.5 -285t214.5 -92q182 0 272 105.5t90 291.5v965q0 8 -12 8h-162q-4 0 -4 24.5t4 24.5h400q2 0 2 -24.5t-2 -24.5h-170q-8 0 -8 -8v-965q0 -219 -114 -342t-345 -123 q-223 0 -355.5 111.5t-132.5 333.5v985q0 8 -10 8h-168q-2 0 -2 24.5zM459 1898q0 31 20.5 52.5t53 21.5t60.5 -29.5t55.5 -75.5t62 -94.5t99.5 -92.5t151 -62q2 -2 2 -25.5t-5 -23.5q-279 66 -389 153.5t-110 175.5z" />
<glyph unicode="&#xda;" horiz-adv-x="1388" d="M49 1427.5q0 24.5 2 24.5h615q2 0 2 -24.5t-2 -24.5h-166q-14 0 -15 -8v-985q0 -193 66.5 -285t214.5 -92q182 0 272 105.5t90 291.5v965q0 8 -12 8h-162q-4 0 -4 24.5t4 24.5h400q2 0 2 -24.5t-2 -24.5h-170q-8 0 -8 -8v-965q0 -219 -114 -342t-345 -123 q-223 0 -355.5 111.5t-132.5 333.5v985q0 8 -10 8h-168q-2 0 -2 24.5zM641 1592.5q0 23.5 2 25.5q86 18 150.5 62t99.5 92.5t62.5 94.5t54 75.5t59.5 29.5q35 0 55.5 -21.5t20.5 -52.5q0 -88 -109.5 -176t-390.5 -153q-4 0 -4 23.5z" />
<glyph unicode="&#xdb;" horiz-adv-x="1388" d="M49 1427.5q0 24.5 2 24.5h615q2 0 2 -24.5t-2 -24.5h-166q-14 0 -15 -8v-985q0 -193 66.5 -285t214.5 -92q182 0 272 105.5t90 291.5v965q0 8 -12 8h-162q-4 0 -4 24.5t4 24.5h400q2 0 2 -24.5t-2 -24.5h-170q-8 0 -8 -8v-965q0 -219 -114 -342t-345 -123 q-223 0 -355.5 111.5t-132.5 333.5v985q0 8 -10 8h-168q-2 0 -2 24.5zM500 1597q231 262 282 340q4 4 11 0q63 -94 284 -340q2 0 -2 -7t-10 -13t-8 -4l-279 194l-256 -194q0 -2 -6 4l-12 12z" />
<glyph unicode="&#xdc;" horiz-adv-x="1388" d="M49 1427.5q0 24.5 2 24.5h615q2 0 2 -24.5t-2 -24.5h-166q-14 0 -15 -8v-985q0 -193 66.5 -285t214.5 -92q182 0 272 105.5t90 291.5v965q0 8 -12 8h-162q-4 0 -4 24.5t4 24.5h400q2 0 2 -24.5t-2 -24.5h-170q-8 0 -8 -8v-965q0 -219 -114 -342t-345 -123 q-223 0 -355.5 111.5t-132.5 333.5v985q0 8 -10 8h-168q-2 0 -2 24.5zM489 1731q0 43 30 72.5t73 29.5q41 0 71.5 -29.5t30.5 -72.5t-30.5 -73t-71.5 -30q-43 0 -73 29t-30 74zM901 1731q0 43 31 72.5t74 29.5q41 0 70.5 -29.5t29.5 -72.5t-28.5 -73t-71.5 -30t-74 30 t-31 73z" />
<glyph unicode="&#xdf;" horiz-adv-x="1228" d="M70 24.5q0 24.5 4 24.5h116q14 0 15 8v863q0 309 110.5 456.5t284.5 147.5q168 0 274.5 -98.5t106.5 -247.5q0 -127 -57.5 -199t-186.5 -123q10 2 74 2q127 0 216 -139.5t89 -323.5q0 -199 -105.5 -306t-226.5 -107q-98 0 -162.5 66.5t-64.5 152.5q0 37 19.5 60.5 t48.5 23.5q33 0 53 -17.5t20 -48.5q0 -12 -10 -36.5t-10 -45.5q0 -106 106 -106q51 0 73 15t36 91t14 238q0 246 -49 343t-164 97q-45 0 -78 -24q-4 0 -11 9t-13 19t-4 12q84 47 119.5 79t57 95.5t21.5 176.5q0 152 -40.5 222.5t-145.5 70.5q-80 0 -131 -73t-51 -192v-1153 q0 -8 16 -8h113q4 0 4 -24.5t-4 -24.5h-473q-4 0 -4 24.5z" />
<glyph unicode="&#xe0;" horiz-adv-x="944" d="M78 199q0 76 30.5 129t83 78.5t91.5 37t82 15.5q184 16 210 41q10 10 11 20v156q0 59 -9.5 95t-32 50.5t-42 18.5t-53.5 4q-37 0 -55.5 -3t-34 -16.5t-15.5 -42.5q0 -18 9 -42.5t9 -41.5q0 -33 -24.5 -55t-73.5 -22q-47 0 -70.5 29.5t-23.5 68.5q0 63 81 118.5t198 55.5 q168 0 259 -92t91 -279v-399q0 -72 43 -72q53 0 63 41q0 2 8.5 -4t14.5 -14.5t6 -10.5q-10 -31 -54 -55t-102 -24q-68 0 -123 44t-65 103q-23 -63 -79 -105t-136 -42q-123 0 -210 52t-87 163zM172 1376q0 31 20.5 52.5t53.5 21.5t60.5 -29.5t55 -76t62.5 -94.5t99.5 -92 t150.5 -62q2 -2 2 -25.5t-4 -23.5q-279 66 -389.5 153.5t-110.5 175.5zM289 199q0 -76 25.5 -117t97.5 -41q78 0 126 72t48 166v174q-23 -14 -50.5 -21.5t-72.5 -12.5t-57 -7q-45 -8 -64.5 -19.5t-36 -57.5t-16.5 -136z" />
<glyph unicode="&#xe1;" horiz-adv-x="944" d="M78 199q0 76 30.5 129t83 78.5t91.5 37t82 15.5q184 16 210 41q10 10 11 20v156q0 59 -9.5 95t-32 50.5t-42 18.5t-53.5 4q-37 0 -55.5 -3t-34 -16.5t-15.5 -42.5q0 -18 9 -42.5t9 -41.5q0 -33 -24.5 -55t-73.5 -22q-47 0 -70.5 29.5t-23.5 68.5q0 63 81 118.5t198 55.5 q168 0 259 -92t91 -279v-399q0 -72 43 -72q53 0 63 41q0 2 8.5 -4t14.5 -14.5t6 -10.5q-10 -31 -54 -55t-102 -24q-68 0 -123 44t-65 103q-23 -63 -79 -105t-136 -42q-123 0 -210 52t-87 163zM289 199q0 -76 25.5 -117t97.5 -41q78 0 126 72t48 166v174q-23 -14 -50.5 -21.5 t-72.5 -12.5t-57 -7q-45 -8 -64.5 -19.5t-36 -57.5t-16.5 -136zM305 1070.5q0 23.5 2 25.5q86 18 150.5 62t99.5 92t62.5 94.5t54 76t59.5 29.5q35 0 55.5 -21.5t20.5 -52.5q0 -88 -109.5 -176t-390.5 -153q-4 0 -4 23.5z" />
<glyph unicode="&#xe2;" horiz-adv-x="944" d="M78 199q0 76 30.5 129t83 78.5t91.5 37t82 15.5q184 16 210 41q10 10 11 20v156q0 59 -9.5 95t-32 50.5t-42 18.5t-53.5 4q-37 0 -55.5 -3t-34 -16.5t-15.5 -42.5q0 -18 9 -42.5t9 -41.5q0 -33 -24.5 -55t-73.5 -22q-47 0 -70.5 29.5t-23.5 68.5q0 63 81 118.5t198 55.5 q168 0 259 -92t91 -279v-399q0 -72 43 -72q53 0 63 41q0 2 8.5 -4t14.5 -14.5t6 -10.5q-10 -31 -54 -55t-102 -24q-68 0 -123 44t-65 103q-23 -63 -79 -105t-136 -42q-123 0 -210 52t-87 163zM190 1075q231 262 283 340q6 6 10 0q64 -94 285 -340q2 0 -2 -7t-10 -13t-8 -4 l-279 194l-256 -194q0 -2 -6 4t-10 14zM289 199q0 -76 25.5 -117t97.5 -41q78 0 126 72t48 166v174q-23 -14 -50.5 -21.5t-72.5 -12.5t-57 -7q-45 -8 -64.5 -19.5t-36 -57.5t-16.5 -136z" />
<glyph unicode="&#xe3;" horiz-adv-x="944" d="M78 199q0 76 30.5 129t83 78.5t91.5 37t82 15.5q184 16 210 41q10 10 11 20v156q0 59 -9.5 95t-32 50.5t-42 18.5t-53.5 4q-37 0 -55.5 -3t-34 -16.5t-15.5 -42.5q0 -18 9 -42.5t9 -41.5q0 -33 -24.5 -55t-73.5 -22q-47 0 -70.5 29.5t-23.5 68.5q0 63 81 118.5t198 55.5 q168 0 259 -92t91 -279v-399q0 -72 43 -72q53 0 63 41q0 2 8.5 -4t14.5 -14.5t6 -10.5q-10 -31 -54 -55t-102 -24q-68 0 -123 44t-65 103q-23 -63 -79 -105t-136 -42q-123 0 -210 52t-87 163zM131 1112q0 98 70.5 164.5t173.5 66.5q76 0 186.5 -43t151.5 -43q49 0 68.5 23 t19.5 78q0 2 22.5 2t22.5 -2q0 -98 -70.5 -166t-169.5 -68q-78 0 -190.5 43t-153.5 43q-47 0 -64.5 -22.5t-17.5 -75.5q0 -2 -24.5 -2t-24.5 2zM289 199q0 -76 25.5 -117t97.5 -41q78 0 126 72t48 166v174q-23 -14 -50.5 -21.5t-72.5 -12.5t-57 -7q-45 -8 -64.5 -19.5 t-36 -57.5t-16.5 -136z" />
<glyph unicode="&#xe4;" horiz-adv-x="944" d="M78 199q0 76 30.5 129t83 78.5t91.5 37t82 15.5q184 16 210 41q10 10 11 20v156q0 59 -9.5 95t-32 50.5t-42 18.5t-53.5 4q-37 0 -55.5 -3t-34 -16.5t-15.5 -42.5q0 -18 9 -42.5t9 -41.5q0 -33 -24.5 -55t-73.5 -22q-47 0 -70.5 29.5t-23.5 68.5q0 63 81 118.5t198 55.5 q168 0 259 -92t91 -279v-399q0 -72 43 -72q53 0 63 41q0 2 8.5 -4t14.5 -14.5t6 -10.5q-10 -31 -54 -55t-102 -24q-68 0 -123 44t-65 103q-23 -63 -79 -105t-136 -42q-123 0 -210 52t-87 163zM162 1208q0 43 29.5 73t72.5 30q41 0 72 -30t31 -73t-31 -72.5t-72 -29.5 q-43 0 -72.5 28.5t-29.5 73.5zM289 199q0 -76 25.5 -117t97.5 -41q78 0 126 72t48 166v174q-23 -14 -50.5 -21.5t-72.5 -12.5t-57 -7q-45 -8 -64.5 -19.5t-36 -57.5t-16.5 -136zM573 1208q0 43 31 73t74 30q41 0 70.5 -30t29.5 -73q0 -45 -28.5 -73.5t-71.5 -28.5t-74 29.5 t-31 72.5z" />
<glyph unicode="&#xe5;" horiz-adv-x="944" d="M78 199q0 76 30.5 129t83 78.5t91.5 37t82 15.5q184 16 210 41q10 10 11 20v156q0 59 -9.5 95t-32 50.5t-42 18.5t-53.5 4q-37 0 -55.5 -3t-34 -16.5t-15.5 -42.5q0 -18 9 -42.5t9 -41.5q0 -33 -24.5 -55t-73.5 -22q-47 0 -70.5 29.5t-23.5 68.5q0 63 81 118.5t198 55.5 q168 0 259 -92t91 -279v-399q0 -72 43 -72q53 0 63 41q0 2 8.5 -4t14.5 -14.5t6 -10.5q-10 -31 -54 -55t-102 -24q-68 0 -123 44t-65 103q-23 -63 -79 -105t-136 -42q-123 0 -210 52t-87 163zM289 199q0 -76 25.5 -117t97.5 -41q78 0 126 72t48 166v174q-23 -14 -50.5 -21.5 t-72.5 -12.5t-57 -7q-45 -8 -64.5 -19.5t-36 -57.5t-16.5 -136zM315 1245.5q0 63.5 48.5 110.5t113.5 47q70 0 117 -46t47 -111.5t-47 -112t-117 -46.5q-66 0 -114 47.5t-48 111zM365 1245q0 -45 33.5 -76.5t78.5 -31.5q47 0 81 31.5t34 76.5t-34 77t-81 32q-45 0 -78.5 -32 t-33.5 -77z" />
<glyph unicode="&#xe6;" horiz-adv-x="1484" d="M78 197q0 76 30.5 129t82 78.5t90 37t79.5 15.5q57 4 85 8t64 10t50 16.5t14 26.5v156q0 59 -8 95t-28.5 51.5t-38 18.5t-54 3t-54 -3t-32 -16.5t-14.5 -40.5q0 -20 9 -44.5t9 -41.5q0 -33 -24.5 -54t-73.5 -21q-47 0 -70.5 28.5t-23.5 67.5q0 63 79 118.5t195 55.5 q184 0 277 -119q139 119 303 119q92 0 170 -43t122 -107.5t68.5 -131.5t24.5 -122q0 -6 -6 -6h-600v-45q0 -164 18.5 -242.5t63.5 -119.5q47 -43 139 -43q215 0 338 172q2 2 16.5 -11.5t12.5 -15.5q-61 -88 -159.5 -141t-207.5 -53q-147 0 -259 58t-155 148 q-14 -94 -85.5 -150t-153.5 -56q-119 0 -206 52t-87 163zM285 197q0 -158 125 -158q80 0 121.5 65.5t41.5 157.5v189q-16 -10 -38.5 -17.5t-39 -10.5t-48 -7t-46.5 -6q-43 -8 -62.5 -19.5t-36.5 -57.5t-17 -136zM803 530h403q2 117 -14 174.5t-53 94.5q-39 43 -115 43 q-92 0 -139 -43q-41 -37 -60.5 -93.5t-21.5 -175.5z" />
<glyph unicode="&#xe7;" horiz-adv-x="942" d="M92 436q0 186 129 320.5t311 134.5q137 0 231.5 -82t94.5 -168q0 -94 -94 -94q-43 0 -68.5 22.5t-25.5 55.5q0 25 12 52.5t12 59.5q0 57 -40 81t-122 24q-90 0 -135 -43q-45 -41 -63.5 -120t-18.5 -243t18.5 -242.5t63.5 -119.5q45 -43 135 -43q111 0 200 47t145 125 q2 2 7 -4t9 -13.5t2 -9.5q-59 -86 -153.5 -139t-196.5 -55q-18 -33 -19 -54q0 -41 20.5 -64.5t46 -32.5t46 -39t20.5 -83q0 -72 -39.5 -116t-113.5 -44q-80 0 -122 39t-42 93q0 23 13.5 38t37.5 15q43 0 43 -41q0 -18 -10 -32.5t-10 -22.5q0 -39 90 -39q92 0 92 67 q0 25 -21.5 42.5t-46 28.5t-46 43t-21.5 79q0 51 37 125q-172 14 -290 144t-118 308z" />
<glyph unicode="&#xe8;" horiz-adv-x="995" d="M90 436.5q0 188.5 130 321.5t315 133q94 0 170.5 -43t121.5 -107.5t70 -131.5t25 -122q0 -6 -7 -6h-600v-45q0 -166 17.5 -243.5t64.5 -118.5q45 -43 138 -43q217 0 339 172q2 2 15.5 -10.5t11.5 -14.5q-59 -88 -157.5 -142t-208.5 -54q-184 0 -314.5 133t-130.5 321.5z M221 1376q0 31 20.5 52.5t53.5 21.5t60.5 -29.5t55 -76t62.5 -94.5t99.5 -92t150.5 -62q2 -2 2 -25.5t-4 -23.5q-279 66 -389.5 153.5t-110.5 175.5zM315 530h404q-2 119 -17.5 175.5t-52.5 93.5q-39 43 -114 43q-92 0 -138 -43q-43 -37 -61.5 -93.5t-20.5 -175.5z" />
<glyph unicode="&#xe9;" horiz-adv-x="995" d="M90 436.5q0 188.5 130 321.5t315 133q94 0 170.5 -43t121.5 -107.5t70 -131.5t25 -122q0 -6 -7 -6h-600v-45q0 -166 17.5 -243.5t64.5 -118.5q45 -43 138 -43q217 0 339 172q2 2 15.5 -10.5t11.5 -14.5q-59 -88 -157.5 -142t-208.5 -54q-184 0 -314.5 133t-130.5 321.5z M315 530h404q-2 119 -17.5 175.5t-52.5 93.5q-39 43 -114 43q-92 0 -138 -43q-43 -37 -61.5 -93.5t-20.5 -175.5zM371 1070.5q0 23.5 2 25.5q86 18 150.5 62t99 92t62.5 94.5t54.5 76t59.5 29.5q35 0 55 -21.5t20 -52.5q0 -88 -109.5 -176t-389.5 -153q-4 0 -4 23.5z" />
<glyph unicode="&#xea;" horiz-adv-x="995" d="M90 436.5q0 188.5 130 321.5t315 133q94 0 170.5 -43t121.5 -107.5t70 -131.5t25 -122q0 -6 -7 -6h-600v-45q0 -166 17.5 -243.5t64.5 -118.5q45 -43 138 -43q217 0 339 172q2 2 15.5 -10.5t11.5 -14.5q-59 -88 -157.5 -142t-208.5 -54q-184 0 -314.5 133t-130.5 321.5z M227 1075q231 262 283 340q6 6 10 0q64 -94 285 -340q2 0 -2 -7t-10.5 -13t-8.5 -4l-278 194l-256 -194q0 -2 -6 4t-11 14zM315 530h404q-2 119 -17.5 175.5t-52.5 93.5q-39 43 -114 43q-92 0 -138 -43q-43 -37 -61.5 -93.5t-20.5 -175.5z" />
<glyph unicode="&#xeb;" horiz-adv-x="995" d="M90 436.5q0 188.5 130 321.5t315 133q94 0 170.5 -43t121.5 -107.5t70 -131.5t25 -122q0 -6 -7 -6h-600v-45q0 -166 17.5 -243.5t64.5 -118.5q45 -43 138 -43q217 0 339 172q2 2 15.5 -10.5t11.5 -14.5q-59 -88 -157.5 -142t-208.5 -54q-184 0 -314.5 133t-130.5 321.5z M213 1208q0 43 29.5 73t72.5 30q41 0 72 -30t31 -73t-31 -72.5t-72 -29.5q-43 0 -72.5 28.5t-29.5 73.5zM315 530h404q-2 119 -17.5 175.5t-52.5 93.5q-39 43 -114 43q-92 0 -138 -43q-43 -37 -61.5 -93.5t-20.5 -175.5zM625 1208q0 43 30.5 73t73.5 30q41 0 70.5 -30 t29.5 -73q0 -45 -29.5 -73.5t-70.5 -28.5q-43 0 -73.5 29.5t-30.5 72.5z" />
<glyph unicode="&#xec;" horiz-adv-x="620" d="M-70 1376q0 31 20.5 52.5t53.5 21.5t60.5 -29.5t55 -76t62.5 -94.5t99.5 -92t150.5 -62q2 -2 2 -25.5t-4 -23.5q-279 66 -389.5 153.5t-110.5 175.5zM78 24.5q0 24.5 4 24.5h119q14 0 14 8v758q0 8 -14 8h-119q-4 0 -4 24.5t4 24.5h338q8 0 8 -6v-809q0 -8 12 -8h119 q2 0 2 -24.5t-2 -24.5h-477q-4 0 -4 24.5z" />
<glyph unicode="&#xed;" horiz-adv-x="620" d="M78 24.5q0 24.5 4 24.5h119q14 0 14 8v758q0 8 -14 8h-119q-4 0 -4 24.5t4 24.5h338q8 0 8 -6v-809q0 -8 12 -8h119q2 0 2 -24.5t-2 -24.5h-477q-4 0 -4 24.5zM123 1070.5q0 23.5 2 25.5q86 18 150.5 62t99.5 92t62.5 94.5t54 76t59.5 29.5q35 0 55.5 -21.5t20.5 -52.5 q0 -88 -109.5 -176t-390.5 -153q-4 0 -4 23.5z" />
<glyph unicode="&#xee;" horiz-adv-x="620" d="M78 24.5q0 24.5 4 24.5h119q14 0 14 8v758q0 8 -14 8h-119q-4 0 -4 24.5t4 24.5h338q8 0 8 -6v-809q0 -8 12 -8h119q2 0 2 -24.5t-2 -24.5h-477q-4 0 -4 24.5zM80 1075q231 262 282 340q6 6 11 0q63 -94 284 -340q2 0 -2 -7t-10 -13t-8 -4l-279 194l-256 -194q0 -2 -6 4 t-10 14z" />
<glyph unicode="&#xef;" horiz-adv-x="620" d="M-10 1208q0 43 29.5 73t72.5 30q41 0 72 -30t31 -73t-31 -72.5t-72 -29.5q-43 0 -72.5 28.5t-29.5 73.5zM78 24.5q0 24.5 4 24.5h119q14 0 14 8v758q0 8 -14 8h-119q-4 0 -4 24.5t4 24.5h338q8 0 8 -6v-809q0 -8 12 -8h119q2 0 2 -24.5t-2 -24.5h-477q-4 0 -4 24.5z M401 1208q0 43 31 73t74 30q41 0 70.5 -30t29.5 -73q0 -45 -28.5 -73.5t-71.5 -28.5t-74 29.5t-31 72.5z" />
<glyph unicode="&#xf1;" horiz-adv-x="1169" d="M70 24.5q0 24.5 2 24.5h116q16 0 17 8v758q0 8 -17 8h-116q-2 0 -2 24.5t2 24.5h338q6 0 6 -6v-135q27 80 94.5 120t146.5 40q164 0 257.5 -90t93.5 -252v-492q0 -8 12 -8h115q4 0 4 -24.5t-4 -24.5h-469q-4 0 -4 24.5t4 24.5h114q10 0 11 8v576q0 102 -37 155.5 t-97 53.5q-92 0 -147 -48.5t-94 -162.5v-574q0 -8 14 -8h117q2 0 2 -24.5t-2 -24.5h-475q-2 0 -2 24.5zM236 1112q0 98 70.5 164.5t172.5 66.5q76 0 186.5 -43t151.5 -43q49 0 68.5 23t19.5 78q0 2 22.5 2t22.5 -2q0 -98 -70.5 -166t-168.5 -68q-78 0 -190.5 43t-153.5 43 q-47 0 -64.5 -22.5t-17.5 -75.5q0 -2 -24.5 -2t-24.5 2z" />
<glyph unicode="&#xf2;" horiz-adv-x="1064" d="M90 436.5q0 186.5 130 320.5t310 134q184 0 314.5 -133t130.5 -321.5t-130 -321.5t-315 -133q-180 0 -310 134t-130 320.5zM213 1376q0 31 20.5 52.5t53 21.5t60.5 -29.5t55.5 -76t62.5 -94.5t99.5 -92t150.5 -62q2 -2 2 -25.5t-4 -23.5q-279 66 -389.5 153.5 t-110.5 175.5zM311 436q0 -162 19.5 -241.5t64.5 -120.5q45 -43 135 -43q94 0 138 43q45 41 64.5 119.5t19.5 242.5q0 287 -84 363q-43 43 -138 43q-90 0 -135 -43q-84 -78 -84 -363z" />
<glyph unicode="&#xf3;" horiz-adv-x="1064" d="M90 436.5q0 186.5 130 320.5t310 134q184 0 314.5 -133t130.5 -321.5t-130 -321.5t-315 -133q-180 0 -310 134t-130 320.5zM311 436q0 -162 19.5 -241.5t64.5 -120.5q45 -43 135 -43q94 0 138 43q45 41 64.5 119.5t19.5 242.5q0 287 -84 363q-43 43 -138 43 q-90 0 -135 -43q-84 -78 -84 -363zM365 1070.5q0 23.5 2 25.5q86 18 150.5 62t99 92t62.5 94.5t54.5 76t59.5 29.5q35 0 55 -21.5t20 -52.5q0 -88 -109.5 -176t-389.5 -153q-4 0 -4 23.5z" />
<glyph unicode="&#xf4;" horiz-adv-x="1064" d="M90 436.5q0 186.5 130 320.5t310 134q184 0 314.5 -133t130.5 -321.5t-130 -321.5t-315 -133q-180 0 -310 134t-130 320.5zM252 1075q231 262 283 340q6 6 10 0q63 -94 284 -340q2 0 -2 -7t-10 -13t-8 -4l-279 194l-256 -194q0 -2 -6 4t-10 14zM311 436 q0 -162 19.5 -241.5t64.5 -120.5q45 -43 135 -43q94 0 138 43q45 41 64.5 119.5t19.5 242.5q0 287 -84 363q-43 43 -138 43q-90 0 -135 -43q-84 -78 -84 -363z" />
<glyph unicode="&#xf5;" horiz-adv-x="1064" d="M90 436.5q0 186.5 130 320.5t310 134q184 0 314.5 -133t130.5 -321.5t-130 -321.5t-315 -133q-180 0 -310 134t-130 320.5zM184 1112q0 98 71 164.5t173 66.5q76 0 186.5 -43t151.5 -43q49 0 68.5 23t19.5 78q0 2 22.5 2t22.5 -2q0 -98 -70.5 -166t-169.5 -68 q-78 0 -190.5 43t-153.5 43q-47 0 -64.5 -22.5t-17.5 -75.5q0 -2 -24.5 -2t-24.5 2zM311 436q0 -162 19.5 -241.5t64.5 -120.5q45 -43 135 -43q94 0 138 43q45 41 64.5 119.5t19.5 242.5q0 287 -84 363q-43 43 -138 43q-90 0 -135 -43q-84 -78 -84 -363z" />
<glyph unicode="&#xf6;" horiz-adv-x="1064" d="M90 436.5q0 186.5 130 320.5t310 134q184 0 314.5 -133t130.5 -321.5t-130 -321.5t-315 -133q-180 0 -310 134t-130 320.5zM225 1208q0 43 30 73t73 30q41 0 71.5 -30t30.5 -73t-30.5 -72.5t-71.5 -29.5q-43 0 -73 28.5t-30 73.5zM311 436q0 -162 19.5 -241.5 t64.5 -120.5q45 -43 135 -43q94 0 138 43q45 41 64.5 119.5t19.5 242.5q0 287 -84 363q-43 43 -138 43q-90 0 -135 -43q-84 -78 -84 -363zM637 1208q0 43 30.5 73t73.5 30q41 0 71 -30t30 -73q0 -45 -30 -73.5t-71 -28.5q-43 0 -73.5 29.5t-30.5 72.5z" />
<glyph unicode="&#xf8;" horiz-adv-x="1087" d="M100 436q0 186 130 320.5t311 134.5q125 0 221 -60q66 102 65 103q0 2 10.5 -4t19.5 -14.5t9 -10.5l-61 -100q84 -63 133 -160.5t49 -208.5q0 -188 -131 -321t-315 -133q-109 0 -217 59q-63 -98 -64 -98q-4 -4 -41 22l64 103q-84 63 -133.5 160.5t-49.5 207.5zM324 436 q0 -176 24 -266q365 584 365 586q-10 18 -35 43q-43 43 -137 43q-90 0 -135 -43q-82 -76 -82 -363zM369 117q4 -6 10 -13.5t14 -16.5t13 -13q45 -43 135 -43q94 0 137 43q47 41 66.5 119.5t19.5 242.5q0 168 -29 264z" />
<glyph unicode="&#xf9;" horiz-adv-x="1148" d="M39 847.5q0 24.5 2 24.5h340q6 0 6 -6v-626q0 -104 38 -157.5t95 -53.5q94 0 150.5 49t93.5 164v573q0 8 -16 8h-113q-6 0 -6 24.5t6 24.5h336q6 0 6 -6v-809q0 -8 14 -8h115q4 0 4 -24.5t-4 -24.5h-336q-6 0 -6 6v135q-27 -80 -94.5 -119.5t-149.5 -39.5q-162 0 -254 84 t-92 243v506q0 8 -16 8h-117q-2 0 -2 24.5zM207 1376q0 31 20.5 52.5t53 21.5t60.5 -29.5t55.5 -76t62.5 -94.5t99.5 -92t150.5 -62q2 -2 2 -25.5t-4 -23.5q-279 66 -389.5 153.5t-110.5 175.5z" />
<glyph unicode="&#xfa;" horiz-adv-x="1148" d="M39 847.5q0 24.5 2 24.5h340q6 0 6 -6v-626q0 -104 38 -157.5t95 -53.5q94 0 150.5 49t93.5 164v573q0 8 -16 8h-113q-6 0 -6 24.5t6 24.5h336q6 0 6 -6v-809q0 -8 14 -8h115q4 0 4 -24.5t-4 -24.5h-336q-6 0 -6 6v135q-27 -80 -94.5 -119.5t-149.5 -39.5q-162 0 -254 84 t-92 243v506q0 8 -16 8h-117q-2 0 -2 24.5zM344 1070.5q0 23.5 2 25.5q86 18 150.5 62t99.5 92t62.5 94.5t54 76t59.5 29.5q35 0 55.5 -21.5t20.5 -52.5q0 -88 -109.5 -176t-390.5 -153q-4 0 -4 23.5z" />
<glyph unicode="&#xfb;" horiz-adv-x="1148" d="M39 847.5q0 24.5 2 24.5h340q6 0 6 -6v-626q0 -104 38 -157.5t95 -53.5q94 0 150.5 49t93.5 164v573q0 8 -16 8h-113q-6 0 -6 24.5t6 24.5h336q6 0 6 -6v-809q0 -8 14 -8h115q4 0 4 -24.5t-4 -24.5h-336q-6 0 -6 6v135q-27 -80 -94.5 -119.5t-149.5 -39.5q-162 0 -254 84 t-92 243v506q0 8 -16 8h-117q-2 0 -2 24.5zM276 1075q231 262 283 340q6 6 10 0q64 -94 285 -340q2 0 -2 -7t-10 -13t-8 -4l-279 194l-256 -194q0 -2 -6 4t-10 14z" />
<glyph unicode="&#xfc;" horiz-adv-x="1148" d="M39 847.5q0 24.5 2 24.5h340q6 0 6 -6v-626q0 -104 38 -157.5t95 -53.5q94 0 150.5 49t93.5 164v573q0 8 -16 8h-113q-6 0 -6 24.5t6 24.5h336q6 0 6 -6v-809q0 -8 14 -8h115q4 0 4 -24.5t-4 -24.5h-336q-6 0 -6 6v135q-27 -80 -94.5 -119.5t-149.5 -39.5q-162 0 -254 84 t-92 243v506q0 8 -16 8h-117q-2 0 -2 24.5zM240 1208q0 43 29.5 73t72.5 30q41 0 71.5 -30t30.5 -73t-30.5 -72.5t-71.5 -29.5q-43 0 -72.5 28.5t-29.5 73.5zM651 1208q0 43 31 73t74 30q41 0 70.5 -30t29.5 -73q0 -45 -28.5 -73.5t-71.5 -28.5t-74 29.5t-31 72.5z" />
<glyph unicode="&#xff;" horiz-adv-x="929" d="M-45 848.5q0 23.5 4 23.5h508q8 0 8 -23.5t-8 -23.5h-129q-12 0 -8 -8l254 -592l196 514q29 84 15 86h-119q-4 0 -4 23.5t4 23.5h325q6 0 6 -23.5t-6 -23.5h-122q-14 0 -23.5 -14t-30.5 -72l-467 -1222q-61 -166 -204 -166q-63 0 -108.5 51t-45.5 115q0 53 30.5 89 t78.5 36q43 0 67.5 -24t24.5 -58q0 -25 -22.5 -56.5t-22.5 -54.5q0 -45 30 -45q84 0 127 109l179 467l-400 837q-4 8 -16 8h-117q-4 0 -4 23.5zM227 1208q0 43 30 73t73 30q41 0 71.5 -30t30.5 -73t-30.5 -72.5t-71.5 -29.5q-43 0 -73 28.5t-30 73.5zM639 1208q0 43 30.5 73 t73.5 30q41 0 71 -30t30 -73q0 -45 -29 -73.5t-72 -28.5t-73.5 29.5t-30.5 72.5z" />
<glyph unicode="&#x152;" horiz-adv-x="1906" d="M106 725q0 297 177.5 512t441.5 215h1016q6 0 6 -6v-424q0 -2 -22.5 -2t-22.5 2q0 160 -83 270.5t-253 110.5h-178q-12 0 -12 -8v-625h43q109 0 169 72.5t60 183.5q0 2 22.5 2t22.5 -2v-561q0 -4 -22.5 -4t-22.5 4q0 111 -60.5 183.5t-168.5 72.5h-43v-664q0 -8 12 -8 h184q217 0 323.5 123t106.5 299q0 4 22.5 4t22.5 -4v-465q0 -6 -6 -6h-1116q-256 0 -437.5 213t-181.5 512zM389 725q0 -272 30 -404.5t97 -201.5q76 -74 209 -74h180q10 0 10 8v1346q0 4 -10 4h-180q-137 0 -209 -70q-127 -129 -127 -608z" />
<glyph unicode="&#x153;" horiz-adv-x="1642" d="M90 436.5q0 188.5 131 321.5t316 133q190 0 321 -166q139 166 326 166q123 0 215 -74t131 -163t39 -167q0 -6 -6 -6h-600v-45q0 -164 19 -242.5t65 -119.5q43 -43 137 -43q211 0 338 172q2 2 15 -10.5t11 -14.5q-61 -90 -158.5 -143t-205.5 -53q-115 0 -185.5 44 t-140.5 126q-131 -170 -321 -170q-184 0 -315.5 133t-131.5 321.5zM313 436q0 -164 19.5 -242.5t66.5 -119.5q41 -43 138 -43q90 0 135 43q45 41 64.5 120.5t19.5 241.5q0 285 -84 363q-45 43 -135 43q-96 0 -138 -43q-86 -74 -86 -363zM963 530h405q-4 201 -70 269 q-39 43 -114 43q-94 0 -137 -43q-41 -39 -61.5 -95.5t-22.5 -173.5z" />
<glyph unicode="&#x178;" horiz-adv-x="1294" d="M-16 1427.5q0 24.5 2 24.5h673q2 0 2.5 -24.5t-2.5 -24.5h-182q-4 0 -8 -8l328 -690l266 612q33 84 24 86h-169q-4 0 -4.5 24.5t4.5 24.5h407q2 0 2 -24.5t-2 -24.5h-158q-8 0 -14 -7t-24.5 -43t-51.5 -110l-268 -620v-566q0 -8 12 -8h168q2 0 2 -24.5t-2 -24.5h-616 q-4 0 -4 24.5t4 24.5h170q10 0 10 8v576l-363 762q-4 8 -14 8h-190q-2 0 -2 24.5zM477 1731q0 43 30 72.5t73 29.5q41 0 71.5 -29.5t30.5 -72.5t-30.5 -73t-71.5 -30q-43 0 -73 29t-30 74zM889 1731q0 43 30.5 72.5t73.5 29.5q41 0 71 -29.5t30 -72.5t-29 -73t-72 -30 t-73.5 30t-30.5 73z" />
<glyph unicode="&#x2c6;" horiz-adv-x="636" d="M47 1075q231 262 283 340q6 6 10 0q64 -94 285 -340q2 0 -2.5 -7t-10.5 -13t-8 -4l-278 194l-256 -194q0 -2 -6.5 4t-10.5 14z" />
<glyph unicode="&#x2dc;" horiz-adv-x="786" d="M33 1112q0 98 70.5 164.5t172.5 66.5q76 0 186.5 -43t151.5 -43q49 0 68.5 23t19.5 78q0 2 23 2t23 -2q0 -98 -71 -166t-169 -68q-78 0 -190.5 43t-153.5 43q-47 0 -64.5 -22.5t-17.5 -75.5q0 -2 -24.5 -2t-24.5 2z" />
<glyph unicode="&#x2000;" horiz-adv-x="986" />
<glyph unicode="&#x2001;" horiz-adv-x="1972" />
<glyph unicode="&#x2002;" horiz-adv-x="986" />
<glyph unicode="&#x2003;" horiz-adv-x="1972" />
<glyph unicode="&#x2004;" horiz-adv-x="657" />
<glyph unicode="&#x2005;" horiz-adv-x="493" />
<glyph unicode="&#x2006;" horiz-adv-x="328" />
<glyph unicode="&#x2007;" horiz-adv-x="328" />
<glyph unicode="&#x2008;" horiz-adv-x="246" />
<glyph unicode="&#x2009;" horiz-adv-x="394" />
<glyph unicode="&#x200a;" horiz-adv-x="109" />
<glyph unicode="&#x2010;" horiz-adv-x="630" d="M68 422q-4 0 0 8q27 49 32 125h463q8 0 0 -8q-29 -53 -35 -125h-460z" />
<glyph unicode="&#x2011;" horiz-adv-x="630" d="M68 422q-4 0 0 8q27 49 32 125h463q8 0 0 -8q-29 -53 -35 -125h-460z" />
<glyph unicode="&#x2012;" horiz-adv-x="630" d="M68 422q-4 0 0 8q27 49 32 125h463q8 0 0 -8q-29 -53 -35 -125h-460z" />
<glyph unicode="&#x2013;" horiz-adv-x="1087" d="M78 483.5q0 24.5 2 24.5h928q4 0 4 -24.5t-4 -24.5h-928q-2 0 -2 24.5z" />
<glyph unicode="&#x2014;" horiz-adv-x="2017" d="M78 483.5q0 24.5 2 24.5h1857q4 0 4 -24.5t-4 -24.5h-1857q-2 0 -2 24.5z" />
<glyph unicode="&#x2018;" horiz-adv-x="438" d="M109 1130q0 98 65.5 213t163.5 148q2 0 4 -9t4 -19.5t0 -10.5q-20 -6 -55 -31q-68 -55 -68 -118.5t62 -112.5q39 -25 39 -90q0 -47 -32 -82t-73 -35q-111 0 -110 147z" />
<glyph unicode="&#x2019;" horiz-adv-x="442" d="M94 1014v6q18 4 58 33q68 55 67 116q0 66 -63 111q-37 29 -37 90q0 47 30.5 82t73.5 35q111 -1 111 -146q0 -98 -66.5 -212.5t-165.5 -145.5q-4 -2 -8 31z" />
<glyph unicode="&#x201a;" horiz-adv-x="442" d="M92 -248q23 6 58 31q68 55 67 119q0 61 -63 110q-37 29 -37 90q0 47 31.5 82t74.5 35q109 0 109 -145q0 -98 -65.5 -213t-164.5 -148q-2 0 -4 9.5t-4 19.5z" />
<glyph unicode="&#x201c;" horiz-adv-x="792" d="M109 1130q0 98 65.5 213t163.5 148q2 0 4 -9t4 -19.5t0 -10.5q-20 -6 -55 -31q-68 -55 -68 -118.5t62 -112.5q39 -25 39 -90q0 -47 -32 -82t-73 -35q-111 0 -110 147zM459 1130q0 98 65.5 213t163.5 148q2 0 4 -9t4 -19.5t0 -10.5q-27 -6 -55 -31q-68 -55 -68 -118.5 t62 -112.5q37 -23 37 -90q0 -47 -31 -82t-74 -35q-109 0 -108 147z" />
<glyph unicode="&#x201d;" horiz-adv-x="792" d="M94 1014v6q18 4 58 33q68 55 67 116q0 66 -63 111q-37 29 -37 90q0 47 30.5 82t73.5 35q111 -1 111 -146q0 -98 -66.5 -212.5t-165.5 -145.5q-4 -2 -8 31zM446 1014v6q25 6 56 33q66 53 65.5 116.5t-61.5 110.5q-37 29 -37 90q0 47 31.5 82t74.5 35q107 -1 107 -146 q0 -98 -65.5 -212.5t-161.5 -145.5q-4 -2 -9 31z" />
<glyph unicode="&#x201e;" horiz-adv-x="792" d="M92 -248q23 6 58 31q68 55 67 119q0 61 -63 110q-37 29 -37 90q0 47 31.5 82t74.5 35q109 0 109 -145q0 -98 -65.5 -213t-164.5 -148q-2 0 -4 9.5t-4 19.5zM444 -248q23 6 58 31q68 57 67.5 118.5t-63.5 110.5q-37 29 -37 90q0 47 30.5 82t73.5 35q111 0 111 -145 q0 -98 -65.5 -213t-163.5 -148q-2 0 -4 9.5t-5 19.5z" />
<glyph unicode="&#x2022;" horiz-adv-x="675" d="M106 725q0 104 69 178t163 74t161.5 -74t67.5 -178q0 -106 -66.5 -180t-162.5 -74q-94 0 -163 75t-69 179z" />
<glyph unicode="&#x2026;" horiz-adv-x="1216" d="M104 94q0 49 32 82t79 33q51 0 85 -33t34 -82q0 -51 -34 -86t-85 -35q-47 0 -79 35t-32 86zM496 94q0 49 31.5 82t78.5 33q51 0 85 -33t34 -82q0 -51 -34 -86t-85 -35q-47 0 -78.5 35t-31.5 86zM887 94q0 49 31.5 82t78.5 33q51 0 85 -33t34 -82q0 -51 -33.5 -86 t-85.5 -35q-47 0 -78.5 35t-31.5 86z" />
<glyph unicode="&#x202f;" horiz-adv-x="394" />
<glyph unicode="&#x2039;" horiz-adv-x="454" d="M68 432q-4 4 0 8q41 23 94 63t111.5 116.5t58.5 148.5q0 8 25.5 8t25.5 -8q0 -92 -38 -188.5t-83 -143.5q45 -47 83 -144.5t38 -187.5q0 -8 -25.5 -8t-25.5 8q0 72 -58.5 149t-111.5 117t-94 62z" />
<glyph unicode="&#x203a;" horiz-adv-x="454" d="M68 104q0 90 37.5 187.5t82.5 144.5q-45 47 -82.5 144.5t-37.5 187.5q0 8 24.5 8t24.5 -8q0 -55 32.5 -112.5t83 -102.5t85 -70.5t63.5 -42.5q8 -4 0 -8q-29 -16 -63.5 -41.5t-85 -71t-83 -102.5t-32.5 -113q0 -8 -24.5 -8t-24.5 8z" />
<glyph unicode="&#x205f;" horiz-adv-x="493" />
<glyph unicode="&#x2122;" horiz-adv-x="1122" d="M61 1305v145q0 2 2 2h402v-2v-145q0 -2 -23.5 -2t-23.5 2q0 55 -18.5 78.5t-80.5 23.5h-6q-4 0 -4 -2v-330q0 -2 4 -2h54q2 0 2 -20.5t-2 -20.5h-211q-2 0 -2 20.5t2 20.5h53l4 2v330q0 2 -4 2h-6q-63 0 -81 -22.5t-18 -79.5q0 -2 -21.5 -2t-21.5 2zM524 1052.5 q0 20.5 2 20.5h56l4 2v330q0 2 -4 2h-56q-2 0 -2 22.5t2 22.5h170q6 0 11 -10l92 -279l98 279q4 10 8 10h180q2 0 2 -22.5t-2 -22.5h-53q-4 0 -4 -2v-330q0 -2 4 -2h53q2 0 2 -20.5t-2 -20.5h-206q-2 0 -2 20.5t2 20.5h49l6 2v328l-137 -381q-2 -2 -18.5 -2t-16.5 2 l-133 367v-314q4 -2 6 -2h49q4 0 4 -20.5t-4 -20.5h-158q-2 0 -2 20.5z" />
<glyph unicode="&#x25fc;" horiz-adv-x="870" d="M0 0v870h870v-870h-870z" />
<glyph unicode="&#xfb01;" horiz-adv-x="1173" d="M70 846.5q0 23.5 2 23.5h145q12 0 12 9v41q0 324 122 463t354 139q147 0 230 -87t83 -186q0 -49 -34 -85t-85 -36q-55 0 -85 25t-30 66q0 29 16.5 58.5t16.5 61.5q0 70 -33.5 99.5t-121.5 29.5q-90 0 -155 -59t-65 -182v-348q0 -8 17 -9h528q4 0 4 -6v-809q0 -8 15 -8 h114q4 0 4 -23.5t-4 -23.5h-469q-6 0 -6 23.5t6 23.5h113q14 0 14 8v760q0 8 -14 8h-305q-16 0 -17 -8v-760q0 -8 17 -8h112q4 0 4 -23.5t-4 -23.5h-473q-2 0 -2 23.5t2 23.5h119q12 0 12 8v760q0 8 -12 8h-145q-2 0 -2 23.5z" />
<glyph unicode="&#xfb02;" horiz-adv-x="1153" d="M70 846.5q0 23.5 2 23.5h145q12 0 12 9v41q0 174 38 297.5t104.5 187t137.5 90.5t153 27q39 0 70.5 -9.5t50 -18.5t22.5 -9q10 0 88 18.5t94 18.5q4 0 4 -6v-1461q0 -8 15 -8h114q4 0 4 -23.5t-4 -23.5h-469q-6 0 -6 23.5t6 23.5h113q14 0 14 8v768h-319q-16 0 -17 -8 v-760q0 -8 17 -8h112q4 0 4 -23.5t-4 -23.5h-473q-2 0 -2 23.5t2 23.5h119q12 0 12 8v760q0 8 -12 8h-145q-2 0 -2 23.5zM442 879q0 -8 17 -9h319v555q0 14 -38 28.5t-78 14.5q-96 0 -158 -58t-62 -183v-348z" />
</font>
</defs>
</svg>
