<?xml version="1.0" standalone="no"?>
<!DOCTYPE svg PUBLIC "-//W3C//DTD SVG 1.1//EN" "http://www.w3.org/Graphics/SVG/1.1/DTD/svg11.dtd" >
<svg xmlns="http://www.w3.org/2000/svg">
<metadata>Generated by IcoMoon</metadata>
<defs>
<font id="icomoon" horiz-adv-x="1024">
<font-face units-per-em="1024" ascent="960" descent="-64" />
<missing-glyph horiz-adv-x="1024" />
<glyph unicode="&#x20;" horiz-adv-x="512" d="" />
<glyph unicode="&#xf002;" glyph-name="search" horiz-adv-x="986" d="M980.668-31.094l-287.359 298.762c71.802 72.64 116.155 172.546 116.155 282.811 0 222.221-180.146 402.367-402.367 402.367s-402.367-180.146-402.367-402.367c0-222.221 180.146-402.367 402.367-402.367 98.412 0 188.573 35.331 258.489 94l-0.622-0.508 287.684-299.739c3.551-3.62 8.493-5.865 13.96-5.865 0.017 0 0.035 0 0.052 0h-0.003c10.555 0.309 18.994 8.939 18.994 19.54 0 5.019-1.892 9.597-5.001 13.058l0.016-0.018zM404.648 186.869c-202.086 0.925-365.551 164.961-365.551 367.177 0 202.788 164.392 367.18 367.18 367.18s367.178-164.39 367.18-367.176v0c-0.184-202.829-164.652-367.183-367.506-367.183-0.458 0-0.916 0.001-1.374 0.003h0.071z" />
<glyph unicode="&#xf004;" glyph-name="heart" d="M745.28 924.16c-100.162-0.603-187.602-54.497-235.462-134.737l-0.698-1.263c-46.103 81.334-131.87 135.45-230.322 136h-0.078c-145.6 0-262.080-119.36-277.12-284.16-0.908-8.789-1.425-18.99-1.425-29.312 0-27.931 3.791-54.976 10.886-80.65l-0.5 2.122c23.321-94.611 73.245-175.291 141.31-236.085l0.45-0.395 356.48-323.84 362.88 323.84c68.515 61.189 118.439 141.869 141.095 233.308l0.665 3.172c7.359 24.832 11.593 53.363 11.593 82.882 0 8.785-0.375 17.482-1.11 26.077l0.077-1.119c-16.64 164.8-133.12 284.16-278.72 284.16z" />
<glyph unicode="&#xf00c;" glyph-name="check" horiz-adv-x="1582" d="M1529.805 960l-922.693-922.693-557.552 522.568-49.56-53.204 608.569-570.67 972.982 972.253-51.747 51.747z" />
<glyph unicode="&#xf00d;" glyph-name="times" horiz-adv-x="1031" d="M564.988 447.836l456.715 456.715c5.8 5.913 9.379 14.022 9.379 22.967s-3.579 17.054-9.384 22.972l0.005-0.005c-5.913 5.8-14.022 9.379-22.967 9.379s-17.054-3.579-22.972-9.384l-459.335-459.335-459.34 459.34c-5.415 4.097-12.263 6.562-19.686 6.562-18.12 0-32.81-14.69-32.81-32.81 0-7.423 2.465-14.271 6.622-19.769l-0.060 0.083 455.075-456.715-456.387-456.387c-5.8-5.913-9.379-14.022-9.379-22.967s3.579-17.054 9.384-22.972l-0.005 0.005c5.913-5.8 14.022-9.379 22.967-9.379s17.054 3.579 22.972 9.384l459.335 459.335 459.34-459.34c5.913-5.8 14.022-9.379 22.967-9.379s17.054 3.579 22.972 9.384l-0.005-0.005c5.8 5.913 9.379 14.022 9.379 22.967s-3.579 17.054-9.384 22.972l0.005-0.005z" />
<glyph unicode="&#xf055;" glyph-name="plus-circle" horiz-adv-x="1026" d="M558.338 644.772h-91.37v-140.971h-142.929v-88.107h142.929v-139.666h91.37v139.666h142.929v88.107h-142.929v140.971zM513.632 960h-1.632c-282.959-0.464-512.163-229.955-512.163-512.978 0-283.31 229.669-512.979 512.979-512.979s512.979 229.669 512.979 512.979c0 283.024-229.204 512.514-512.119 512.978h-0.044zM512-21.252c-259.161 0-469.252 210.091-469.252 469.252s210.091 469.252 469.252 469.252v0h1.632c258.81-0.464 468.437-210.378 468.437-469.252 0-259.161-210.091-469.252-469.252-469.252-0.287 0-0.574 0-0.86 0.001h0.044z" />
<glyph unicode="&#xf067;" glyph-name="plus" d="M536.272 472.272v487.728h-48.545v-487.728h-487.728v-48.545h487.728v-487.728h48.545v487.728h487.728v48.545h-487.728z" />
<glyph unicode="&#xf068;" glyph-name="minus" horiz-adv-x="14368" d="M7600.84 480.009h-834.25c-0.086 0.002-0.186 0.002-0.286 0.002-17.364 0-31.437-14.075-31.437-31.437 0-0.102 0.002-0.202 0.002-0.302l-0.002 0.014c-0.002-0.086-0.002-0.186-0.002-0.286 0-17.58 14.171-31.849 31.709-32.009l0.014-0.002h834.25c17.772 0.162 32.137 14.523 32.297 32.281l0.002 0.014c-0.162 17.556-14.431 31.725-32.009 31.725-0.102 0-0.202-0.002-0.302-0.002l0.014 0.002z" />
<glyph unicode="&#xf09a;" glyph-name="facebook" d="M768 960h-512c-141.385 0-256-114.615-256-256v0-512c0-141.385 114.615-256 256-256v0h512c141.385 0 256 114.615 256 256v0 512c0 141.385-114.615 256-256 256v0zM649.28 448h-96v-316.8h-122.56v316.8h-64v129.92h56.96v55.36c-0.22 2.785-0.345 6.030-0.345 9.305 0 69.455 56.305 125.76 125.76 125.76 3.274 0 6.52-0.125 9.731-0.371l-0.426 0.026h99.84v-108.8h-70.72c-11.2 0-26.88-7.36-26.88-32v-48.96h100.16z" />
<glyph unicode="&#xf0c9;" glyph-name="bars" horiz-adv-x="1260" d="M1232.738 17.526h-1205.169c-15.36 0-27.569-18.511-27.569-39.385s12.209-39.385 27.569-39.385h1205.169c15.36 0 27.569 18.117 27.569 39.385s-12.209 39.385-27.569 39.385zM1232.738 487.385h-1205.169c-15.36 0-27.569-18.117-27.569-39.385s12.209-39.385 27.569-39.385h1205.169c15.36 0 27.569 18.511 27.569 39.385s-12.209 39.385-27.569 39.385zM27.569 878.474h1205.169c15.36 0 27.569 18.511 27.569 39.385s-12.209 39.385-27.569 39.385h-1205.169c-15.36 2.757-27.569-15.36-27.569-36.628s12.209-42.142 27.569-42.142z" />
<glyph unicode="&#xf0d0;" glyph-name="magic" horiz-adv-x="1061" d="M1061.484-37.463l-12.605 11.278h-455.443c-28.762 0-52.079 23.317-52.079 52.079s23.317 52.079 52.079 52.079h145.622c0.014 0 0.031 0 0.048 0 90.201 0 163.583 72.005 165.805 161.67l0.004 0.206c-0.079 44.991-18.883 85.574-49.033 114.384l-0.060 0.057-99.514 96.86c20.235 15.591 33.171 25.874 38.81 31.513 29.092 27.885 47.17 67.062 47.17 110.461s-18.079 82.576-47.116 110.409l-0.054 0.051c-29.646 28.074-69.779 45.336-113.944 45.336s-84.297-17.262-114.020-45.407l0.076 0.071c-5.971-5.971-17.249-18.576-33.171-38.479-66.109 56.904-152.788 91.555-247.561 91.555-0.43 0-0.86-0.001-1.29-0.002h-198.962c-0.298-0.008-0.648-0.012-1-0.012-23.037 0-41.756 18.492-42.122 41.442v0.034c0.367 22.985 19.085 41.476 42.123 41.476 0.352 0 0.702-0.004 1.052-0.013l-0.052 0.001h142.305c0.203-0.001 0.443-0.002 0.683-0.002 55.91 0 101.365 44.764 102.479 100.407l0.002 0.104v8.625l-5.639 5.639c-3.773 3.496-8.841 5.64-14.41 5.64-0.065 0-0.13 0-0.195-0.001h-9.278l-11.278-12.273v-7.629c-0.555-33.465-27.814-60.38-61.359-60.38-0.353 0-0.705 0.003-1.056 0.009l0.053-0.001h-143.3c-0.695 0.021-1.512 0.033-2.332 0.033-45.345 0-82.19-36.394-82.917-81.566l-0.001-0.068c0.728-45.24 37.573-81.634 82.918-81.634 0.82 0 1.637 0.012 2.452 0.036l-0.12-0.003h199.028c0.361 0.001 0.788 0.002 1.216 0.002 85.133 0 162.93-31.411 222.433-83.276l-0.405 0.346c-120.412-154.247-380.476-502.878-474.351-626.939l-33.171-22.225v-48.43h63.026c49.094 33.171 183.106 127.71 323.421 226.56 8.352 5.796 14.202 14.693 15.893 24.991l0.030 0.219c0.236 1.616 0.371 3.482 0.371 5.38 0 8.564-2.75 16.486-7.416 22.93l0.079-0.114s0 0 0 0l-10.615 14.264-25.21-15.922h-1.99l-5.971-3.981-17.581-12.273-201.35-129.368c87.904 117.427 190.404 254.093 277.644 368.534 45.776 61.367 87.241 116.431 120.412 157.896s56.723 71.318 66.343 79.611c21.99 21.022 51.86 33.961 84.753 33.961s62.763-12.939 84.799-34.005l-0.046 0.044c21.488-20.726 34.833-49.771 34.833-81.933s-13.344-61.207-34.798-81.9l-0.034-0.033c-4.644-4.312-14.927-12.605-30.186-24.547l-34.83 99.514v7.629c-0.193 5.94-2.836 11.227-6.946 14.91l-0.020 0.017-7.961 18.908-120.080-116.1-5.971-6.303v-9.288c0.119-5.622 2.512-10.662 6.294-14.256l0.009-0.008 6.966-5.639h16.917l39.474 40.469 63.026-61.035c-42.459-33.171-107.807-78.948-207.653-149.603l-5.971-4.976-2.654-10.615v-3.649c0.626-3.279 1.902-6.182 3.694-8.691l-0.045 0.067 5.971-6.634h16.917l5.971 4.312c94.87 66.343 165.857 117.427 212.297 153.252l104.158-99.514c22.631-21.7 36.724-52.152 36.82-85.896v-0.018c-1.298-67.516-56.335-121.75-124.039-121.75-0.591 0-1.181 0.004-1.769 0.012l0.089-0.001h-143.632c-1.058 0.044-2.299 0.068-3.546 0.068-50.747 0-91.885-41.138-91.885-91.885 0-44.728 31.958-81.991 74.286-90.201l0.579-0.093h478.663l9.951 9.62zM660.774 544.363l11.942 11.942 12.937-36.157zM728.443 244.162v-0.332l22.888 18.244-24.215 15.591-9.288 9.288-3.981-9.288-6.634-7.298-0.332-38.81 12.605 8.956 4.976-5.971 3.981 9.62z" />
<glyph unicode="&#xf0d1;" glyph-name="truck" horiz-adv-x="1459" d="M1364.118 473.532h-30.547l-242.094 341.941c-3.926 5.544-10.316 9.12-17.541 9.12-0.085 0-0.169 0-0.253-0.001h-245.729v113.069c0.076 0.684 0.119 1.477 0.119 2.28 0 12.086-9.798 21.884-21.884 21.884-0.042 0-0.084 0-0.126 0h-729.469c-42.523-1.014-76.607-35.725-76.607-78.398 0-0.488 0.004-0.976 0.013-1.462l-0.001 0.073v-746.344c0.257-42.954 35.009-77.706 77.938-77.962h124.491c10.755-69.602 70.237-122.266 142.020-122.266s131.264 52.663 141.917 121.461l0.103 0.805h473.247c10.755-69.602 70.237-122.266 142.020-122.266s131.264 52.663 141.917 121.461l0.103 0.805h136.776c0 0 0.001 0 0.001 0 43.149 0 78.159 34.85 78.417 77.938v243.487c-0.259 52.178-42.617 94.376-94.831 94.376 0 0-0.001 0-0.001 0v0zM1062.297 779.455l217.019-306.835h-451.362v306.835zM344.221-19.776c-55.144 0-99.847 44.703-99.847 99.847v0c3.647 52.41 47.057 93.544 100.075 93.544s96.428-41.134 100.057-93.229l0.018-0.315c-0.259-55.199-45.066-99.847-100.302-99.847 0 0-0.001 0-0.001 0v0zM1101.963-19.776c-55.144 0-99.847 44.703-99.847 99.847s44.703 99.847 99.847 99.847c55.144 0 99.847-44.703 99.847-99.847v0c0-55.144-44.703-99.847-99.847-99.847v0zM1413.357 135.694c0-18.633-15.105-33.738-33.738-33.738v0h-136.776c-10.755 69.602-70.237 122.266-142.020 122.266s-131.264-52.663-141.917-121.461l-0.103-0.805h-472.335c-10.755 69.602-70.237 122.266-142.020 122.266s-131.264-52.663-141.917-121.461l-0.103-0.805h-124.467c-18.035 0.755-32.37 15.558-32.37 33.71 0 0.010 0 0.020 0 0.029v-0.002 746.344c-0.002 0.144-0.003 0.314-0.003 0.484 0 18.153 14.337 32.958 32.306 33.708l0.068 0.002h705.767v-464.584c0-0.001 0-0.003 0-0.005 0-12.086 9.798-21.884 21.884-21.884 0.16 0 0.32 0.002 0.48 0.005h558.024c27.355-0.763 49.24-23.12 49.24-50.589 0-0.006 0-0.013 0-0.019v0.001z" />
<glyph unicode="&#xf0d2;" glyph-name="pinterest" d="M768 960h-512c-141.385 0-256-114.615-256-256v0-512c0-141.385 114.615-256 256-256v0h512c141.385 0 256 114.615 256 256v0 512c0 141.385-114.615 256-256 256v0zM563.2 305.92c-0.906-0.027-1.972-0.042-3.042-0.042-36.849 0-69.482 18.054-89.535 45.798l-0.223 0.324s-21.76-84.48-26.56-100.8c-16.835-46.185-40.031-86.072-69.014-120.982l0.534 0.662c-0.945-1.104-2.34-1.799-3.897-1.799-2.559 0-4.68 1.878-5.059 4.33l-0.004 0.029c-3.635 20.972-5.713 45.123-5.713 69.76s2.078 48.788 6.067 72.288l-0.355-2.528 49.6 199.36c-7.684 16.643-12.166 36.117-12.166 56.638 0 0.451 0.002 0.901 0.006 1.351l-0.001-0.069c0 54.4 32 96 73.28 96 0.364 0.009 0.793 0.015 1.223 0.015 27.747 0 50.24-22.493 50.24-50.24 0-1.809-0.096-3.595-0.282-5.354l0.019 0.219c-7.858-49.51-18.995-93.267-33.653-135.376l1.653 5.456c-1.044-4.089-1.643-8.784-1.643-13.619 0-31.635 25.645-57.28 57.28-57.28 1.592 0 3.168 0.065 4.727 0.192l-0.205-0.013c71.36 0 120 89.28 120 194.88 0 80.64-56 140.8-157.44 140.8-2.87 0.166-6.226 0.26-9.605 0.26-97.438 0-176.516-78.609-177.274-175.868v-0.072c-0.049-1.207-0.078-2.624-0.078-4.048 0-26.102 9.47-49.991 25.161-68.421l-0.124 0.149c7.36-8 8.32-11.52 5.76-20.48s-5.76-22.72-8-29.12c-1.086-6.061-6.317-10.601-12.61-10.601-2.304 0-4.466 0.609-6.333 1.674l0.063-0.033c-52.8 21.12-77.12 77.12-77.12 140.48-1.28 103.36 89.92 228.16 269.44 228.16 143.68 0 239.68-101.44 239.68-210.24 0-144.64-82.88-251.84-204.8-251.84z" />
<glyph unicode="&#xf0e0;" glyph-name="envelope" horiz-adv-x="1441" d="M1324.233 960h-1208.265c-63.943-0.259-115.708-52.025-115.968-115.943v-792.089c0-64.047 51.921-115.968 115.968-115.968v0h1208.265c0 0 0.001 0 0.001 0 64.139 0 116.165 51.865 116.425 115.943v792.089c-0.26 64.103-52.286 115.968-116.425 115.968 0 0-0.001 0-0.001 0v0zM115.968 914.163h1208.265c12.132-0.173 23.478-3.38 33.361-8.893l-0.359 0.184-582.131-508.333c-14.767-12.229-33.905-19.649-54.775-19.649s-40.008 7.419-54.919 19.765l0.144-0.116-582.131 507.875c9.358 5.428 20.52 8.782 32.433 9.165l0.111 0.003zM1393.905 52.426c0-38.479-31.193-69.672-69.672-69.672h-1208.265c-0.002 0-0.004 0-0.006 0-38.41 0-69.608 30.878-70.124 69.165l-0.001 0.049v792.064c0.653 8.918 2.782 17.177 6.146 24.767l-0.187-0.474 472.58-412.534-266.313-246.603c-4.107-4.275-6.636-10.093-6.636-16.501s2.529-12.226 6.643-16.509l-0.008 0.008c4.343-4.387 10.311-7.158 16.927-7.333l0.033-0.001c6.214 0.062 11.85 2.492 16.056 6.43l-0.013-0.012 267.23 250.729c0.071 0.345 0.111 0.74 0.111 1.146s-0.040 0.801-0.118 1.184l0.006-0.038 76.090-66.464c22.8-19.107 52.452-30.712 84.814-30.712 0.156 0 0.311 0 0.467 0.001h-0.024c0.328-0.003 0.716-0.005 1.104-0.005 32.149 0 61.586 11.613 84.344 30.874l-0.192-0.158 76.090 66.464s0 0 0-2.292l267.23-250.729c4.193-3.925 9.829-6.356 16.031-6.417h0.012c6.648 0.176 12.617 2.947 16.958 7.332l0.002 0.002c4.213 4.228 6.818 10.060 6.818 16.501s-2.605 12.274-6.819 16.502l0.001-0.001-264.48 249.354 472.122 409.783c3.153-7.88 5.001-17.011 5.042-26.569v-0.017z" />
<glyph unicode="&#xf0e2;" glyph-name="undo" horiz-adv-x="1150" d="M633.503 960c-0.372 0.001-0.812 0.002-1.252 0.002-266.216 0-485.243-202.037-512.117-461.145l-0.186-2.211-88.85 133.275c-3.114 4.096-7.989 6.713-13.476 6.713-3.413 0-6.59-1.013-9.245-2.754l0.064 0.039c-4.33-2.907-7.142-7.786-7.142-13.321 0-3.315 1.009-6.395 2.736-8.948l-0.036 0.056 117.727-171.481c2.14-2.876 5.222-4.945 8.784-5.756l0.101-0.019h2.666c2.802 0.065 5.401 0.883 7.617 2.258l-0.064-0.037 174.591 114.173c4.45 2.889 7.353 7.835 7.353 13.458 0 3.446-1.090 6.637-2.944 9.248l0.033-0.049c-3.019 4.183-7.879 6.874-13.369 6.874-3.47 0-6.69-1.076-9.343-2.911l0.055 0.036-145.715-98.18c14.991 254.825 225.305 455.802 482.56 455.802 266.944 0 483.346-216.401 483.346-483.346s-216.401-483.346-483.346-483.346c-0.192 0-0.385 0-0.577 0h0.030c-165.475 0.013-311.54 83.102-398.764 209.831l-1.062 1.633c-3.019 4.183-7.879 6.874-13.369 6.874-3.47 0-6.69-1.076-9.343-2.911l0.055 0.036c-4.254-2.82-7.020-7.588-7.020-13.001 0-3.466 1.134-6.668 3.052-9.253l-0.030 0.042c94.419-136.838 250.348-225.373 426.957-225.373 283.609 0 513.893 228.315 517.076 511.171l0.003 0.3c-1.509 283.219-231.451 512.229-514.881 512.229-0.939 0-1.878-0.003-2.816-0.008l0.144 0.001z" />
<glyph unicode="&#xf104;" glyph-name="angle-left" horiz-adv-x="532" d="M5.892 434.056l492.164-492.164c3.56-3.588 8.492-5.809 13.944-5.809s10.384 2.221 13.943 5.808l0.001 0.001c3.471 3.54 5.614 8.393 5.614 13.748s-2.143 10.208-5.617 13.751l0.003-0.003-478.417 479.988 478.417 477.238c3.498 3.544 5.659 8.417 5.659 13.793 0 10.847-8.793 19.639-19.639 19.639-0.471 0-0.938-0.017-1.401-0.049l0.062 0.004c-5.526-0.014-10.524-2.263-14.14-5.891l-490.594-492.165c-3.348-3.209-5.537-7.604-5.888-12.507l-0.004-0.062c-0.051-0.516-0.081-1.116-0.081-1.723 0-5.373 2.296-10.21 5.959-13.584l0.013-0.012z" />
<glyph unicode="&#xf105;" glyph-name="angle-right" horiz-adv-x="532" d="M525.944 461.944l-492.557 492.164c-3.448 3.667-8.331 5.951-13.748 5.951s-10.3-2.284-13.738-5.942l-0.009-0.010c-3.667-3.448-5.951-8.331-5.951-13.748s2.284-10.3 5.942-13.738l0.010-0.009 478.417-477.238-478.417-479.988c-3.667-3.448-5.951-8.331-5.951-13.748s2.284-10.3 5.942-13.738l0.010-0.009c3.381-3.63 8.187-5.893 13.523-5.893 0.079 0 0.158 0 0.237 0.001h-0.012c0.067-0.001 0.146-0.001 0.225-0.001 5.335 0 10.142 2.263 13.512 5.882l0.010 0.011 492.557 492.164c3.561 3.658 5.789 8.63 5.892 14.121v0.020c-0.124 5.383-2.352 10.222-5.891 13.747l-0.001 0.001z" />
<glyph unicode="&#xf106;" glyph-name="angle-up" horiz-adv-x="1972" d="M970.804 729.528l-532.852-532.852c-3.885-3.858-6.285-9.193-6.285-15.093s2.401-11.239 6.283-15.093l0.002-0.002c3.829-3.757 9.081-6.077 14.878-6.077s11.059 2.318 14.884 6.083l-0.006-0.006 516.695 517.974 519.681-517.974c3.829-3.757 9.081-6.081 14.881-6.081 11.635 0 21.1 9.348 21.262 20.952v0.020c-0.020 5.987-2.454 11.383-6.383 15.304l-532.853 532.853c-3.793 3.977-9.145 6.432-15.057 6.432-0.535 0-1.059-0.020-1.603-0.056l0.069 0.008c-5.395-0.299-10.182-2.682-13.596-6.366l-0.020-0.020z" />
<glyph unicode="&#xf107;" glyph-name="angle-down" horiz-adv-x="1956" d="M993.919 150.727l562.58 563.024c4.199 3.935 6.804 9.519 6.804 15.713s-2.604 11.769-6.785 15.711l-0.019 0.018c-3.935 4.199-9.519 6.804-15.713 6.804s-11.769-2.604-15.711-6.785l-0.018-0.019-548.657-546.871-545.518 546.871c-3.935 4.199-9.519 6.804-15.713 6.804s-11.769-2.604-15.711-6.785l-0.018-0.019c-4.154-3.857-6.743-9.366-6.743-15.451 0-0.095 0.001-0.174 0.003-0.274v0.019c-0.002-0.077-0.003-0.171-0.003-0.251 0-6.099 2.589-11.595 6.722-15.447l562.6-563.044c4.183-4.074 9.861-6.622 16.135-6.74l0.019-0.001c6.151 0.134 11.685 2.683 15.713 6.74l0.001 0.001z" />
<glyph unicode="&#xf16d;" glyph-name="instagram" horiz-adv-x="1025" d="M512.48 335.735c61.914 0 112.105 50.191 112.105 112.105v0c-0.080 24.748-7.988 47.633-21.375 66.328l0.235-0.346c-20.447 28.615-53.553 47.047-90.965 47.047s-70.519-18.431-90.736-46.709l-0.229-0.338c-13.323-18.405-21.35-41.405-21.46-66.275v-0.027c0.182-61.776 50.303-111.785 112.105-111.785 0.113 0 0.226 0 0.338 0h-0.018zM686.724 447.52c-4.12-93.312-80.77-167.401-174.724-167.401s-170.604 74.090-174.711 167.031l-0.013 0.37c-0.009 0.632-0.015 1.377-0.015 2.124 0 22.425 4.841 43.719 13.536 62.894l-0.389-0.958h-98.332v-259.443c1.036-34.955 29.105-63.024 63.963-64.058l0.097-0.002h391.727c34.955 1.036 63.024 29.105 64.058 63.963l0.002 0.097v259.443h-99.293c8.68-18.816 13.846-40.804 14.092-63.972l0.001-0.088zM755.909 679.737v14.414l-12.812-0.641h-94.489v-108.261h107.301v94.489zM768.721 960h-512.48c-141.518 0-256.24-114.723-256.24-256.24v0-512.48c0-141.518 114.723-256.24 256.24-256.24v0h512.48c141.518 0 256.24 114.723 256.24 256.24v0 512.48c-1.433 140.938-115.303 254.807-256.104 256.239l-0.136 0.001zM830.218 513.822v-261.685c0.007-0.479 0.011-1.045 0.011-1.612 0-65.983-53.489-119.472-119.472-119.472-0.567 0-1.133 0.004-1.698 0.012l0.086-0.001h-393.008c-0.479-0.007-1.045-0.011-1.612-0.011-65.983 0-119.472 53.489-119.472 119.472 0 0.567 0.004 1.133 0.012 1.698l-0.001-0.086v391.727c-0.007 0.479-0.011 1.045-0.011 1.612 0 65.983 53.489 119.472 119.472 119.472 0.567 0 1.133-0.004 1.698-0.012l-0.086 0.001h391.727c0.479 0.007 1.045 0.011 1.612 0.011 65.983 0 119.472-53.489 119.472-119.472 0-0.567-0.004-1.133-0.012-1.698l0.001 0.086z" />
<glyph unicode="&#xf290;" glyph-name="shopping-bag" horiz-adv-x="764" d="M729.234 685.349c-0.401 8.162-7.117 14.629-15.343 14.629-0.006 0-0.012 0-0.018 0h-148.479v77.166c0 100.989-81.868 182.857-182.857 182.857s-182.857-81.868-182.857-182.857v0-76.8h-149.211c-0.011 0-0.025 0-0.038 0-8.299 0-15.097-6.429-15.684-14.578l-0.003-0.051-34.743-733.623c0.036-4.368 1.695-8.341 4.402-11.353l-0.014 0.016c2.792-2.866 6.663-4.67 10.956-4.754h731.445c4.434 0.023 8.44 1.837 11.336 4.753l0.001 0.001c2.516 2.675 4.061 6.288 4.061 10.262 0 0.378-0.014 0.754-0.042 1.125l0.003-0.050zM230.034 777.143c0 84.023 68.114 152.137 152.137 152.137s152.137-68.114 152.137-152.137v0-76.8h-304.274zM31.817-32.914l33.28 700.343h133.851v-44.983c0-8.483 6.877-15.36 15.36-15.36v0c0.001 0 0.003 0 0.004 0 8.556 0 15.517 6.834 15.721 15.341v45.002h304.274v-44.983c1.201-7.596 7.702-13.335 15.543-13.335s14.342 5.739 15.531 13.245l0.012 0.089v44.983h133.486l32.549-700.343z" />
<glyph unicode="&#xf2bd;" glyph-name="user-circle" d="M1024 448c0 0.226 0.001 0.493 0.001 0.76 0 282.77-229.23 512-512 512s-512-229.23-512-512c0-156.868 70.546-297.259 181.643-391.177l0.756-0.623s0 0 0 0l2.24-1.92 10.56-8c8.64-6.72 17.6-13.76 26.88-20.16l16.32-10.24c7.68-4.8 15.040-9.6 23.040-14.080s13.44-7.040 20.48-10.56l20.8-10.24 23.040-9.6 20.48-7.36c8-2.88 16-5.44 24.32-7.68s14.72-3.84 22.080-5.76l23.68-5.12c8.96-1.92 17.92-2.88 26.88-4.16l19.84-2.56c14.298-1.871 31.254-3.139 48.431-3.511l0.529-0.009c17.084 0.051 33.885 0.979 50.437 2.743l-2.117-0.183 19.84 2.56c8.96 0 17.92 2.24 27.2 4.16l23.36 5.12c7.36 1.92 14.72 3.52 22.080 5.76s16.32 4.8 24.32 7.68 13.76 4.8 20.48 7.68l23.040 9.28 21.12 10.24c6.72 3.52 13.44 6.72 20.16 10.56s15.68 9.28 23.36 14.080l16 10.24c9.28 6.4 18.24 13.44 27.2 20.16 3.2 2.88 7.040 5.44 10.24 8l2.24 1.92s0 0 0 0c112.145 94.482 182.933 234.964 183.040 391.982v0.018zM402.88 210.24c-2.254 3.694-5.869 6.368-10.133 7.339l-0.107 0.021c-120.64 24.64-153.92 84.48-162.24 106.56 50.083 46.228 81.342 112.208 81.342 185.488 0 4.88-0.139 9.727-0.412 14.538l0.030-0.666c0 150.4 33.92 250.88 200.64 250.88s200.64-100.48 200.64-250.88c-0.243-4.145-0.382-8.992-0.382-13.872 0-73.28 31.259-139.259 81.17-185.331l0.172-0.157c-8.32-22.4-41.6-81.92-162.24-106.56-4.275-1-7.791-3.678-9.881-7.286l-0.039-0.074c-1.413-2.22-2.253-4.925-2.253-7.826 0-1.547 0.239-3.038 0.681-4.439l-0.028 0.104c16-55.68 60.48-90.24 164.16-128l16-6.080-11.84-8.96-13.12-8.96c-7.68-5.12-15.68-9.92-23.68-14.4l-14.080-8.32c-9.92-5.12-20.16-9.92-32-14.72l-22.4-8.96c-8-3.2-15.68-6.080-23.68-8.64-5.064-1.861-11.695-3.839-18.458-5.477l-1.382-0.283-22.4-6.080-19.52-3.84-26.56-4.16-16.32-1.92c-14.4 0-29.12-2.24-44.16-2.24v0c-15.040 0-29.76 0-44.16 2.24l-16.32 1.92-26.56 4.16-19.52 3.84-22.4 5.76-19.84 6.080-21.76 8.96c-7.68 3.2-15.68 6.080-23.36 9.6s-20.16 9.28-30.080 14.4l-14.080 8c-8 4.48-16 9.28-23.68 14.4l-13.12 8.96-11.52 8.64 16.32 6.080c103.68 37.76 148.16 72.32 164.48 128 0.225 1.055 0.353 2.267 0.353 3.508 0 3.18-0.843 6.163-2.319 8.738l0.045-0.086zM827.84 86.080c-10.24 4.48-21.12 8.64-32 13.12-82.88 28.8-123.84 55.68-140.48 92.8 152.64 38.080 170.56 132.16 171.52 136.32 0.091 0.648 0.143 1.397 0.143 2.157 0 5.604-2.824 10.548-7.127 13.486l-0.056 0.036c-2.88 1.92-76.16 52.16-76.16 180.48 0 139.2-27.52 281.92-231.68 281.92s-231.68-143.68-231.68-282.88c0-128-73.28-178.56-76.16-180.48-4.368-2.904-7.208-7.804-7.208-13.368 0-0.816 0.061-1.617 0.179-2.4l-0.011 0.088c0-4.16 18.88-98.24 171.52-136.32-16.64-36.16-57.6-63.040-139.2-91.84-12.16-4.48-23.040-8.64-32-13.12-100.841 88.446-164.16 217.553-164.16 361.449 0 265.097 214.903 480 480 480s480-214.903 480-480c0-143.896-63.319-273.003-163.614-360.979l-0.546-0.47z" />
<glyph unicode="&#xf2ed;" glyph-name="trash-alt" horiz-adv-x="833" d="M416.439 74.901c0.079-0.001 0.172-0.002 0.265-0.002 9.516 0 17.23 7.714 17.23 17.23 0 0.001 0 0.001 0 0.002v0 572.836c-1.107 8.693-8.458 15.346-17.363 15.346s-16.256-6.653-17.354-15.259l-0.009-0.087v-572.836c0-9.516 7.714-17.23 17.23-17.23v0zM243.077 74.901c9.516 0 17.23 7.714 17.23 17.23v0 572.836c-1.107 8.693-8.458 15.346-17.363 15.346s-16.256-6.653-17.354-15.259l-0.009-0.087v-572.836c0-0.001 0-0.001 0-0.002 0-9.516 7.714-17.23 17.23-17.23 0.093 0 0.186 0.001 0.279 0.002h-0.014zM590.066 74.901c0.001 0 0.001 0 0.002 0 9.569 0 17.344 7.682 17.493 17.216v572.85c-0.149 9.548-7.924 17.23-17.493 17.23-0.001 0-0.001 0-0.002 0v0c-9.516 0-17.23-7.714-17.23-17.23v-572.836c0-9.516 7.714-17.23 17.23-17.23v0zM815.648 855.824h-243.608c-1.491 31.347-13.153 59.712-31.731 82.141l0.186-0.231c-13.36 13.756-32.030 22.292-52.694 22.292-0.672 0-1.343-0.009-2.011-0.027l0.098 0.002h-173.362c-0.602 0.018-1.311 0.028-2.021 0.028-20.63 0-39.266-8.539-52.566-22.275l-0.019-0.020c-18.507-22.139-30.199-50.541-31.535-81.626l-0.010-0.283h-209.147c-8.693-1.107-15.346-8.458-15.346-17.363s6.653-16.256 15.259-17.354l0.087-0.009h35.786l32.87-798.683c-0.017-0.634-0.027-1.38-0.027-2.128 0-46.555 37.74-84.295 84.295-84.295 0.382 0 0.764 0.003 1.145 0.008l-0.058-0.001h491.456c0.323-0.004 0.705-0.007 1.087-0.007 46.409 0 84.030 37.622 84.030 84.030 0 0.748-0.010 1.494-0.029 2.237l0.002-0.11 32.605 798.948h35.256c0.645-0.084 1.392-0.133 2.149-0.133 9.662 0 17.495 7.833 17.495 17.495s-7.833 17.495-17.495 17.495c-0.758 0-1.504-0.048-2.236-0.142l0.087 0.009zM282.839 913.346c7.142 7.377 17.136 11.957 28.199 11.957 0.524 0 1.045-0.010 1.564-0.031l-0.075 0.002h173.362c0.444 0.018 0.966 0.028 1.489 0.028 11.063 0 21.057-4.579 28.189-11.946l0.010-0.011c12.546-15.714 20.474-35.605 21.464-57.305l0.008-0.217h-275.682c0.997 21.917 8.926 41.808 21.626 57.723l-0.155-0.201zM712.267 23.211c0.044-0.792 0.070-1.718 0.070-2.651 0-27.816-22.549-50.365-50.365-50.365-0.025 0-0.049 0-0.074 0h-490.657c-28.041 0.281-50.664 23.077-50.664 51.158 0 0.653 0.012 1.304 0.037 1.951l-0.003-0.093-33.135 797.888h658.191z" />
<glyph unicode="&#xf304;" glyph-name="pen" d="M986.56 832l-90.56 90.56c-23.168 23.193-55.189 37.541-90.56 37.541s-67.391-14.347-90.559-37.539l-549.441-549.441c-24.96-24.96-101.44-121.92-101.44-154.56l-64-282.56 282.56 64c59.822 34.544 110.288 68.067 158.579 104.329l-4.019-2.889 549.44 549.44c23.193 23.168 37.541 55.189 37.541 90.56s-14.347 67.391-37.539 90.559l-0.001 0.001zM258.56 60.16l-173.76-39.36 43.2 183.68c0.085 1.196 0.134 2.593 0.134 4s-0.049 2.804-0.144 4.187l0.010-0.187 144.64-144.96zM392 146.88c-18.373-14.126-39.259-28.383-60.926-41.476l-3.074-1.724-164.8 165.76c15.37 21.657 31.020 40.658 47.904 58.479l-0.224-0.239 413.76 413.76 180.8-180.8zM941.12 696.32l-90.24-90.56-181.12 181.12 90.56 90.24c11.584 11.597 27.594 18.77 45.28 18.77s33.696-7.174 45.279-18.77l0.001-0.001 90.56-90.24c11.472-11.563 18.561-27.489 18.561-45.070 0-0.13 0-0.26-0.001-0.39v0.020c-0.077-17.642-7.28-33.587-18.877-45.117l-0.003-0.003z" />
<glyph unicode="&#xf3c5;" glyph-name="map-marker-alt" horiz-adv-x="754" d="M376.96 758.080c-96.849 0-175.36-78.511-175.36-175.36s78.511-175.36 175.36-175.36c96.849 0 175.36 78.511 175.36 175.36 0 0.113 0 0.225 0 0.338v-0.018c-0.182 96.711-78.624 175.040-175.36 175.040 0 0 0 0 0 0v0zM376.96 438.080c-79.706 0-144.32 64.614-144.32 144.32s64.614 144.32 144.32 144.32c79.706 0 144.32-64.614 144.32-144.32v0c-0.363-79.495-64.799-143.819-144.303-144h-0.017zM376.96 960c-208.155-0.364-376.778-169.1-376.96-377.262v-0.018c0-202.88 352-623.36 365.12-640 2.908-3.299 7.125-5.385 11.83-5.44h0.010c0.078-0.001 0.169-0.002 0.26-0.002 4.647 0 8.801 2.107 11.56 5.418l0.020 0.024c15.040 17.92 365.44 438.4 365.44 640-0.182 208.292-168.987 377.098-377.262 377.28h-0.018zM376.96-24.32c-61.76 76.16-344.96 435.52-344.96 607.040 0 191.223 155.017 346.24 346.24 346.24s346.24-155.017 346.24-346.24v0c-1.28-171.52-285.44-530.56-347.52-607.040z" />
<glyph unicode="&#xf4df;" glyph-name="truck-moving" horiz-adv-x="1705" d="M1670.806 508.597l-271.808 271.808c-24.312 22.064-56.259 36.108-91.447 37.751l-0.326 0.012h-170.813v113.729c0 15.521-12.582 28.103-28.103 28.103v0h-1079.767c-0.131 0.002-0.285 0.003-0.439 0.003-15.521 0-28.103-12.582-28.103-28.103 0-0.001 0-0.002 0-0.004v0-767.122c0-15.763 12.779-28.542 28.542-28.542v0h201.111c-1.537-8.594-2.415-18.487-2.415-28.585 0-94.095 76.279-170.374 170.374-170.374s170.374 76.279 170.374 170.374c0 10.098-0.879 19.991-2.563 29.606l0.148-1.021h630.559c-1.676-8.974-2.635-19.298-2.635-29.846 0-94.095 76.279-170.374 170.374-170.374s170.374 76.279 170.374 170.374c0 10.548-0.959 20.873-2.793 30.891l0.159-1.045h59.719c62.811 0 113.729 50.918 113.729 113.729v0 175.643c0 0.053 0 0.115 0 0.178 0 32.331-13.087 61.606-34.253 82.816l0.002-0.002zM1307.225 761.523c19.782-1.861 37.451-9.683 51.508-21.626l-0.132 0.11 234.484-234.484h-342.943v256zM1079.767 903.355v-511.561h-1023.122v511.561zM397.832-6.038c-62.811 0-113.729 50.918-113.729 113.729s50.918 113.729 113.729 113.729c62.811 0 113.729-50.918 113.729-113.729v0c0-62.811-50.918-113.729-113.729-113.729v0zM397.832 278.065c-0.073 0-0.159 0-0.246 0-62.657 0-117.395-33.911-146.86-84.381l-0.435-0.806h-193.647v142.271h1023.122v-142.271h-534.395c-30.133 51.158-84.864 84.993-147.512 85.187h-0.028zM1363.87-6.038c-62.811 0-113.729 50.918-113.729 113.729s50.918 113.729 113.729 113.729c62.811 0 113.729-50.918 113.729-113.729v0c0-62.811-50.918-113.729-113.729-113.729v0zM1647.973 249.962c0 0 0-0.001 0-0.002 0-31.372-25.308-56.834-56.621-57.082h-79.942c-30.008 51.278-84.816 85.173-147.54 85.173s-117.532-33.896-147.105-84.37l-0.435-0.804h-79.918v568.645h57.084v-284.542c0-15.521 12.582-28.103 28.103-28.103v0h421.544c2.975-6.864 4.742-14.85 4.83-23.239v-0.033z" />
<glyph unicode="&#xf879;" glyph-name="phone-alt" d="M939.52-13.76c40.64 38.72 86.72 82.56 84.48 141.76-1.6 40-26.56 78.72-75.84 118.080-145.28 117.12-197.12 64-256 3.52l-10.88-10.88c-18.24-18.24-62.080 6.080-86.72 22.080-54.798 37.74-102.734 78.26-146.365 122.999l-0.195 0.201c-175.36 175.68-156.48 222.080-146.56 232l10.56 10.56c61.12 60.16 113.92 112-3.2 256-39.36 50.88-78.080 75.84-116.8 77.44-59.2 1.92-103.040-43.84-141.44-84.48l-18.56-19.52c-20.062-23.341-32.277-53.931-32.277-87.374 0-3.035 0.101-6.046 0.299-9.031l-0.022 0.405c1.632-55.157 13.238-107.163 33.065-154.893l-1.065 2.893c63.043-148.389 150.989-274.703 259.804-379.499l0.356-0.341c105.088-109.244 231.417-197.204 372.447-257.357l7.393-2.803c44.444-18.578 95.982-30.165 149.996-31.981l0.724-0.019c2.678-0.192 5.803-0.301 8.954-0.301 33.342 0 63.827 12.228 87.216 32.444l-0.17-0.144zM896-8c-32-32-114.24-28.48-211.2 8.32-143.821 60.974-266.22 146.236-367.652 251.795l-0.348 0.365c-106.154 101.756-191.622 224.155-250.084 360.856l-2.716 7.144c-36.16 96.96-39.36 179.52-8 211.52l19.52 20.16c32 34.56 70.080 73.6 111.040 73.6h2.88c28.8 0 60.16-22.4 92.8-64 96-121.28 64-155.2 5.76-211.52l-10.88-10.24c-45.76-45.76 0-134.72 146.56-280.32 45.164-46.777 94.573-88.871 147.794-125.865l3.246-2.135c59.2-38.72 102.72-44.48 129.6-17.6l11.2 11.2c56 56.96 89.92 91.2 211.2-6.080 40.32-32 61.76-64 64-92.8 1.92-42.24-38.4-80.32-73.6-113.92z" />
<glyph unicode="&#xeff04;" glyph-name="Ativo-10" horiz-adv-x="1101" d="M1101.445 654.693c-17.898 176.92-143.188 305.307-299.8 305.307-107.775-0.501-201.888-58.522-253.27-144.923l-0.751-1.363c-49.59 87.485-141.843 145.694-247.742 146.285h-0.084c-156.612 0-281.901-128.387-298.079-305.307-0.976-9.453-1.533-20.426-1.533-31.529 0-30.043 4.077-59.134 11.709-86.75l-0.538 2.282c25.084-101.877 78.782-188.77 152.005-254.29l0.477-0.419 383.441-347.988 390.325 347.988c73.7 65.94 127.397 152.832 151.766 251.291l0.716 3.418c7.915 26.71 12.47 57.399 12.47 89.151 0 9.449-0.403 18.804-1.194 28.049l0.083-1.204zM1049.127 546.958c-23.062-93.102-72.264-172.477-139.298-232.288l-0.448-0.393-361.756-321.484-355.56 322.861c-67.265 59.862-116.419 138.731-139.071 228.161l-0.674 3.142c-6.269 21.908-9.873 47.071-9.873 73.075 0 9.296 0.461 18.484 1.36 27.544l-0.092-1.145v3.786c13.768 154.891 121.159 267.445 255.742 267.445 103.751-1.427 191.972-66.391 227.626-157.679l0.58-1.686 19.619-46.123 19.619 46.123c38.7 93.571 128.861 158.402 234.28 159.365l0.121 0.001c134.583 0 240.941-112.554 256.086-269.51 0.917-8.485 1.439-18.328 1.439-28.293 0-25.934-3.541-51.040-10.165-74.863l0.465 1.96z" />
</font>
</defs>
</svg>
